<?xml version="1.0" encoding="utf-8"?>
<!-- Generator: Adobe Illustrator 21.0.0, SVG Export Plug-In . SVG Version: 6.00 Build 0)  -->
<!DOCTYPE svg PUBLIC "-//W3C//DTD SVG 1.1//EN" "http://www.w3.org/Graphics/SVG/1.1/DTD/svg11.dtd">
<svg version="1.1" id="link" xmlns="http://www.w3.org/2000/svg" xmlns:xlink="http://www.w3.org/1999/xlink" x="0px" y="0px"
	 viewBox="0 0 1024 1024" style="enable-background:new 0 0 1024 1024;" xml:space="preserve">
<style type="text/css">
	.st0{fill:#FF5252;}
</style>
<path class="st0" d="M512,78.3C272.5,78.3,78.3,272.5,78.3,512S272.5,945.7,512,945.7S945.7,751.5,945.7,512S751.5,78.3,512,78.3z
	 M561.9,661.8l-66.7,66.7C440,783.7,351,784.2,295.7,729c-55.2-55.2-55.7-145.3-0.5-200.5l66.6-66.7c3.8-3.8,7.7-7.3,11.8-10.5
	c15.6-12.5,33.2-21.1,51.7-26c16.7-4.6,34.2-5.9,51.4-4c16,1.7,31.8,6.1,46.6,13.3c13.9,6.7,27,15.8,38.4,27.3
	c11.5,11.5,20.6,24.5,27.3,38.4c-18.4,13.1-44.2,11.3-60.6-5.1c-16.9-16.9-38.7-26.1-60.8-27.5c-15.8-1-31.9,2-46.4,9
	c-9.5,4.5-18.3,10.6-26.1,18.4l-66.7,66.7c-36.8,36.8-36.8,96.5,0,133.3c36.8,36.8,96.5,36.8,133.3,0l51.2-51.2
	c19.3,5.2,39.4,7.2,59.3,6.1C569.2,654.1,565.7,658,561.9,661.8z M728.5,495.2l-66.6,66.6c-3.8,3.8-7.7,7.3-11.8,10.5
	c-15.6,12.5-33.2,21.1-51.7,26c-16.7,4.6-34.2,5.9-51.4,4.1c-16-1.7-31.8-6.1-46.6-13.3c-13.9-6.7-27-15.8-38.4-27.3
	c-11.5-11.5-20.6-24.5-27.3-38.4c18.4-13.1,44.2-11.3,60.6,5.1c16.9,16.9,38.7,26.1,60.8,27.5c15.8,1,31.9-2.1,46.5-9
	c9.4-4.5,18.3-10.6,26.1-18.4l66.6-66.7c36.8-36.8,37.1-96.2,0.3-133.1c-36.8-36.8-96.7-37.1-133.6-0.2l-51.2,51.2
	c-19.4-5.2-39.4-7.2-59.3-6.1c3.3-4.1,6.8-8,10.5-11.8l66.6-66.6c55.2-55.2,144.8-55.2,200,0C783.7,350.4,783.7,440,728.5,495.2z"/>
</svg>
