<?xml version="1.0" encoding="utf-8"?>
<!-- Generator: Adobe Illustrator 21.0.0, SVG Export Plug-In . SVG Version: 6.00 Build 0)  -->
<!DOCTYPE svg PUBLIC "-//W3C//DTD SVG 1.1//EN" "http://www.w3.org/Graphics/SVG/1.1/DTD/svg11.dtd">
<svg version="1.1" id="Layer_1" xmlns="http://www.w3.org/2000/svg" xmlns:xlink="http://www.w3.org/1999/xlink" x="0px" y="0px"
	 viewBox="0 0 57 57" style="enable-background:new 0 0 57 57;" xml:space="preserve">
<style type="text/css">
	.st0{fill:#D8D8D8;}
</style>
<g>
	<path class="st0" d="M37.5,18h-18c-0.8,0-1.5,0.7-1.5,1.5v18c0,0.8,0.7,1.5,1.5,1.5s1.5-0.7,1.5-1.5V29h15v7h-2.5
		c-0.8,0-1.5,0.7-1.5,1.5c0,0.8,0.7,1.5,1.5,1.5h4c0.8,0,1.5-0.7,1.5-1.5v-18C39,18.7,38.3,18,37.5,18z M21,21h6v5h-6V21z M30,26v-5
		h6v5H30z"/>
	<path class="st0" d="M28.6,50.5c0-0.8,0.6-1.5,1.4-1.6l0,0c0.8-0.1,1.5,0.6,1.6,1.4l0,0c0.1,0.8-0.6,1.5-1.4,1.6l0,0h-0.1l0,0
		C29.3,51.9,28.6,51.3,28.6,50.5z M23.8,51.5c-0.8-0.2-1.3-1-1.2-1.8l0,0c0.2-0.8,1-1.3,1.8-1.2l0,0c0.8,0.2,1.3,1,1.2,1.8l0,0
		c-0.1,0.7-0.8,1.2-1.5,1.2l0,0C24,51.6,23.9,51.5,23.8,51.5z M34.5,49.7c-0.3-0.8,0.1-1.6,0.9-1.9l0,0c0.8-0.3,1.6,0.1,1.9,0.9l0,0
		c0.3,0.8-0.1,1.6-0.9,1.9l0,0c-0.2,0.1-0.3,0.1-0.5,0.1l0,0C35.3,50.7,34.7,50.3,34.5,49.7z M17.8,49.4c-0.7-0.4-1-1.3-0.6-2l0,0
		c0.4-0.7,1.3-1,2-0.6l0,0c0.7,0.4,1,1.3,0.6,2l0,0c-0.3,0.5-0.8,0.8-1.3,0.8l0,0C18.2,49.6,18,49.5,17.8,49.4z M40,47.3
		c-0.5-0.7-0.3-1.6,0.3-2.1l0,0c0.7-0.5,1.6-0.3,2.1,0.3l0,0c0.5,0.7,0.3,1.6-0.4,2.1l0,0l0,0l0,0c-0.3,0.2-0.6,0.3-0.9,0.3l0,0
		C40.8,47.9,40.3,47.7,40,47.3z M12.5,45.7c-0.6-0.6-0.6-1.5-0.1-2.1l0,0c0.6-0.6,1.5-0.6,2.1-0.1l0,0c0.6,0.6,0.6,1.5,0.1,2.1l0,0
		c-0.3,0.3-0.7,0.5-1.1,0.5l0,0C13.2,46.1,12.8,46,12.5,45.7z M44.7,43.5C44,43,43.9,42,44.5,41.4l0,0c0.5-0.6,1.5-0.8,2.1-0.2l0,0
		c0.6,0.5,0.7,1.5,0.2,2.1l0,0l0,0l0,0c-0.3,0.4-0.7,0.5-1.2,0.5l0,0C45.3,43.8,44.9,43.7,44.7,43.5z M8.5,40.8
		c-0.4-0.7-0.2-1.6,0.5-2.1l0,0c0.7-0.4,1.6-0.2,2.1,0.5l0,0c0.4,0.7,0.2,1.6-0.5,2.1l0,0c-0.2,0.1-0.5,0.2-0.8,0.2l0,0
		C9.2,41.5,8.7,41.3,8.5,40.8z M48.1,38.6c-0.8-0.3-1.1-1.2-0.8-2l0,0c0.3-0.8,1.2-1.1,2-0.8l0,0c0.8,0.3,1.1,1.2,0.8,2l0,0l0,0l0,0
		c-0.2,0.6-0.8,0.9-1.4,0.9l0,0C48.5,38.7,48.3,38.7,48.1,38.6z M5.9,34.9c-0.2-0.8,0.2-1.6,1-1.8l0,0c0.8-0.2,1.6,0.2,1.9,1l0,0
		c0.2,0.8-0.2,1.6-1,1.9l0,0c-0.1,0-0.3,0.1-0.4,0.1l0,0C6.7,36,6.1,35.6,5.9,34.9z M50.1,32.9c-0.8-0.1-1.4-0.9-1.3-1.7l0,0
		c0.1-0.8,0.9-1.4,1.7-1.3l0,0c0.8,0.1,1.4,0.9,1.3,1.7l0,0c-0.1,0.8-0.8,1.3-1.5,1.3l0,0C50.2,33,50.2,32.9,50.1,32.9z M5,28.6
		L5,28.6L5,28.6C5,28.5,5,28.5,5,28.6L5,28.6L5,28.6L5,28.6C5,27.7,5.7,27,6.5,27l0,0C7.3,27,8,27.7,8,28.5l0,0l0,0l0,0l0,0l0,0
		C8,29.3,7.3,30,6.5,30l0,0C5.7,30.1,5,29.4,5,28.6z M5,28.6L5,28.6L5,28.6L5,28.6L5,28.6L5,28.6z M48.8,25.7
		c-0.1-0.8,0.5-1.6,1.3-1.7l0,0c0.8-0.1,1.6,0.5,1.7,1.3l0,0l0,0l0,0c0.1,0.8-0.5,1.6-1.3,1.7l0,0c-0.1,0-0.1,0-0.2,0l0,0
		C49.5,27,48.9,26.4,48.8,25.7z M6.9,24c-0.8-0.2-1.3-1-1-1.9l0,0l0,0l0,0c0.2-0.8,1-1.3,1.8-1l0,0c0.8,0.2,1.3,1.1,1,1.9l0,0
		c-0.2,0.7-0.8,1.1-1.4,1.1l0,0C7.2,24.1,7,24,6.9,24z M47.3,20.3L47.3,20.3c-0.3-0.8,0-1.6,0.8-2l0,0c0.8-0.3,1.7,0,2,0.8l0,0
		c0.3,0.8,0,1.6-0.8,2l0,0c-0.2,0.1-0.4,0.1-0.6,0.1l0,0C48.1,21.2,47.5,20.9,47.3,20.3z M8.9,18.3C8.2,17.9,8,17,8.4,16.2l0,0l0,0
		l0,0c0.4-0.7,1.4-0.9,2.1-0.5l0,0c0.7,0.4,0.9,1.4,0.5,2.1l0,0c-0.3,0.5-0.8,0.7-1.3,0.7l0,0C9.4,18.6,9.2,18.5,8.9,18.3z
		 M44.4,15.5c-0.5-0.6-0.4-1.6,0.2-2.1l0,0c0.6-0.5,1.6-0.4,2.1,0.2l0,0c0.5,0.6,0.4,1.6-0.2,2.1l0,0c-0.3,0.2-0.6,0.3-1,0.3l0,0
		C45.1,16.1,44.7,15.9,44.4,15.5z M12.4,13.4c-0.6-0.6-0.5-1.5,0.1-2.1l0,0c0.6-0.6,1.6-0.5,2.1,0.1l0,0c0.6,0.6,0.5,1.6-0.1,2.1
		l0,0c-0.3,0.3-0.7,0.4-1,0.4l0,0C13.1,13.9,12.7,13.8,12.4,13.4z M40.3,11.7c-0.7-0.5-0.8-1.4-0.4-2.1l0,0c0.5-0.7,1.4-0.8,2.1-0.4
		l0,0c0.7,0.5,0.8,1.4,0.4,2.1l0,0c-0.3,0.4-0.8,0.6-1.2,0.6l0,0C40.9,12,40.6,11.9,40.3,11.7z M17,9.7c-0.4-0.7-0.1-1.6,0.6-2l0,0
		c0.7-0.4,1.6-0.1,2,0.6l0,0c0.4,0.7,0.1,1.6-0.6,2l0,0c-0.2,0.1-0.5,0.2-0.7,0.2l0,0C17.8,10.5,17.3,10.2,17,9.7z M35.3,9.2
		c-0.8-0.3-1.2-1.1-0.9-1.9l0,0c0.3-0.8,1.1-1.2,1.9-0.9l0,0c0.8,0.3,1.2,1.1,0.9,1.9l0,0c-0.2,0.6-0.8,1-1.4,1l0,0
		C35.7,9.3,35.5,9.2,35.3,9.2z M22.5,7.3c-0.2-0.8,0.3-1.6,1.2-1.8l0,0c0.8-0.2,1.6,0.4,1.8,1.2l0,0c0.2,0.8-0.4,1.6-1.2,1.8l0,0
		c-0.1,0-0.2,0-0.3,0l0,0C23.3,8.5,22.7,8,22.5,7.3z M29.9,8L29.9,8c-0.8-0.1-1.5-0.8-1.4-1.6l0,0c0-0.8,0.8-1.4,1.6-1.4l0,0l0,0
		l0,0c0.8,0,1.5,0.8,1.4,1.6l0,0C31.4,7.4,30.8,8,29.9,8L29.9,8L29.9,8z"/>
	<path class="st0" d="M28.5,57C12.8,57,0,44.2,0,28.5S12.8,0,28.5,0S57,12.8,57,28.5S44.2,57,28.5,57z M28.5,3C14.4,3,3,14.4,3,28.5
		S14.4,54,28.5,54S54,42.6,54,28.5S42.6,3,28.5,3z"/>
</g>
<text transform="matrix(1 0 0 1 -21.5 88.5)" style="font-family:'HelveticaCE-Bold'; font-size:5px;">Created by Till Teenck</text>
<text transform="matrix(1 0 0 1 -21.5 93.5)" style="font-family:'HelveticaCE-Bold'; font-size:5px;">from the Noun Project</text>
</svg>
