<?xml version="1.0" encoding="UTF-8"?>
<svg width="376px" height="70px" viewBox="0 0 376 70" version="1.1" xmlns="http://www.w3.org/2000/svg" xmlns:xlink="http://www.w3.org/1999/xlink">
    <!-- Generator: Sketch 49.3 (51167) - http://www.bohemiancoding.com/sketch -->
    <title>three-line</title>
    <desc>Created with Sketch.</desc>
    <defs>
        <polygon id="path-1" points="0 0.684033633 52.434416 0.684033633 52.434416 11.2 0 11.2"></polygon>
        <polygon id="path-3" points="-8.76370619e-05 0.684033633 52.434416 0.684033633 52.434416 11.2 -8.76370619e-05 11.2"></polygon>
        <polygon id="path-5" points="-8.76370619e-05 0.684033633 52.434416 0.684033633 52.434416 11.2 -8.76370619e-05 11.2"></polygon>
        <polygon id="path-7" points="-8.76370619e-05 0.684033633 52.434416 0.684033633 52.434416 11.2 -8.76370619e-05 11.2"></polygon>
        <polygon id="path-9" points="-8.76370619e-05 0.684033633 52.434416 0.684033633 52.434416 11.2 -8.76370619e-05 11.2"></polygon>
        <polygon id="path-11" points="0.000219901576 0.684033633 52.434416 0.684033633 52.434416 11.2 0.000219901576 11.2"></polygon>
        <polygon id="path-13" points="0.000219901576 0.684033633 52.434416 0.684033633 52.434416 11.2 0.000219901576 11.2"></polygon>
        <polygon id="path-15" points="0.000219901576 0.684033633 52.434416 0.684033633 52.434416 11.2 0.000219901576 11.2"></polygon>
        <polygon id="path-17" points="0 0.684033633 52.434416 0.684033633 52.434416 11.2 0 11.2"></polygon>
        <polygon id="path-19" points="-8.76370619e-05 0.684033633 52.434416 0.684033633 52.434416 11.2 -8.76370619e-05 11.2"></polygon>
        <polygon id="path-21" points="-8.76370619e-05 0.684033633 52.434416 0.684033633 52.434416 11.2 -8.76370619e-05 11.2"></polygon>
        <polygon id="path-23" points="-8.76370619e-05 0.684033633 52.434416 0.684033633 52.434416 11.2 -8.76370619e-05 11.2"></polygon>
        <polygon id="path-25" points="-8.76370619e-05 0.684033633 52.434416 0.684033633 52.434416 11.2 -8.76370619e-05 11.2"></polygon>
        <polygon id="path-27" points="0.000219901576 0.684033633 52.434416 0.684033633 52.434416 11.2 0.000219901576 11.2"></polygon>
        <polygon id="path-29" points="0.000219901576 0.684033633 52.434416 0.684033633 52.434416 11.2 0.000219901576 11.2"></polygon>
        <polygon id="path-31" points="0.000219901576 0.684033633 52.434416 0.684033633 52.434416 11.2 0.000219901576 11.2"></polygon>
        <polygon id="path-33" points="0 0.684033633 52.434416 0.684033633 52.434416 11.2 0 11.2"></polygon>
        <polygon id="path-35" points="-8.76370619e-05 0.684033633 52.434416 0.684033633 52.434416 11.2 -8.76370619e-05 11.2"></polygon>
        <polygon id="path-37" points="-8.76370619e-05 0.684033633 52.434416 0.684033633 52.434416 11.2 -8.76370619e-05 11.2"></polygon>
        <polygon id="path-39" points="-8.76370619e-05 0.684033633 52.434416 0.684033633 52.434416 11.2 -8.76370619e-05 11.2"></polygon>
        <polygon id="path-41" points="-8.76370619e-05 0.684033633 52.434416 0.684033633 52.434416 11.2 -8.76370619e-05 11.2"></polygon>
        <polygon id="path-43" points="0.000219901576 0.684033633 52.434416 0.684033633 52.434416 11.2 0.000219901576 11.2"></polygon>
        <polygon id="path-45" points="0.000219901576 0.684033633 52.434416 0.684033633 52.434416 11.2 0.000219901576 11.2"></polygon>
        <polygon id="path-47" points="0.000219901576 0.684033633 52.434416 0.684033633 52.434416 11.2 0.000219901576 11.2"></polygon>
    </defs>
    <g id="three-line" stroke="none" stroke-width="1" fill="none" fill-rule="evenodd" opacity="0.5">
        <g id="Group-35">
            <g id="Page-1-Copy-20">
                <g id="Group-3" transform="translate(0.000000, 0.115920)">
                    <mask id="mask-2" fill="white">
                        <use xlink:href="#path-1"></use>
                    </mask>
                    <g id="Clip-2"></g>
                    <path d="M3.96982079,8.81904 C12.8296318,6.19344 21.8081422,9.40544 30.5783955,10.78544 C37.2284068,11.83264 43.6794011,10.79344 50.1701989,8.81904 C54.1398775,7.61184 52.4553406,0.66384 48.4693142,1.87664 C41.8697679,3.88384 35.8971251,4.58144 29.2165505,3.30704 C20.307696,1.60784 11.2623728,-0.78896 2.26893611,1.87664 C-1.70856106,3.05504 -0.0211810964,10.00224 3.96982079,8.81904" id="Fill-1" fill="#C7B299" mask="url(#mask-2)"></path>
                </g>
                <g id="Group-6" transform="translate(46.200378, 0.115920)">
                    <mask id="mask-4" fill="white">
                        <use xlink:href="#path-3"></use>
                    </mask>
                    <g id="Clip-5"></g>
                    <path d="M3.96982079,8.81904 C12.8296318,6.19344 21.8081422,9.40544 30.5783955,10.78544 C37.2284068,11.83264 43.6794011,10.79344 50.1701989,8.81904 C54.1398775,7.61184 52.4553406,0.66384 48.4693142,1.87664 C41.8697679,3.88384 35.8971251,4.58144 29.2165505,3.30704 C20.307696,1.60784 11.2623728,-0.78896 2.26893611,1.87664 C-1.70856106,3.05504 -0.0211810964,10.00224 3.96982079,8.81904" id="Fill-4" fill="#C7B299" mask="url(#mask-4)"></path>
                </g>
                <g id="Group-9" transform="translate(92.400756, 0.115920)">
                    <mask id="mask-6" fill="white">
                        <use xlink:href="#path-5"></use>
                    </mask>
                    <g id="Clip-8"></g>
                    <path d="M3.96982079,8.81904 C12.8296318,6.19344 21.8081422,9.40544 30.5783955,10.78544 C37.2284068,11.83264 43.6794011,10.79344 50.1701989,8.81904 C54.1398775,7.61184 52.4553406,0.66384 48.4693142,1.87664 C41.8697679,3.88384 35.8971251,4.58144 29.2165505,3.30704 C20.307696,1.60784 11.2623728,-0.78896 2.26893611,1.87664 C-1.70856106,3.05504 -0.0211810964,10.00224 3.96982079,8.81904" id="Fill-7" fill="#C7B299" mask="url(#mask-6)"></path>
                </g>
                <g id="Group-12" transform="translate(138.601134, 0.115920)">
                    <mask id="mask-8" fill="white">
                        <use xlink:href="#path-7"></use>
                    </mask>
                    <g id="Clip-11"></g>
                    <path d="M3.96982079,8.81904 C12.8296318,6.19344 21.8081422,9.40544 30.5783955,10.78544 C37.2284068,11.83264 43.6794011,10.79344 50.1701989,8.81904 C54.1398775,7.61184 52.4553406,0.66384 48.4693142,1.87664 C41.8697679,3.88384 35.8971251,4.58144 29.2165505,3.30704 C20.307696,1.60784 11.2623728,-0.78896 2.26893611,1.87664 C-1.70856106,3.05504 -0.0211810964,10.00224 3.96982079,8.81904" id="Fill-10" fill="#C7B299" mask="url(#mask-8)"></path>
                </g>
                <g id="Group-15" transform="translate(184.801512, 0.115920)">
                    <mask id="mask-10" fill="white">
                        <use xlink:href="#path-9"></use>
                    </mask>
                    <g id="Clip-14"></g>
                    <path d="M3.96982079,8.81904 C12.8296318,6.19344 21.8081422,9.40544 30.5783955,10.78544 C37.2284068,11.83264 43.6794011,10.79344 50.1701989,8.81904 C54.1398775,7.61184 52.4553406,0.66384 48.4693142,1.87664 C41.8697679,3.88384 35.8971251,4.58144 29.2165505,3.30704 C20.307696,1.60784 11.2623728,-0.78896 2.26893611,1.87664 C-1.70856106,3.05504 -0.0211810964,10.00224 3.96982079,8.81904" id="Fill-13" fill="#C7B299" mask="url(#mask-10)"></path>
                </g>
                <g id="Group-18" transform="translate(231.001890, 0.115920)">
                    <mask id="mask-12" fill="white">
                        <use xlink:href="#path-11"></use>
                    </mask>
                    <g id="Clip-17"></g>
                    <path d="M3.96982079,8.81904 C12.8296318,6.19344 21.8081422,9.40544 30.5783955,10.78544 C37.2284068,11.83264 43.6794011,10.79344 50.1701989,8.81904 C54.1398775,7.61184 52.4553406,0.66384 48.4693142,1.87664 C41.8697679,3.88384 35.8978359,4.58144 29.2165505,3.30704 C20.307696,1.60784 11.2623728,-0.78896 2.26893611,1.87664 C-1.70785028,3.05504 -0.0211810964,10.00224 3.96982079,8.81904" id="Fill-16" fill="#C7B299" mask="url(#mask-12)"></path>
                </g>
                <g id="Group-21" transform="translate(277.202268, 0.115920)">
                    <mask id="mask-14" fill="white">
                        <use xlink:href="#path-13"></use>
                    </mask>
                    <g id="Clip-20"></g>
                    <path d="M3.96982079,8.81904 C12.8296318,6.19344 21.8081422,9.40544 30.5783955,10.78544 C37.2284068,11.83264 43.6794011,10.79344 50.1701989,8.81904 C54.1398775,7.61184 52.4553406,0.66384 48.4693142,1.87664 C41.8697679,3.88384 35.8978359,4.58144 29.2165505,3.30704 C20.307696,1.60784 11.2623728,-0.78896 2.26893611,1.87664 C-1.70785028,3.05504 -0.0211810964,10.00224 3.96982079,8.81904" id="Fill-19" fill="#C7B299" mask="url(#mask-14)"></path>
                </g>
                <g id="Group-24" transform="translate(323.402647, 0.115920)">
                    <mask id="mask-16" fill="white">
                        <use xlink:href="#path-15"></use>
                    </mask>
                    <g id="Clip-23"></g>
                    <path d="M3.96982079,8.81904 C12.8296318,6.19344 21.8081422,9.40544 30.5783955,10.78544 C37.2284068,11.83264 43.6794011,10.79344 50.1701989,8.81904 C54.1398775,7.61184 52.4553406,0.66384 48.4693142,1.87664 C41.8697679,3.88384 35.8978359,4.58144 29.2165505,3.30704 C20.307696,1.60784 11.2623728,-0.78896 2.26893611,1.87664 C-1.70785028,3.05504 -0.0211810964,10.00224 3.96982079,8.81904" id="Fill-22" fill="#C7B299" mask="url(#mask-16)"></path>
                </g>
            </g>
            <g id="Page-1-Copy-21" transform="translate(0.000000, 29.000000)">
                <g id="Group-3" transform="translate(0.000000, 0.115920)">
                    <mask id="mask-18" fill="white">
                        <use xlink:href="#path-17"></use>
                    </mask>
                    <g id="Clip-2"></g>
                    <path d="M3.96982079,8.81904 C12.8296318,6.19344 21.8081422,9.40544 30.5783955,10.78544 C37.2284068,11.83264 43.6794011,10.79344 50.1701989,8.81904 C54.1398775,7.61184 52.4553406,0.66384 48.4693142,1.87664 C41.8697679,3.88384 35.8971251,4.58144 29.2165505,3.30704 C20.307696,1.60784 11.2623728,-0.78896 2.26893611,1.87664 C-1.70856106,3.05504 -0.0211810964,10.00224 3.96982079,8.81904" id="Fill-1" fill="#C7B299" mask="url(#mask-18)"></path>
                </g>
                <g id="Group-6" transform="translate(46.200378, 0.115920)">
                    <mask id="mask-20" fill="white">
                        <use xlink:href="#path-19"></use>
                    </mask>
                    <g id="Clip-5"></g>
                    <path d="M3.96982079,8.81904 C12.8296318,6.19344 21.8081422,9.40544 30.5783955,10.78544 C37.2284068,11.83264 43.6794011,10.79344 50.1701989,8.81904 C54.1398775,7.61184 52.4553406,0.66384 48.4693142,1.87664 C41.8697679,3.88384 35.8971251,4.58144 29.2165505,3.30704 C20.307696,1.60784 11.2623728,-0.78896 2.26893611,1.87664 C-1.70856106,3.05504 -0.0211810964,10.00224 3.96982079,8.81904" id="Fill-4" fill="#C7B299" mask="url(#mask-20)"></path>
                </g>
                <g id="Group-9" transform="translate(92.400756, 0.115920)">
                    <mask id="mask-22" fill="white">
                        <use xlink:href="#path-21"></use>
                    </mask>
                    <g id="Clip-8"></g>
                    <path d="M3.96982079,8.81904 C12.8296318,6.19344 21.8081422,9.40544 30.5783955,10.78544 C37.2284068,11.83264 43.6794011,10.79344 50.1701989,8.81904 C54.1398775,7.61184 52.4553406,0.66384 48.4693142,1.87664 C41.8697679,3.88384 35.8971251,4.58144 29.2165505,3.30704 C20.307696,1.60784 11.2623728,-0.78896 2.26893611,1.87664 C-1.70856106,3.05504 -0.0211810964,10.00224 3.96982079,8.81904" id="Fill-7" fill="#C7B299" mask="url(#mask-22)"></path>
                </g>
                <g id="Group-12" transform="translate(138.601134, 0.115920)">
                    <mask id="mask-24" fill="white">
                        <use xlink:href="#path-23"></use>
                    </mask>
                    <g id="Clip-11"></g>
                    <path d="M3.96982079,8.81904 C12.8296318,6.19344 21.8081422,9.40544 30.5783955,10.78544 C37.2284068,11.83264 43.6794011,10.79344 50.1701989,8.81904 C54.1398775,7.61184 52.4553406,0.66384 48.4693142,1.87664 C41.8697679,3.88384 35.8971251,4.58144 29.2165505,3.30704 C20.307696,1.60784 11.2623728,-0.78896 2.26893611,1.87664 C-1.70856106,3.05504 -0.0211810964,10.00224 3.96982079,8.81904" id="Fill-10" fill="#C7B299" mask="url(#mask-24)"></path>
                </g>
                <g id="Group-15" transform="translate(184.801512, 0.115920)">
                    <mask id="mask-26" fill="white">
                        <use xlink:href="#path-25"></use>
                    </mask>
                    <g id="Clip-14"></g>
                    <path d="M3.96982079,8.81904 C12.8296318,6.19344 21.8081422,9.40544 30.5783955,10.78544 C37.2284068,11.83264 43.6794011,10.79344 50.1701989,8.81904 C54.1398775,7.61184 52.4553406,0.66384 48.4693142,1.87664 C41.8697679,3.88384 35.8971251,4.58144 29.2165505,3.30704 C20.307696,1.60784 11.2623728,-0.78896 2.26893611,1.87664 C-1.70856106,3.05504 -0.0211810964,10.00224 3.96982079,8.81904" id="Fill-13" fill="#C7B299" mask="url(#mask-26)"></path>
                </g>
                <g id="Group-18" transform="translate(231.001890, 0.115920)">
                    <mask id="mask-28" fill="white">
                        <use xlink:href="#path-27"></use>
                    </mask>
                    <g id="Clip-17"></g>
                    <path d="M3.96982079,8.81904 C12.8296318,6.19344 21.8081422,9.40544 30.5783955,10.78544 C37.2284068,11.83264 43.6794011,10.79344 50.1701989,8.81904 C54.1398775,7.61184 52.4553406,0.66384 48.4693142,1.87664 C41.8697679,3.88384 35.8978359,4.58144 29.2165505,3.30704 C20.307696,1.60784 11.2623728,-0.78896 2.26893611,1.87664 C-1.70785028,3.05504 -0.0211810964,10.00224 3.96982079,8.81904" id="Fill-16" fill="#C7B299" mask="url(#mask-28)"></path>
                </g>
                <g id="Group-21" transform="translate(277.202268, 0.115920)">
                    <mask id="mask-30" fill="white">
                        <use xlink:href="#path-29"></use>
                    </mask>
                    <g id="Clip-20"></g>
                    <path d="M3.96982079,8.81904 C12.8296318,6.19344 21.8081422,9.40544 30.5783955,10.78544 C37.2284068,11.83264 43.6794011,10.79344 50.1701989,8.81904 C54.1398775,7.61184 52.4553406,0.66384 48.4693142,1.87664 C41.8697679,3.88384 35.8978359,4.58144 29.2165505,3.30704 C20.307696,1.60784 11.2623728,-0.78896 2.26893611,1.87664 C-1.70785028,3.05504 -0.0211810964,10.00224 3.96982079,8.81904" id="Fill-19" fill="#C7B299" mask="url(#mask-30)"></path>
                </g>
                <g id="Group-24" transform="translate(323.402647, 0.115920)">
                    <mask id="mask-32" fill="white">
                        <use xlink:href="#path-31"></use>
                    </mask>
                    <g id="Clip-23"></g>
                    <path d="M3.96982079,8.81904 C12.8296318,6.19344 21.8081422,9.40544 30.5783955,10.78544 C37.2284068,11.83264 43.6794011,10.79344 50.1701989,8.81904 C54.1398775,7.61184 52.4553406,0.66384 48.4693142,1.87664 C41.8697679,3.88384 35.8978359,4.58144 29.2165505,3.30704 C20.307696,1.60784 11.2623728,-0.78896 2.26893611,1.87664 C-1.70785028,3.05504 -0.0211810964,10.00224 3.96982079,8.81904" id="Fill-22" fill="#C7B299" mask="url(#mask-32)"></path>
                </g>
            </g>
            <g id="Page-1-Copy-22" transform="translate(0.000000, 58.000000)">
                <g id="Group-3" transform="translate(0.000000, 0.115920)">
                    <mask id="mask-34" fill="white">
                        <use xlink:href="#path-33"></use>
                    </mask>
                    <g id="Clip-2"></g>
                    <path d="M3.96982079,8.81904 C12.8296318,6.19344 21.8081422,9.40544 30.5783955,10.78544 C37.2284068,11.83264 43.6794011,10.79344 50.1701989,8.81904 C54.1398775,7.61184 52.4553406,0.66384 48.4693142,1.87664 C41.8697679,3.88384 35.8971251,4.58144 29.2165505,3.30704 C20.307696,1.60784 11.2623728,-0.78896 2.26893611,1.87664 C-1.70856106,3.05504 -0.0211810964,10.00224 3.96982079,8.81904" id="Fill-1" fill="#C7B299" mask="url(#mask-34)"></path>
                </g>
                <g id="Group-6" transform="translate(46.200378, 0.115920)">
                    <mask id="mask-36" fill="white">
                        <use xlink:href="#path-35"></use>
                    </mask>
                    <g id="Clip-5"></g>
                    <path d="M3.96982079,8.81904 C12.8296318,6.19344 21.8081422,9.40544 30.5783955,10.78544 C37.2284068,11.83264 43.6794011,10.79344 50.1701989,8.81904 C54.1398775,7.61184 52.4553406,0.66384 48.4693142,1.87664 C41.8697679,3.88384 35.8971251,4.58144 29.2165505,3.30704 C20.307696,1.60784 11.2623728,-0.78896 2.26893611,1.87664 C-1.70856106,3.05504 -0.0211810964,10.00224 3.96982079,8.81904" id="Fill-4" fill="#C7B299" mask="url(#mask-36)"></path>
                </g>
                <g id="Group-9" transform="translate(92.400756, 0.115920)">
                    <mask id="mask-38" fill="white">
                        <use xlink:href="#path-37"></use>
                    </mask>
                    <g id="Clip-8"></g>
                    <path d="M3.96982079,8.81904 C12.8296318,6.19344 21.8081422,9.40544 30.5783955,10.78544 C37.2284068,11.83264 43.6794011,10.79344 50.1701989,8.81904 C54.1398775,7.61184 52.4553406,0.66384 48.4693142,1.87664 C41.8697679,3.88384 35.8971251,4.58144 29.2165505,3.30704 C20.307696,1.60784 11.2623728,-0.78896 2.26893611,1.87664 C-1.70856106,3.05504 -0.0211810964,10.00224 3.96982079,8.81904" id="Fill-7" fill="#C7B299" mask="url(#mask-38)"></path>
                </g>
                <g id="Group-12" transform="translate(138.601134, 0.115920)">
                    <mask id="mask-40" fill="white">
                        <use xlink:href="#path-39"></use>
                    </mask>
                    <g id="Clip-11"></g>
                    <path d="M3.96982079,8.81904 C12.8296318,6.19344 21.8081422,9.40544 30.5783955,10.78544 C37.2284068,11.83264 43.6794011,10.79344 50.1701989,8.81904 C54.1398775,7.61184 52.4553406,0.66384 48.4693142,1.87664 C41.8697679,3.88384 35.8971251,4.58144 29.2165505,3.30704 C20.307696,1.60784 11.2623728,-0.78896 2.26893611,1.87664 C-1.70856106,3.05504 -0.0211810964,10.00224 3.96982079,8.81904" id="Fill-10" fill="#C7B299" mask="url(#mask-40)"></path>
                </g>
                <g id="Group-15" transform="translate(184.801512, 0.115920)">
                    <mask id="mask-42" fill="white">
                        <use xlink:href="#path-41"></use>
                    </mask>
                    <g id="Clip-14"></g>
                    <path d="M3.96982079,8.81904 C12.8296318,6.19344 21.8081422,9.40544 30.5783955,10.78544 C37.2284068,11.83264 43.6794011,10.79344 50.1701989,8.81904 C54.1398775,7.61184 52.4553406,0.66384 48.4693142,1.87664 C41.8697679,3.88384 35.8971251,4.58144 29.2165505,3.30704 C20.307696,1.60784 11.2623728,-0.78896 2.26893611,1.87664 C-1.70856106,3.05504 -0.0211810964,10.00224 3.96982079,8.81904" id="Fill-13" fill="#C7B299" mask="url(#mask-42)"></path>
                </g>
                <g id="Group-18" transform="translate(231.001890, 0.115920)">
                    <mask id="mask-44" fill="white">
                        <use xlink:href="#path-43"></use>
                    </mask>
                    <g id="Clip-17"></g>
                    <path d="M3.96982079,8.81904 C12.8296318,6.19344 21.8081422,9.40544 30.5783955,10.78544 C37.2284068,11.83264 43.6794011,10.79344 50.1701989,8.81904 C54.1398775,7.61184 52.4553406,0.66384 48.4693142,1.87664 C41.8697679,3.88384 35.8978359,4.58144 29.2165505,3.30704 C20.307696,1.60784 11.2623728,-0.78896 2.26893611,1.87664 C-1.70785028,3.05504 -0.0211810964,10.00224 3.96982079,8.81904" id="Fill-16" fill="#C7B299" mask="url(#mask-44)"></path>
                </g>
                <g id="Group-21" transform="translate(277.202268, 0.115920)">
                    <mask id="mask-46" fill="white">
                        <use xlink:href="#path-45"></use>
                    </mask>
                    <g id="Clip-20"></g>
                    <path d="M3.96982079,8.81904 C12.8296318,6.19344 21.8081422,9.40544 30.5783955,10.78544 C37.2284068,11.83264 43.6794011,10.79344 50.1701989,8.81904 C54.1398775,7.61184 52.4553406,0.66384 48.4693142,1.87664 C41.8697679,3.88384 35.8978359,4.58144 29.2165505,3.30704 C20.307696,1.60784 11.2623728,-0.78896 2.26893611,1.87664 C-1.70785028,3.05504 -0.0211810964,10.00224 3.96982079,8.81904" id="Fill-19" fill="#C7B299" mask="url(#mask-46)"></path>
                </g>
                <g id="Group-24" transform="translate(323.402647, 0.115920)">
                    <mask id="mask-48" fill="white">
                        <use xlink:href="#path-47"></use>
                    </mask>
                    <g id="Clip-23"></g>
                    <path d="M3.96982079,8.81904 C12.8296318,6.19344 21.8081422,9.40544 30.5783955,10.78544 C37.2284068,11.83264 43.6794011,10.79344 50.1701989,8.81904 C54.1398775,7.61184 52.4553406,0.66384 48.4693142,1.87664 C41.8697679,3.88384 35.8978359,4.58144 29.2165505,3.30704 C20.307696,1.60784 11.2623728,-0.78896 2.26893611,1.87664 C-1.70785028,3.05504 -0.0211810964,10.00224 3.96982079,8.81904" id="Fill-22" fill="#C7B299" mask="url(#mask-48)"></path>
                </g>
            </g>
        </g>
    </g>
</svg>