<?xml version="1.0" encoding="UTF-8"?>
<svg width="173px" height="174px" viewBox="0 0 173 174" version="1.1" xmlns="http://www.w3.org/2000/svg" xmlns:xlink="http://www.w3.org/1999/xlink">
    <!-- Generator: Sketch 49.3 (51167) - http://www.bohemiancoding.com/sketch -->
    <title>icon-circle-dining</title>
    <desc>Created with Sketch.</desc>
    <defs>
        <polygon id="path-1" points="0.783652193 0.923 7.10950426 0.923 7.10950426 13.4451306 0.783652193 13.4451306"></polygon>
        <polygon id="path-3" points="0.641378469 0.371038843 13.075 0.371038843 13.075 6.95010682 0.641378469 6.95010682"></polygon>
    </defs>
    <g id="icon-circle-dining" stroke="none" stroke-width="1" fill="none" fill-rule="evenodd">
        <g id="Page-1">
            <path d="M171.0715,94.5087 C171.3985,94.7377 171.8305,94.4597 171.7635,94.0457 C171.6195,93.2047 171.3375,91.9327 170.4905,90.8667 C169.6425,89.7967 168.3245,88.9537 166.2755,88.8907 C160.8615,88.7047 161.5215,87.7367 160.6135,87.1067 C160.2815,86.8797 159.8235,87.1747 159.9185,87.5457 C160.1395,88.4097 160.6425,89.5007 161.3845,90.4037 C162.1345,91.3037 163.0425,92.0177 164.2375,92.0557 C169.0325,92.1857 169.3125,93.2867 171.0715,94.5087" id="Fill-1" fill="#A49384"></path>
            <path d="M170.0823,101.9984 C170.3853,102.2544 170.8433,102.0164 170.8183,101.5994 C170.7943,101.1754 170.7343,100.6394 170.5953,100.0684 C170.4313,99.4944 170.1843,98.8844 169.8153,98.3164 C169.0783,97.1764 167.8503,96.2224 165.8133,95.9804 C160.4463,95.3224 161.1923,94.4164 160.3013,93.7064 C159.9813,93.4504 159.5113,93.7054 159.5883,94.0844 C159.9103,95.8264 161.1573,98.6484 163.5143,98.9554 C168.2813,99.5084 168.4503,100.6274 170.0823,101.9984" id="Fill-3" fill="#A49384"></path>
            <path d="M168.4416,109.3764 C168.7186,109.6584 169.1996,109.4624 169.2166,109.0454 C169.2586,107.3284 168.7576,103.8184 164.7286,103.0024 C159.4286,101.8704 160.2236,101.0284 159.4226,100.2474 C159.1296,99.9654 158.6346,100.1764 158.6736,100.5594 C158.7186,101.0064 158.8246,101.5204 158.9926,102.0514 C159.1346,102.5764 159.3406,103.1194 159.6166,103.6254 C160.1666,104.6364 160.9906,105.5114 162.1466,105.7564 C166.8346,106.7274 166.9696,107.8744 168.4416,109.3764" id="Fill-5" fill="#A49384"></path>
            <path d="M166.1575,116.5834 C166.4035,116.8864 166.9165,116.7404 166.9495,116.3194 C167.0305,115.4684 167.0425,114.1494 166.5375,112.9064 C166.0535,111.6664 164.9485,110.4904 163.0005,109.8954 C157.8235,108.2954 158.7005,107.5314 157.9795,106.6844 C157.7155,106.3774 157.2005,106.5424 157.2005,106.9274 C157.2525,108.7104 157.9395,111.6934 160.1915,112.4094 C164.7765,113.7944 164.7855,114.9414 166.1575,116.5834" id="Fill-7" fill="#A49384"></path>
            <path d="M163.2219,123.5497 C163.4509,123.8787 163.9499,123.7677 164.0299,123.3557 C164.1919,122.5177 164.3319,121.2097 163.9469,119.9307 C163.5199,118.6297 162.5749,117.3797 160.6739,116.6087 C155.6599,114.5537 156.6119,113.8757 155.9749,112.9687 C155.7419,112.6417 155.2109,112.7587 155.1739,113.1397 C155.0859,114.0277 155.1829,115.2247 155.5699,116.3297 C155.9229,117.4177 156.5609,118.4177 157.6589,118.8647 C162.1069,120.6557 161.9929,121.7887 163.2219,123.5497" id="Fill-9" fill="#A49384"></path>
            <path d="M159.6789,130.225 C159.8749,130.572 160.3849,130.507 160.5039,130.105 C160.7329,129.282 161.0389,128.019 160.7169,126.683 C160.4149,125.354 159.5899,124.028 157.7659,123.091 C152.9489,120.596 153.9889,120.019 153.4069,119.047 C153.1929,118.695 152.6709,118.773 152.6059,119.152 C152.2729,120.883 152.5079,123.987 154.5659,125.074 C158.8399,127.252 158.6179,128.366 159.6789,130.225" id="Fill-11" fill="#A49384"></path>
            <path d="M155.5647,136.5615 C155.7287,136.9235 156.2447,136.9055 156.4007,136.5185 C157.0927,134.9595 157.7647,131.4445 154.2987,129.2925 C149.7367,126.3905 150.7977,125.8935 150.2997,124.8695 C150.1217,124.5015 149.5867,124.5285 149.4937,124.9035 C149.0337,126.6125 148.9567,129.7045 150.9397,130.9875 C155.0037,133.5365 154.6787,134.6215 155.5647,136.5615" id="Fill-13" fill="#A49384"></path>
            <path d="M150.9133,142.5126 C151.0443,142.8866 151.5603,142.9156 151.7523,142.5446 C152.5573,141.0366 153.5643,137.6166 150.3003,135.1666 C146.0103,131.8726 147.0813,131.4486 146.6943,130.3986 C146.5513,130.0166 146.0153,129.9956 145.8853,130.3596 C145.6013,131.2186 145.3533,132.3796 145.4143,133.5316 C145.4803,134.6836 145.8513,135.8296 146.7903,136.5476 C150.6193,139.4486 150.2183,140.5156 150.9133,142.5126" id="Fill-15" fill="#A49384"></path>
            <path d="M145.76,148.0341 C145.857,148.4171 146.369,148.4921 146.596,148.1431 C147.489,146.6721 148.864,143.4221 145.784,140.6541 C141.794,136.9891 142.91,136.6701 142.619,135.5921 C142.511,135.2011 141.977,135.1301 141.814,135.4791 C141.106,137.1241 140.422,140.0941 142.166,141.7201 C145.71,144.9301 145.254,145.9951 145.76,148.0341" id="Fill-17" fill="#A49384"></path>
            <path d="M140.1438,153.0854 C140.2018,153.4704 140.7188,153.6064 140.9608,153.2604 C141.4608,152.5674 142.1378,151.4374 142.3318,150.1104 C142.5398,148.7944 142.1828,147.2214 140.8048,145.7224 C137.1518,141.7204 138.2968,141.5064 138.1058,140.4104 C138.0338,140.0124 137.5058,139.8944 137.3108,140.2254 C136.8468,140.9864 136.4568,142.1494 136.2988,143.2754 C136.1538,144.4114 136.3098,145.5974 137.1098,146.4684 C140.3628,149.9834 139.7918,150.9794 140.1438,153.0854" id="Fill-19" fill="#A49384"></path>
            <path d="M134.0959,157.6137 C134.1269,158.0127 134.6139,158.1687 134.8909,157.8537 C135.4529,157.2127 136.2329,156.1527 136.5449,154.8537 C136.8389,153.5217 136.6509,151.9597 135.4019,150.3357 C132.1159,146.0287 133.2799,145.9227 133.1879,144.8187 C133.1529,144.4167 132.6349,144.2497 132.4099,144.5607 C131.8849,145.2827 131.3649,146.3667 131.1389,147.5157 C130.8889,148.6287 130.9379,149.8187 131.6579,150.7577 C134.5929,154.5507 133.9239,155.4717 134.0959,157.6137" id="Fill-21" fill="#A49384"></path>
            <path d="M127.6672,161.5849 C127.6622,161.9839 128.1352,162.1849 128.4392,161.8979 C129.0542,161.3039 129.9482,160.3559 130.3522,159.0529 C130.7622,157.7519 130.7182,156.1889 129.6162,154.4599 C126.7202,149.8759 127.9022,149.8929 127.8982,148.7709 C127.8902,148.3549 127.4062,148.1679 127.1502,148.4519 C126.5612,149.1189 125.9412,150.1449 125.6112,151.2639 C125.2922,152.3939 125.2112,153.5429 125.8532,154.5539 C128.4412,158.5909 127.6892,159.4429 127.6672,161.5849" id="Fill-23" fill="#A49384"></path>
            <path d="M120.9143,164.9765 C120.8733,165.3725 121.3263,165.6165 121.6573,165.3595 C123.0423,164.3615 125.4003,161.6735 123.4923,158.0605 C121.0163,153.2455 122.1893,153.3655 122.2753,152.2275 C122.3073,151.8195 121.8323,151.5735 121.5623,151.8515 C120.2953,153.0805 118.6813,155.7335 119.7363,157.8265 C121.9583,162.0785 121.1293,162.8525 120.9143,164.9765" id="Fill-25" fill="#A49384"></path>
            <path d="M113.887,167.7602 C113.811,168.1492 114.241,168.4352 114.595,168.2132 C116.055,167.3232 118.653,164.8732 117.075,161.1112 C115.041,156.1102 116.176,156.2762 116.373,155.1772 C116.442,154.7742 115.99,154.4852 115.695,154.7342 C115.017,155.3342 114.213,156.2022 113.686,157.2322 C113.161,158.2602 112.902,159.4362 113.349,160.5312 C115.186,164.9692 114.298,165.6852 113.887,167.7602" id="Fill-27" fill="#A49384"></path>
            <path d="M106.6409,169.915 C106.5299,170.294 106.9349,170.62 107.3069,170.434 C108.8219,169.606 111.6609,167.516 110.4039,163.561 C108.8189,158.38 109.9419,158.67 110.2359,157.594 C110.3399,157.202 109.9149,156.871 109.5979,157.089 C108.1579,158.149 106.0649,160.361 106.7449,162.646 C108.1719,167.207 107.2389,167.899 106.6409,169.915" id="Fill-29" fill="#A49384"></path>
            <path d="M99.2327,171.4164 C99.0887,171.7914 99.4617,172.1404 99.8467,171.9734 C100.6297,171.6344 101.7897,171.0084 102.6307,169.9674 C103.4737,168.9174 103.9697,167.4004 103.5417,165.4034 C102.4237,160.1024 103.5187,160.5014 103.9097,159.4624 C104.0487,159.0834 103.6547,158.7124 103.3187,158.8974 C102.5347,159.3214 101.6057,160.1054 100.9027,161.0184 C100.2007,161.9184 99.7327,163.0164 99.9797,164.1734 C100.9987,168.8584 99.9987,169.4064 99.2327,171.4164" id="Fill-31" fill="#A49384"></path>
            <path d="M91.7219,172.2304 C91.5459,172.5884 91.8859,172.9734 92.2839,172.8454 C93.0939,172.5734 94.3089,172.1074 95.2339,171.1014 C96.1619,170.1024 96.7949,168.6724 96.5439,166.6364 C95.9019,161.2564 96.9589,161.7684 97.4419,160.7684 C97.6129,160.3934 97.2549,160.0074 96.9029,160.1514 C96.0819,160.5014 95.0819,161.1614 94.3039,162.0314 C93.5299,162.9174 92.9609,163.9164 93.1059,165.1054 C93.7069,169.8634 92.6619,170.3084 91.7219,172.2304" id="Fill-33" fill="#A49384"></path>
            <path d="M84.176,172.3969 C83.969,172.7349 84.275,173.1519 84.682,173.0649 C85.512,172.9079 86.76,172.4819 87.77,171.5689 C88.782,170.6679 89.537,169.3089 89.467,167.2599 C89.3,161.8589 90.309,162.4509 90.875,161.4639 C91.079,161.1089 90.756,160.6829 90.393,160.8159 C88.72,161.4059 86.117,163.0589 86.175,165.4359 C86.359,170.2389 85.279,170.5799 84.176,172.3969" id="Fill-35" fill="#A49384"></path>
            <path d="M76.6399,171.9208 C76.4049,172.2378 76.6719,172.6838 77.0849,172.6378 C78.7909,172.3758 82.1739,171.3998 82.3619,167.2558 C82.6649,161.8458 83.6199,162.5038 84.2699,161.5948 C84.5039,161.2628 84.2189,160.8058 83.8459,160.9018 C82.1219,161.4028 79.3949,162.7488 79.2439,165.1308 C79.0089,169.9048 77.8959,170.2278 76.6399,171.9208" id="Fill-37" fill="#A49384"></path>
            <path d="M69.1702,170.7739 C68.9062,171.0759 69.1352,171.5319 69.5542,171.5089 C70.4062,171.4609 71.7102,171.2749 72.8582,170.5899 C74.0132,169.8829 74.9992,168.6399 75.2852,166.6149 C76.0642,161.2529 76.9542,162.0069 77.6802,161.1669 C77.9412,160.8599 77.6982,160.3749 77.3182,160.4329 C76.4362,160.5619 75.2952,160.9659 74.3182,161.5929 C73.3502,162.1939 72.5322,163.0629 72.3652,164.2339 C71.7082,168.9839 70.5802,169.1519 69.1702,170.7739" id="Fill-39" fill="#A49384"></path>
            <path d="M61.8333,168.9506 C61.5443,169.2256 61.7303,169.7046 62.1493,169.7226 C63.0043,169.7456 64.3053,169.7326 65.5213,169.1006 C66.7383,168.4846 67.8253,167.3616 68.2913,165.3646 C69.5433,160.0886 70.3573,160.9456 71.1563,160.1596 C71.4473,159.8616 71.2423,159.3876 70.8613,159.4016 C69.1013,159.5036 66.1473,160.4826 65.5933,162.7416 C64.5153,167.4156 63.3803,167.4716 61.8333,168.9506" id="Fill-41" fill="#A49384"></path>
            <path d="M54.6858,166.4907 C54.3738,166.7377 54.5168,167.2337 54.9308,167.2917 C55.3518,167.3517 55.8888,167.3987 56.4768,167.3747 C57.0698,167.3367 57.7188,167.2097 58.3478,166.9637 C59.6128,166.4677 60.7918,165.4527 61.4338,163.5057 C63.1458,158.3777 63.8848,159.2857 64.7568,158.5537 C65.0718,158.2917 64.9148,157.7807 64.5288,157.7807 C62.7598,157.7507 59.7458,158.4157 58.9768,160.6577 C57.4868,165.2197 56.3548,165.1637 54.6858,166.4907" id="Fill-43" fill="#A49384"></path>
            <path d="M47.7844,163.4111 C47.4524,163.6271 47.5494,164.1361 47.9544,164.2341 C49.6194,164.6401 53.1744,164.8121 54.7664,161.0471 C56.9324,156.0801 57.5994,157.0241 58.5244,156.3941 C58.8594,156.1631 58.7524,155.6371 58.3674,155.5991 C57.4674,155.5291 56.2764,155.5791 55.1774,155.9101 C54.0754,156.2501 53.0534,156.8841 52.5824,157.9691 C50.6924,162.3791 49.5534,162.2621 47.7844,163.4111" id="Fill-45" fill="#A49384"></path>
            <path d="M41.1819,159.7358 C40.8319,159.9208 40.8819,160.4388 41.2759,160.5748 C42.9249,161.0788 46.4069,161.6428 48.3559,157.9808 C50.9539,153.2268 51.5309,154.2348 52.5059,153.6948 C52.8599,153.4958 52.7989,152.9598 52.4219,152.8848 C50.6599,152.5888 47.6079,152.6498 46.4519,154.7268 C44.1869,158.9368 43.0449,158.7458 41.1819,159.7358" id="Fill-47" fill="#A49384"></path>
            <path d="M34.928,155.4941 C34.561,155.6521 34.571,156.1641 34.959,156.3221 C35.75,156.6431 37.009,157.0331 38.342,156.9051 C39.681,156.7741 41.113,156.0671 42.24,154.3651 C45.248,149.8591 45.729,150.9221 46.744,150.4751 C47.114,150.3101 47.103,149.7681 46.735,149.6571 C45.884,149.3921 44.673,149.2761 43.53,149.4111 C42.395,149.5381 41.282,149.9731 40.627,150.9591 C37.992,154.9641 36.901,154.6331 34.928,155.4941" id="Fill-49" fill="#A49384"></path>
            <path d="M29.0881,150.7016 C28.7091,150.8266 28.6731,151.3376 29.0451,151.5316 C29.8031,151.9226 31.0081,152.4376 32.3541,152.4196 C33.7191,152.3816 35.1861,151.8306 36.4641,150.2276 C39.8581,146.0046 40.2371,147.1126 41.2861,146.7606 C41.6671,146.6306 41.7051,146.0876 41.3511,145.9426 C40.5261,145.6036 39.3521,145.3546 38.1831,145.4086 C37.0291,145.4496 35.8981,145.7676 35.1551,146.6966 C32.1771,150.4546 31.1241,150.0236 29.0881,150.7016" id="Fill-51" fill="#A49384"></path>
            <path d="M23.6907,145.4184 C23.3027,145.5094 23.2207,146.0164 23.5717,146.2444 C24.9747,147.2174 28.2617,148.5924 31.0727,145.6014 C34.8307,141.6854 35.0837,142.8534 36.1877,142.5644 C36.5857,142.4604 36.6627,141.9334 36.3107,141.7694 C34.7477,140.9564 31.6997,140.3044 30.0767,141.9714 C26.7777,145.4544 25.7727,144.9264 23.6907,145.4184" id="Fill-53" fill="#A49384"></path>
            <path d="M18.7747,139.6845 C18.3807,139.7395 18.2537,140.2395 18.5807,140.4985 C19.8787,141.6025 23.0627,143.2385 26.1047,140.5215 C30.1757,136.9665 30.3567,138.1225 31.4787,137.9355 C31.8817,137.8685 32.0067,137.3485 31.6737,137.1515 C30.1607,136.2295 27.2207,135.2765 25.4277,136.8205 C21.8357,140.0015 20.8857,139.3825 18.7747,139.6845" id="Fill-55" fill="#A49384"></path>
            <path d="M14.3782,133.5419 C13.9822,133.5619 13.8092,134.0489 14.1092,134.3379 C15.3322,135.5339 18.3252,137.4679 21.5982,135.0279 C25.9722,131.8399 26.0742,132.9889 27.1912,132.9149 C27.5982,132.8839 27.7702,132.3749 27.4572,132.1489 C26.7142,131.6329 25.6672,131.0699 24.5462,130.8019 C23.4222,130.5399 22.2192,130.5709 21.2652,131.2699 C17.4022,134.1249 16.4882,133.4399 14.3782,133.5419" id="Fill-57" fill="#A49384"></path>
            <path d="M10.5354,127.0361 C10.1404,127.0191 9.9234,127.4911 10.1944,127.8071 C11.3584,129.0781 14.0804,131.3211 17.6104,129.1461 C22.2544,126.3531 22.2444,127.5141 23.3594,127.5391 C23.7654,127.5461 23.9834,127.0531 23.6954,126.7981 C22.3184,125.6541 19.6624,124.1621 17.6104,125.3741 C13.5334,127.8641 12.6334,127.1291 10.5354,127.0361" id="Fill-59" fill="#A49384"></path>
            <path d="M7.2776,120.2153 C6.8866,120.1643 6.6236,120.6153 6.8846,120.9463 C7.4066,121.6233 8.2986,122.5953 9.5136,123.1573 C10.7246,123.7273 12.3286,123.8343 14.1586,122.9353 C19.0296,120.5653 18.9096,121.7243 20.0136,121.8503 C20.4156,121.8943 20.6786,121.4213 20.4176,121.1403 C19.8186,120.4823 18.8206,119.7763 17.7776,119.3093 C16.7306,118.8473 15.5506,118.6613 14.4886,119.1813 C10.1916,121.3053 9.4116,120.4713 7.2776,120.2153" id="Fill-61" fill="#A49384"></path>
            <path d="M4.6633,113.1215 C4.2713,113.0375 3.9823,113.4595 4.2053,113.8155 C4.6603,114.5375 5.4413,115.5925 6.6083,116.2585 C7.8083,116.9165 9.3513,117.1835 11.2663,116.4465 C16.3283,114.5185 16.0973,115.6645 17.1803,115.8915 C17.5743,115.9715 17.8813,115.5225 17.6483,115.2185 C17.1073,114.5105 16.2203,113.7025 15.1843,113.1595 C14.1723,112.6105 13.0323,112.3135 11.9233,112.7385 C7.4523,114.4735 6.7623,113.5675 4.6633,113.1215" id="Fill-63" fill="#A49384"></path>
            <path d="M2.6877,105.8246 C2.3077,105.7056 1.9787,106.1016 2.1657,106.4766 C2.8737,108.0306 5.0247,110.8816 8.9557,109.7276 C14.1807,108.2546 13.8007,109.3906 14.9057,109.6986 C15.3007,109.8096 15.6337,109.3946 15.4147,109.0756 C14.4827,107.5836 12.1767,105.4816 9.9337,106.0946 C5.3247,107.4246 4.7287,106.4586 2.6877,105.8246" id="Fill-65" fill="#A49384"></path>
            <path d="M1.3616,98.3857 C0.9946,98.2327 0.6296,98.5987 0.7766,98.9887 C1.0566,99.7857 1.6836,100.9537 2.7306,101.8137 C3.7736,102.6777 5.2306,103.2167 7.2446,102.8307 C12.5516,101.8357 12.1476,102.9167 13.1956,103.3267 C13.5766,103.4737 13.9496,103.0897 13.7626,102.7507 C12.9026,101.1957 10.8966,98.8757 8.5496,99.2977 C3.8336,100.2137 3.3166,99.1997 1.3616,98.3857" id="Fill-67" fill="#A49384"></path>
            <path d="M0.6838,90.8627 C0.3348,90.6787 -0.0652,91.0107 0.0418,91.4117 C0.5668,93.0577 2.0378,96.2527 6.1678,95.8067 C11.5608,95.2827 11.0538,96.3257 12.0508,96.8287 C12.4138,97.0097 12.8238,96.6587 12.6718,96.3047 C11.9168,94.6807 10.1658,92.1887 7.7918,92.4017 C3.0368,92.8977 2.5548,91.8447 0.6838,90.8627" id="Fill-69" fill="#A49384"></path>
            <path d="M0.6799,83.3139 C0.3419,83.0999 -0.0751,83.3959 0.0119,83.8059 C0.1879,84.6399 0.5689,85.8969 1.4189,86.9259 C2.3089,87.9579 3.6749,88.7419 5.7239,88.7159 C11.1409,88.6659 10.5309,89.6629 11.4709,90.2519 C11.8139,90.4639 12.2559,90.1499 12.1419,89.7829 C11.8769,88.9299 11.3179,87.8619 10.5339,86.9919 C9.7929,86.1259 8.8109,85.4509 7.6279,85.4659 C2.8329,85.5439 2.4969,84.4569 0.6799,83.3139" id="Fill-71" fill="#A49384"></path>
            <path d="M1.3459,75.7904 C1.0299,75.5474 0.5839,75.8054 0.6289,76.2214 C0.7549,77.9234 1.7979,81.3384 5.8829,81.6134 C11.2939,82.0364 10.5489,82.9724 11.4749,83.6434 C11.8069,83.8844 12.2629,83.6094 12.1659,83.2334 C11.8169,81.5094 10.3669,78.7384 8.0529,78.5404 C3.2669,78.1994 3.0409,77.0874 1.3459,75.7904" id="Fill-73" fill="#A49384"></path>
            <path d="M2.6604,68.349 C2.3694,68.079 1.8994,68.297 1.9034,68.714 C1.8984,70.425 2.6184,73.919 6.6504,74.55 C11.9744,75.443 11.2344,76.322 12.0704,77.067 C12.3774,77.336 12.8594,77.103 12.8024,76.722 C12.6444,75.829 12.3324,74.69 11.7304,73.701 C11.1314,72.715 10.2654,71.876 9.0984,71.683 C4.3564,70.918 4.2084,69.786 2.6604,68.349" id="Fill-75" fill="#A49384"></path>
            <path d="M4.6233,61.0492 C4.3593,60.7552 3.8703,60.9292 3.8323,61.3432 C3.7473,63.0692 4.0363,66.5812 8.0633,67.5862 C13.3073,68.9532 12.4703,69.7572 13.2313,70.5722 C13.5103,70.8672 14.0163,70.6782 13.9963,70.2942 C13.8523,68.5112 13.0593,65.5692 10.7613,64.9492 C6.1283,63.7732 6.0353,62.6182 4.6233,61.0492" id="Fill-77" fill="#A49384"></path>
            <path d="M7.2327,53.953 C6.9897,53.634 6.4967,53.768 6.4357,54.183 C6.3147,55.029 6.2387,56.345 6.6827,57.607 C7.1387,58.877 8.1667,60.093 10.0927,60.776 C15.1927,62.605 14.2777,63.328 14.9567,64.205 C15.2057,64.523 15.7287,64.381 15.7477,63.998 C15.7977,63.109 15.6237,61.908 15.2097,60.829 C14.8117,59.76 14.1227,58.786 13.0077,58.389 C8.4847,56.799 8.5437,55.66 7.2327,53.953" id="Fill-79" fill="#A49384"></path>
            <path d="M10.4797,47.1274 C10.2667,46.7894 9.7617,46.8774 9.6627,47.2844 C9.4667,48.1154 9.2427,49.4034 9.5977,50.7114 C9.9607,52.0274 10.8477,53.3174 12.7117,54.1714 C17.6287,56.4474 16.6417,57.0814 17.2387,58.0144 C17.4657,58.3564 17.9857,58.2564 18.0467,57.8794 C18.1777,56.9994 18.1387,55.8004 17.8057,54.6804 C17.4737,53.5644 16.9067,52.5494 15.8227,52.0504 C11.4577,50.0644 11.6257,48.9394 10.4797,47.1274" id="Fill-81" fill="#A49384"></path>
            <path d="M14.3118,40.6157 C14.1308,40.2607 13.6188,40.3027 13.4808,40.6977 C12.8658,42.2897 12.3328,45.8207 15.9028,47.8237 C20.6018,50.5287 19.5378,51.0587 20.0858,52.0617 C20.2818,52.4227 20.8128,52.3707 20.8878,51.9907 C21.2958,50.2767 21.1958,47.1607 19.1858,45.9837 C15.0118,43.6177 15.2868,42.5167 14.3118,40.6157" id="Fill-83" fill="#A49384"></path>
            <path d="M18.6995,34.4657 C18.5515,34.0977 18.0355,34.0917 17.8605,34.4717 C17.4915,35.2327 17.0825,36.4867 17.2075,37.8417 C17.3205,39.1927 17.9555,40.6107 19.6385,41.7797 C24.0635,44.8787 23.0055,45.3437 23.4455,46.3807 C23.6065,46.7567 24.1425,46.7537 24.2545,46.3827 C24.7675,44.6807 25.0165,41.6197 23.0745,40.2387 C19.1195,37.5087 19.4945,36.4407 18.6995,34.4657" id="Fill-85" fill="#A49384"></path>
            <path d="M23.6057,28.7245 C23.4927,28.3455 22.9767,28.2935 22.7677,28.6535 C21.9187,30.1425 20.7267,33.4845 23.8987,36.0925 C28.0467,39.5785 26.9497,39.9495 27.2897,41.0145 C27.4157,41.4015 27.9517,41.4475 28.0977,41.0905 C28.2687,40.6755 28.4167,40.1705 28.5187,39.6245 C28.6387,39.0925 28.7107,38.5165 28.7057,37.9395 C28.6927,36.7875 28.3757,35.6275 27.4687,34.8695 C23.7787,31.8105 24.2077,30.7445 23.6057,28.7245" id="Fill-87" fill="#A49384"></path>
            <path d="M28.9963,23.433 C28.9173,23.046 28.4063,22.948 28.1643,23.287 C27.2153,24.725 25.6933,27.906 28.6533,30.811 C32.4783,34.649 31.3473,34.915 31.5883,36.003 C31.6783,36.399 32.2103,36.493 32.3903,36.152 C33.1773,34.548 33.9753,31.597 32.3123,29.904 C28.9133,26.541 29.4233,25.504 28.9963,23.433" id="Fill-89" fill="#A49384"></path>
            <path d="M34.8303,18.6337 C34.7813,18.2357 34.2893,18.1017 34.0273,18.4307 C33.4953,19.0977 32.7673,20.1957 32.5133,21.5087 C32.2633,22.8327 32.5343,24.4037 33.8503,25.9667 C37.3223,30.1247 36.1673,30.2847 36.3093,31.3857 C36.3623,31.7857 36.8853,31.9287 37.0963,31.6077 C37.5903,30.8657 38.0473,29.7387 38.2383,28.6017 C38.4353,27.4767 38.3333,26.2867 37.5723,25.3817 C34.4743,21.7217 35.1003,20.7687 34.8303,18.6337" id="Fill-91" fill="#A49384"></path>
            <path d="M41.0784,14.3842 C41.0644,13.9842 40.5854,13.8062 40.2934,14.1082 C39.7044,14.7252 38.8674,15.7332 38.5074,17.0312 C38.1574,18.3522 38.2714,19.9142 39.4494,21.5932 C42.5424,26.0412 41.3724,26.0922 41.4134,27.1972 C41.4324,27.6012 41.9394,27.7882 42.1804,27.4902 C42.7384,26.7952 43.3094,25.7382 43.5874,24.6032 C43.8714,23.4822 43.8884,22.3102 43.2064,21.3352 C40.4414,17.4162 41.1534,16.5282 41.0784,14.3842" id="Fill-93" fill="#A49384"></path>
            <path d="M47.675,10.6991 C47.697,10.3011 47.235,10.0781 46.916,10.3501 C45.582,11.4181 43.336,14.1891 45.409,17.7271 C48.104,22.4391 46.91,22.3481 46.879,23.4931 C46.865,23.9031 47.35,24.1271 47.607,23.8361 C48.827,22.5661 50.312,19.8261 49.172,17.7971 C46.765,13.6481 47.556,12.8341 47.675,10.6991" id="Fill-95" fill="#A49384"></path>
            <path d="M54.5715,7.6083 C54.6315,7.2153 54.1875,6.9503 53.8455,7.1903 C53.4975,7.4343 53.0725,7.7643 52.6605,8.1853 C52.2575,8.6273 51.8665,9.1563 51.5765,9.7673 C50.9925,10.9913 50.8245,12.5373 51.6865,14.3973 C53.9415,19.3073 52.7875,19.1633 52.6465,20.2873 C52.5965,20.6923 53.0605,20.9603 53.3435,20.6963 C54.6495,19.4963 56.4045,16.9693 55.4275,14.7983 C53.3945,10.4453 54.2605,9.7173 54.5715,7.6083" id="Fill-97" fill="#A49384"></path>
            <path d="M61.7151,5.1366 C61.8101,4.7526 61.3911,4.4466 61.0281,4.6506 C59.5391,5.5076 56.8191,7.7876 58.2361,11.6386 C60.0511,16.7446 58.9181,16.5096 58.6721,17.6016 C58.5861,17.9986 59.0261,18.3096 59.3311,18.0746 C59.6891,17.8036 60.0691,17.4406 60.4351,17.0246 C60.8071,16.6266 61.1601,16.1656 61.4471,15.6656 C62.0191,14.6666 62.3321,13.5056 61.9341,12.3926 C60.3011,7.8886 61.2081,7.1796 61.7151,5.1366" id="Fill-99" fill="#A49384"></path>
            <path d="M69.0491,3.3022 C69.1781,2.9352 68.7851,2.5732 68.4081,2.7632 C66.8581,3.5162 63.9321,5.4892 65.0111,9.4952 C66.3631,14.7422 65.2531,14.3972 64.9101,15.4562 C64.7871,15.8432 65.1981,16.1942 65.5261,15.9912 C67.0161,15.0092 69.1971,12.8662 68.6251,10.5702 C67.4001,5.9412 68.3691,5.3262 69.0491,3.3022" id="Fill-101" fill="#A49384"></path>
            <path d="M76.5178,2.1489 C76.6778,1.7819 76.3218,1.4149 75.9288,1.5619 C75.1308,1.8639 73.9438,2.4259 73.0578,3.4279 C72.1738,4.4739 71.6068,5.9349 71.9478,7.9579 C72.8278,13.3029 71.7498,12.8499 71.3128,13.8669 C71.1568,14.2379 71.5348,14.6279 71.8788,14.4599 C72.6808,14.0689 73.6488,13.3579 74.3868,12.4489 C75.1278,11.5739 75.6458,10.5109 75.4508,9.3409 C74.6398,4.6139 75.6638,4.1179 76.5178,2.1489" id="Fill-103" fill="#A49384"></path>
            <g id="Group-107" transform="translate(77.000000, 0.077000)">
                <mask id="mask-2" fill="white">
                    <use xlink:href="#path-1"></use>
                </mask>
                <g id="Clip-106"></g>
                <path d="M7.053,1.5836 C7.244,1.2346 6.922,0.8336 6.518,0.9406 C4.858,1.3216 1.641,2.8776 1.991,6.9526 C2.397,12.3656 1.358,11.7686 0.837,12.7906 C0.649,13.1546 0.991,13.5646 1.347,13.4126 C2.996,12.8006 5.516,10.9486 5.359,8.6286 C4.967,3.8466 6.031,3.4566 7.053,1.5836" id="Fill-105" fill="#A49384" mask="url(#mask-2)"></path>
            </g>
            <path d="M91.5999,1.8144 C91.8209,1.4864 91.5349,1.0544 91.1229,1.1214 C89.4339,1.4024 86.0959,2.6224 86.0889,6.7084 C86.0219,12.1184 85.0389,11.5154 84.4289,12.4554 C84.2089,12.7984 84.5139,13.2414 84.8829,13.1264 C85.7429,12.8364 86.8219,12.3394 87.7069,11.6034 C88.5909,10.8614 89.2869,9.8794 89.2979,8.6974 C89.3239,3.9044 90.4189,3.5574 91.5999,1.8144" id="Fill-108" fill="#A49384"></path>
            <path d="M99.1116,2.6161 C99.3606,2.3111 99.1146,1.8461 98.6956,1.8961 C96.9806,2.0621 93.5566,2.9101 93.1866,7.0431 C92.6466,12.4341 91.7226,11.7271 91.0336,12.6021 C90.7856,12.9221 91.0496,13.3941 91.4266,13.3171 C93.1676,12.9101 95.9556,11.6461 96.2096,9.2971 C96.6546,4.5261 97.7756,4.2951 99.1116,2.6161" id="Fill-110" fill="#A49384"></path>
            <path d="M106.5217,4.1113 C106.7987,3.8223 106.5897,3.3543 106.1707,3.3573 C105.3177,3.3663 104.0107,3.4733 102.8307,4.1223 C101.6417,4.7973 100.6057,5.9723 100.2287,7.9883 C99.2127,13.3093 98.3587,12.5113 97.5977,13.3143 C97.3227,13.6083 97.5427,14.1053 97.9247,14.0663 C98.8117,13.9783 99.9647,13.6453 100.9707,13.0483 C101.9707,12.4693 102.8207,11.6603 103.0407,10.4913 C103.9087,5.7753 105.0417,5.6633 106.5217,4.1113" id="Fill-112" fill="#A49384"></path>
            <path d="M113.7708,6.2543 C114.0718,5.9933 113.9068,5.5053 113.4908,5.4673 C111.7958,5.2523 108.2388,5.5953 107.1608,9.5433 C105.6748,14.7603 104.9048,13.8503 104.0648,14.6273 C103.7618,14.9043 103.9408,15.4073 104.3288,15.3873 C106.0868,15.3743 109.0858,14.5133 109.7418,12.2813 C111.0268,7.6593 112.1618,7.6593 113.7708,6.2543" id="Fill-114" fill="#A49384"></path>
            <path d="M120.802,9.0273 C121.124,8.7953 121.005,8.2923 120.595,8.2143 C119.768,8.0353 118.447,7.9523 117.164,8.3943 C115.881,8.8293 114.658,9.7863 113.93,11.7033 C111.994,16.7443 111.283,15.8363 110.386,16.5113 C110.061,16.7583 110.194,17.2773 110.579,17.2973 C112.356,17.3773 115.381,16.8893 116.254,14.6693 C117.948,10.1723 119.08,10.2673 120.802,9.0273" id="Fill-116" fill="#A49384"></path>
            <path d="M127.5608,12.4081 C127.9018,12.2071 127.8288,11.6941 127.4288,11.5761 C125.7688,11.1271 122.2518,10.7421 120.4758,14.4701 C118.0908,19.3351 117.4688,18.3581 116.5178,18.9431 C116.1728,19.1581 116.2568,19.6901 116.6388,19.7461 C118.4158,19.9531 121.4538,19.7781 122.5218,17.6391 C124.5988,13.3291 125.7478,13.4711 127.5608,12.4081" id="Fill-118" fill="#A49384"></path>
            <path d="M133.9963,16.3696 C134.3503,16.2046 134.3313,15.6726 133.9343,15.5346 C132.3133,14.9486 128.8543,14.2446 126.7453,17.8136 C123.9383,22.4486 123.4103,21.4116 122.4133,21.9056 C122.0523,22.0876 122.0873,22.6276 122.4603,22.7206 C124.2023,23.1046 127.2663,23.1596 128.5053,21.1476 C130.9573,17.0356 132.0753,17.2986 133.9963,16.3696" id="Fill-120" fill="#A49384"></path>
            <path d="M140.0471,20.8925 C140.4221,20.7495 140.4341,20.2395 140.0541,20.0625 C139.2791,19.7045 138.0421,19.2565 136.7071,19.3225 C135.3491,19.4145 133.9021,20.0385 132.6961,21.6945 C129.4921,26.0625 129.0621,24.9765 128.0271,25.3765 C127.6521,25.5235 127.6391,26.0665 128.0001,26.1945 C128.8411,26.4955 130.0301,26.6855 131.1931,26.5805 C132.3321,26.5055 133.4611,26.1225 134.1581,25.1665 C136.9681,21.2815 138.0411,21.6625 140.0471,20.8925" id="Fill-122" fill="#A49384"></path>
            <path d="M145.6711,25.935 C146.0561,25.827 146.1141,25.317 145.7531,25.106 C145.0101,24.685 143.8461,24.099 142.4841,24.077 C141.1201,24.052 139.6341,24.536 138.2851,26.081 C134.7071,30.153 134.3871,29.017 133.3131,29.334 C132.9161,29.46 132.8751,29.975 133.2181,30.143 C134.0251,30.52 135.1851,30.825 136.3521,30.824 C137.5241,30.815 138.6521,30.564 139.4391,29.665 C142.5801,26.04 143.6101,26.52 145.6711,25.935" id="Fill-124" fill="#A49384"></path>
            <path d="M150.8332,31.4487 C151.2252,31.3757 151.3292,30.8717 150.9902,30.6277 C149.6372,29.5877 146.3992,28.0817 143.4712,30.9377 C139.5502,34.6777 139.3362,33.5127 138.2212,33.7527 C137.8192,33.8387 137.7192,34.3627 138.0622,34.5437 C139.5942,35.4177 142.6092,36.2047 144.3082,34.6077 C147.7562,31.2717 148.7342,31.8457 150.8332,31.4487" id="Fill-126" fill="#A49384"></path>
            <path d="M155.4944,37.3925 C155.8894,37.3545 156.0394,36.8615 155.7244,36.5865 C155.0994,36.0175 154.0104,35.2715 152.6764,35.0085 C151.3484,34.7365 149.8094,34.9445 148.2124,36.2295 C143.9914,39.6005 143.8414,38.4545 142.7234,38.5825 C142.3184,38.6305 142.1694,39.1455 142.4924,39.3575 C143.9824,40.3305 146.8464,41.4355 148.7204,39.9615 C152.4554,36.9375 153.3774,37.5975 155.4944,37.3925" id="Fill-128" fill="#A49384"></path>
            <path d="M159.6174,43.7226 C160.0134,43.7216 160.2094,43.2416 159.9224,42.9376 C158.7284,41.7046 155.8664,39.6126 152.4654,41.9226 C147.9494,44.9176 147.9044,43.7606 146.7874,43.7856 C146.3804,43.7966 146.1844,44.2986 146.4864,44.5396 C146.8364,44.8206 147.2764,45.1056 147.7734,45.3566 C148.2514,45.6206 148.7824,45.8536 149.3374,46.0116 C150.4444,46.3246 151.6464,46.3476 152.6304,45.6916 C156.6044,43.0176 157.5124,43.7266 159.6174,43.7226" id="Fill-130" fill="#A49384"></path>
            <path d="M163.1711,50.3925 C163.5631,50.4275 163.8071,49.9635 163.5451,49.6375 C162.4341,48.3175 159.8131,45.9575 156.1881,47.9755 C151.4251,50.5595 151.4901,49.3985 150.3791,49.3225 C149.9751,49.2975 149.7331,49.7805 150.0101,50.0485 C151.3241,51.2575 153.9311,52.8555 156.0221,51.7425 C160.2131,49.4325 161.0561,50.2185 163.1711,50.3925" id="Fill-132" fill="#A49384"></path>
            <path d="M166.1125,57.3564 C166.5085,57.4224 166.7765,56.9884 166.5375,56.6434 C166.0495,55.9424 165.2075,54.9304 164.0215,54.3124 C162.8095,53.7014 161.2385,53.5124 159.3635,54.3314 C154.3905,56.4824 154.5665,55.3284 153.4715,55.1514 C153.0735,55.0904 152.7875,55.5514 153.0355,55.8444 C153.6075,56.5274 154.5465,57.2884 155.5945,57.7894 C156.6155,58.2984 157.7835,58.5384 158.8685,58.0654 C163.2575,56.1344 163.9915,57.0054 166.1125,57.3564" id="Fill-134" fill="#A49384"></path>
            <path d="M168.4084,64.5595 C168.7944,64.6615 169.1034,64.2515 168.8984,63.8855 C168.4714,63.1455 167.7694,62.0475 166.6024,61.3395 C165.4384,60.6265 163.9114,60.2905 161.9674,60.9415 C156.8194,62.6425 157.1174,61.5025 156.0334,61.2325 C155.6294,61.1405 155.3304,61.5645 155.5414,61.8815 C156.0454,62.6155 156.8904,63.4635 157.8984,64.0535 C158.9164,64.6365 160.0124,64.9935 161.1474,64.6155 C165.6914,63.0815 166.3364,64.0185 168.4084,64.5595" id="Fill-136" fill="#A49384"></path>
            <path d="M170.0608,71.935 C170.4338,72.071 170.7818,71.69 170.6148,71.307 C169.9898,69.721 167.9388,66.782 163.9788,67.756 C158.7098,68.99 159.1058,67.881 158.0228,67.523 C157.6348,67.393 157.2818,67.794 157.4848,68.123 C158.3778,69.647 160.5398,71.862 162.8438,71.341 C167.5078,70.218 168.0548,71.21 170.0608,71.935" id="Fill-138" fill="#A49384"></path>
            <path d="M171.0618,79.4233 C171.4198,79.5913 171.8028,79.2423 171.6748,78.8463 C171.1318,77.2193 169.4318,74.1013 165.3838,74.7213 C160.0188,75.4843 160.4728,74.4203 159.4518,73.9633 C159.0788,73.7993 158.6868,74.1673 158.8568,74.5143 C159.2688,75.3183 159.9398,76.3043 160.7948,77.0693 C161.6618,77.8273 162.7368,78.3653 163.9068,78.1963 C168.6448,77.4913 169.1618,78.5223 171.0618,79.4233" id="Fill-140" fill="#A49384"></path>
            <g id="Group-144" transform="translate(159.000000, 80.077000)">
                <mask id="mask-4" fill="white">
                    <use xlink:href="#path-3"></use>
                </mask>
                <g id="Clip-143"></g>
                <path d="M12.4143,6.8887 C12.7633,7.0877 13.1643,6.7737 13.0583,6.3677 C12.8403,5.5427 12.3963,4.3027 11.4953,3.3127 C10.6123,2.3187 9.1663,1.5957 7.1343,1.7107 C1.7233,1.9967 2.2823,0.9767 1.3123,0.4297 C0.9593,0.2327 0.5333,0.5657 0.6663,0.9267 C0.9613,1.7677 1.6173,2.8057 2.3863,3.6437 C3.1703,4.4767 4.1853,5.1077 5.3663,5.0417 C10.1523,4.7537 10.5423,5.8267 12.4143,6.8887" id="Fill-142" fill="#A49384" mask="url(#mask-4)"></path>
            </g>
            <path d="M121.2629,66.9523 C119.9249,59.1293 115.8799,47.5253 106.4769,46.9373 C106.3889,46.9203 106.2969,46.9113 106.1959,46.9153 C106.0949,46.9113 106.0019,46.9203 105.9149,46.9373 C96.5109,47.5243 92.4659,59.1293 91.1279,66.9523 C90.4069,71.1713 89.9089,75.6173 92.6579,79.2173 C94.8709,82.1183 98.4199,83.9003 102.0619,84.6663 C102.0409,92.1113 101.8849,99.4723 100.9669,106.9463 C100.5059,110.5353 100.0199,114.1373 99.2269,117.6713 C98.6759,120.1263 98.0499,122.5873 98.4879,125.1193 C99.1059,128.6923 102.3589,131.9963 106.1959,131.9963 C109.9429,131.9963 113.2359,128.7793 113.8829,125.2723 C114.3269,122.8663 113.8139,120.4753 113.2769,118.1343 C112.4139,114.3743 111.8849,110.5503 111.3979,106.7263 C110.4939,99.3303 110.3459,92.0373 110.3279,84.6663 C113.9709,83.9013 117.5199,82.1183 119.7339,79.2173 C122.4749,75.6273 121.9839,71.1623 121.2629,66.9523" id="Fill-145" fill="#998675"></path>
            <path d="M75.0813,47.9618 C74.9983,47.7538 74.8413,47.5628 74.5863,47.4218 C70.3473,45.0798 71.2753,52.3128 71.2753,54.3858 L71.2753,63.1668 C71.2753,64.0558 71.5403,65.4348 71.2753,66.2868 C71.2353,66.4168 71.3643,66.8708 71.2753,66.9858 C70.0333,68.5928 69.8533,64.6728 69.8203,64.5188 C69.0023,60.7728 69.5573,56.6368 68.7973,52.8048 C68.5263,51.4408 68.1713,49.0518 66.8883,48.1488 C63.6233,45.8508 62.6373,52.6638 62.3813,54.3458 C62.1193,56.0678 61.9553,57.8038 61.8353,59.5408 C61.7823,60.3038 61.8413,68.0948 60.1623,67.2058 C59.7553,66.9908 60.1623,62.2738 60.1623,61.8128 L60.1623,53.0318 C60.1623,51.6968 60.5043,49.9348 60.1213,48.6448 C59.5463,46.7038 57.7713,46.5668 56.4383,47.8358 C53.5753,50.5598 52.1303,56.2648 51.2643,59.9328 C49.4583,67.5848 49.0573,75.3358 56.8753,79.4928 C58.3093,80.2568 59.9163,80.8148 61.6013,81.1738 C61.6193,89.7908 61.5493,98.3328 60.4903,106.9458 C60.0293,110.5358 59.5433,114.1368 58.7503,117.6708 C58.1993,120.1268 57.5733,122.5868 58.0113,125.1188 C58.6293,128.6928 61.8823,131.9958 65.7193,131.9958 C69.4663,131.9958 72.7593,128.7798 73.4063,125.2718 C73.8513,122.8658 73.3373,120.4748 72.8003,118.1348 C71.9373,114.3748 71.4083,110.5508 70.9213,106.7258 C69.8823,98.2188 69.8143,89.7738 69.8363,81.2608 C74.0203,80.4498 77.8413,78.2828 79.9813,74.5488 C82.1003,70.8518 81.3933,66.3558 80.6773,62.3578 C79.7633,57.2598 78.0363,52.2428 75.0813,47.9618" id="Fill-147" fill="#998675"></path>
        </g>
    </g>
</svg>