<?xml version="1.0" encoding="UTF-8" standalone="no"?>
<svg
   xmlns:dc="http://purl.org/dc/elements/1.1/"
   xmlns:cc="http://creativecommons.org/ns#"
   xmlns:rdf="http://www.w3.org/1999/02/22-rdf-syntax-ns#"
   xmlns:svg="http://www.w3.org/2000/svg"
   xmlns="http://www.w3.org/2000/svg"
   xmlns:sodipodi="http://sodipodi.sourceforge.net/DTD/sodipodi-0.dtd"
   xmlns:inkscape="http://www.inkscape.org/namespaces/inkscape"
   version="1.1"
   viewBox="0 0 129 129"
   enable-background="new 0 0 129 129"
   id="svg2"
   inkscape:version="0.91 r13725"
   sodipodi:docname="sun.svg">
  <metadata
     id="metadata30">
    <rdf:RDF>
      <cc:Work
         rdf:about="">
        <dc:format>image/svg+xml</dc:format>
        <dc:type
           rdf:resource="http://purl.org/dc/dcmitype/StillImage" />
      </cc:Work>
    </rdf:RDF>
  </metadata>
  <defs
     id="defs28" />
  <sodipodi:namedview
     pagecolor="#ffffff"
     bordercolor="#666666"
     borderopacity="1"
     objecttolerance="10"
     gridtolerance="10"
     guidetolerance="10"
     inkscape:pageopacity="0"
     inkscape:pageshadow="2"
     inkscape:window-width="1845"
     inkscape:window-height="962"
     id="namedview26"
     showgrid="false"
     inkscape:zoom="1.8294574"
     inkscape:cx="63.95339"
     inkscape:cy="64.5"
     inkscape:window-x="75"
     inkscape:window-y="34"
     inkscape:window-maximized="0"
     inkscape:current-layer="g6" />
  <g
     id="g4">
    <g
       fill="#FF5252"
       id="g6">
      <path
         d="m 64.5,92.6 c 15.5,0 28,-12.6 28,-28 0,-15.4 -12.6,-28 -28,-28 -15.4,0 -28,12.6 -28,28 0,15.4 12.5,28 28,28 z"
         id="path8"
         inkscape:connector-curvature="0"
         sodipodi:nodetypes="sssss" />
      <path
         d="m68.6,23.6v-12.9c0-2.3-1.8-4.1-4.1-4.1s-4.1,1.8-4.1,4.1v12.9c0,2.3 1.8,4.1 4.1,4.1s4.1-1.8 4.1-4.1z"
         id="path10" />
      <path
         d="m60.4,105.6v12.9c0,2.3 1.8,4.1 4.1,4.1s4.1-1.8 4.1-4.1v-12.9c0-2.3-1.8-4.1-4.1-4.1s-4.1,1.8-4.1,4.1z"
         id="path12" />
      <path
         d="m96.4,38.5l9.1-9.1c1.6-1.6 1.6-4.2 0-5.8-1.6-1.6-4.2-1.6-5.8,0l-9.1,9.1c-1.6,1.6-1.6,4.2 0,5.8 0.8,0.8 1.8,1.2 2.9,1.2s2.1-0.4 2.9-1.2z"
         id="path14" />
      <path
         d="m23.5,105.6c0.8,0.8 1.8,1.2 2.9,1.2 1,0 2.1-0.4 2.9-1.2l9.1-9.1c1.6-1.6 1.6-4.2 0-5.8-1.6-1.6-4.2-1.6-5.8,0l-9.1,9.1c-1.6,1.6-1.6,4.2 0,5.8z"
         id="path16" />
      <path
         d="m122.5,64.6c0-2.3-1.8-4.1-4.1-4.1h-12.9c-2.3,0-4.1,1.8-4.1,4.1 0,2.3 1.8,4.1 4.1,4.1h12.9c2.2,1.42109e-14 4.1-1.8 4.1-4.1z"
         id="path18" />
      <path
         d="m10.6,68.7h12.9c2.3,0 4.1-1.8 4.1-4.1 0-2.3-1.8-4.1-4.1-4.1h-12.9c-2.3,0-4.1,1.8-4.1,4.1 0,2.3 1.9,4.1 4.1,4.1z"
         id="path20" />
      <path
         d="m102.6,106.8c1,0 2.1-0.4 2.9-1.2 1.6-1.6 1.6-4.2 0-5.8l-9.1-9.1c-1.6-1.6-4.2-1.6-5.8,0-1.6,1.6-1.6,4.2 0,5.8l9.1,9.1c0.8,0.8 1.9,1.2 2.9,1.2z"
         id="path22" />
      <path
         d="m38.4,38.5c1.6-1.6 1.6-4.2 0-5.8l-9.1-9.1c-1.6-1.6-4.2-1.6-5.8,0-1.6,1.6-1.6,4.2 0,5.8l9.1,9.1c0.8,0.8 1.8,1.2 2.9,1.2s2.1-0.4 2.9-1.2z"
         id="path24" />
    </g>
  </g>
</svg>
