<?xml version="1.0" encoding="UTF-8" standalone="no"?>
<svg
   xmlns:dc="http://purl.org/dc/elements/1.1/"
   xmlns:cc="http://creativecommons.org/ns#"
   xmlns:rdf="http://www.w3.org/1999/02/22-rdf-syntax-ns#"
   xmlns:svg="http://www.w3.org/2000/svg"
   xmlns="http://www.w3.org/2000/svg"
   xmlns:sodipodi="http://sodipodi.sourceforge.net/DTD/sodipodi-0.dtd"
   xmlns:inkscape="http://www.inkscape.org/namespaces/inkscape"
   version="1.1"
   viewBox="0 0 129 129"
   enable-background="new 0 0 129 129"
   width="512px"
   height="512px"
   id="svg2"
   inkscape:version="0.91 r13725"
   sodipodi:docname="moon.svg">
  <metadata
     id="metadata12">
    <rdf:RDF>
      <cc:Work
         rdf:about="">
        <dc:format>image/svg+xml</dc:format>
        <dc:type
           rdf:resource="http://purl.org/dc/dcmitype/StillImage" />
      </cc:Work>
    </rdf:RDF>
  </metadata>
  <defs
     id="defs10" />
  <sodipodi:namedview
     pagecolor="#ffffff"
     bordercolor="#666666"
     borderopacity="1"
     objecttolerance="10"
     gridtolerance="10"
     guidetolerance="10"
     inkscape:pageopacity="0"
     inkscape:pageshadow="2"
     inkscape:window-width="748"
     inkscape:window-height="480"
     id="namedview8"
     showgrid="false"
     inkscape:zoom="0.4609375"
     inkscape:cx="256"
     inkscape:cy="256"
     inkscape:window-x="75"
     inkscape:window-y="34"
     inkscape:window-maximized="0"
     inkscape:current-layer="g4" />
  <g
     id="g4">
    <path
       d="m 108.8,27.1 c 1.6,-0.2 2.9,-1.4 3.3,-3 0.4,-1.5 -0.1,-3.2 -1.3,-4.2 C 100.4,11.1 87.1,6.2 73.4,6.2 41.3,6.2 15.1,32.3 15.1,64.5 c 0,32.2 26.1,58.3 58.3,58.3 14.4,0 28.3,-5.4 39.1,-15.1 1.2,-1.1 1.6,-2.8 1.2,-4.3 -0.4,-1.5 -1.8,-2.6 -3.4,-2.8 C 91.7,98.4 77.6,82.6 77.6,63.8 77.5,45.3 90.7,29.9 108.8,27.1 Z"
       id="path6"
       inkscape:connector-curvature="0"
       style="fill:#ff5252"
       sodipodi:nodetypes="cccssscsccc" />
  </g>
</svg>
