<?xml version="1.0" encoding="UTF-8"?>
<svg width="42px" height="42px" viewBox="0 0 42 42" version="1.1" xmlns="http://www.w3.org/2000/svg" xmlns:xlink="http://www.w3.org/1999/xlink">
    <!-- Generator: Sketch 49.3 (51167) - http://www.bohemiancoding.com/sketch -->
    <title>icon-place</title>
    <desc>Created with Sketch.</desc>
    <defs>
        <path d="M1.07045833,7.22605714 C0.470541667,8.04917143 0.106375,9.45591429 0.117875,11.6725714 C0.117875,11.8950857 0.127458333,12.1157143 0.139916667,12.3354 C0.468625,20.9993143 6.20329167,28.0801714 9.32170833,31.3104 C10.3998333,32.4276857 12.2034167,32.4276857 13.2825,31.3104 C16.3999583,28.0801714 22.134625,20.9993143 22.4642917,12.3354 C22.4777083,12.1157143 22.485375,11.8950857 22.485375,11.6725714 C22.4978333,9.45591429 22.1336667,8.04917143 21.5327917,7.22605714 C19.7953333,3.36411429 15.8690417,0.669428571 11.3025833,0.669428571 C6.73420833,0.669428571 2.80791667,3.36411429 1.07045833,7.22605714 Z M6.856875,7.94357143 C7.03225,7.69088571 7.25554167,7.4712 7.51141667,7.29865714 C13.3783333,3.36977143 19.7407083,9.62657143 15.7473333,15.3996857 C15.5719583,15.6533143 15.3486667,15.873 15.0918333,16.0455429 C13.814375,16.9007143 12.5139167,17.2740857 11.301625,17.2740857 C6.94504167,17.2740857 3.73079167,12.4598571 6.856875,7.94357143 Z" id="path-1"></path>
        <path d="M1.07045833,7.22605714 C0.470541667,8.04917143 0.106375,9.45591429 0.117875,11.6725714 C0.117875,11.8950857 0.127458333,12.1157143 0.139916667,12.3354 C0.468625,20.9993143 6.20329167,28.0801714 9.32170833,31.3104 C10.3998333,32.4276857 12.2034167,32.4276857 13.2825,31.3104 C16.3999583,28.0801714 22.134625,20.9993143 22.4642917,12.3354 C22.4777083,12.1157143 22.485375,11.8950857 22.485375,11.6725714 C22.4978333,9.45591429 22.1336667,8.04917143 21.5327917,7.22605714 C19.7953333,3.36411429 15.8690417,0.669428571 11.3025833,0.669428571 C6.73420833,0.669428571 2.80791667,3.36411429 1.07045833,7.22605714 Z M6.856875,7.94357143 C7.03225,7.69088571 7.25554167,7.4712 7.51141667,7.29865714 C13.3783333,3.36977143 19.7407083,9.62657143 15.7473333,15.3996857 C15.5719583,15.6533143 15.3486667,15.873 15.0918333,16.0455429 C13.814375,16.9007143 12.5129583,17.2731429 11.301625,17.2731429 C11.301625,17.2731429 11.3006667,17.2731429 11.3006667,17.2731429 C6.94408333,17.2740857 3.73079167,12.4589143 6.856875,7.94357143 Z" id="path-3"></path>
        <path d="M1.33208333,0.175 C0.66125,0.175 0.117875,0.742 0.117875,1.442 C0.117875,2.142 0.66125,2.709 1.33208333,2.709 L21.272125,2.709 C21.942,2.709 22.4863333,2.142 22.4863333,1.442 C22.4863333,0.742 21.942,0.175 21.272125,0.175 L1.33208333,0.175 Z" id="path-5"></path>
    </defs>
    <g id="icon-place" stroke="none" stroke-width="1" fill="none" fill-rule="evenodd">
        <g id="Page-1-Copy-34" transform="translate(10.000000, 1.000000)">
            <path d="M14.727186,16.6311222 C8.95705863,20.6258807 2.69870424,14.2628284 6.62808368,8.39432876 C6.80056543,8.13842652 7.02017335,7.91415265 7.27276958,7.73971741 C13.0428969,3.74495885 19.3003088,10.1060943 15.3728144,15.974594 C15.2003327,16.2324131 14.9807247,16.4557285 14.727186,16.6311222 M21.0618848,7.66591789 C19.3530901,3.74016668 15.4925149,1 11.000449,1 C6.5074407,1 2.64686546,3.74016668 0.938070803,7.66591789 C0.347108724,8.50263195 -0.0110501121,9.93165907 0.000260166934,12.1849406 C0.000260166934,12.4120898 0.00968539946,12.6363636 0.0219382017,12.8596791 C0.345223677,21.6657831 5.98622534,28.8645911 9.05225348,32.1481906 C10.1125921,33.2839365 11.8864209,33.2839365 12.9477021,32.1481906 C16.0137302,28.8645911 21.6547319,21.6657831 21.9770748,12.8596791 C21.9912127,12.6363636 21.9996954,12.4120898 21.9996954,12.1849406 C22.0119482,9.93165907 21.6537894,8.50263195 21.0618848,7.66591789" id="Fill-1" fill="#998675"></path>
            <g id="Group-5">
                <mask id="mask-2" fill="white">
                    <use xlink:href="#path-1"></use>
                </mask>
                <g id="Clip-4"></g>
                <polygon id="Fill-3" fill="#998675" mask="url(#mask-2)" points="-632.5 1777.28571 185.025417 1777.28571 185.025417 -1635.2226 -632.5 -1635.2226"></polygon>
            </g>
            <g id="Group-8">
                <mask id="mask-4" fill="white">
                    <use xlink:href="#path-3"></use>
                </mask>
                <g id="Clip-7"></g>
                <polygon id="Fill-6" fill="#998675" mask="url(#mask-4)" points="-2.01154167 34.2436286 24.6147917 34.2436286 24.6147917 -1.4256 -2.01154167 -1.4256"></polygon>
            </g>
            <path d="M20.804901,39 L1.19415646,39 C0.534401508,39 0,38.5524862 0,38 C0,37.4475138 0.534401508,37 1.19415646,37 L20.804901,37 C21.4637135,37 22,37.4475138 22,38 C22,38.5524862 21.4637135,39 20.804901,39" id="Fill-9" fill="#998675"></path>
            <g id="Group-14" transform="translate(0.000000, 37.000000)">
                <mask id="mask-6" fill="white">
                    <use xlink:href="#path-5"></use>
                </mask>
                <g id="Clip-12"></g>
                <polygon id="Fill-11" fill="#998675" mask="url(#mask-6)" points="-632.5 1847 185.025417 1847 185.025417 -1772.327 -632.5 -1772.327"></polygon>
                <polygon id="Fill-13" fill="#998675" mask="url(#mask-6)" points="-2.01154167 4.931 24.6147917 4.931 24.6147917 -2.046 -2.01154167 -2.046"></polygon>
            </g>
        </g>
    </g>
</svg>