<?xml version="1.0" encoding="UTF-8"?>
<svg width="173px" height="174px" viewBox="0 0 173 174" version="1.1" xmlns="http://www.w3.org/2000/svg" xmlns:xlink="http://www.w3.org/1999/xlink">
    <!-- Generator: Sketch 49.3 (51167) - http://www.bohemiancoding.com/sketch -->
    <title>icon-circle-loud-speaker</title>
    <desc>Created with Sketch.</desc>
    <defs>
        <polygon id="path-1" points="0.783352193 0.923 7.10920426 0.923 7.10920426 13.4451306 0.783352193 13.4451306"></polygon>
        <polygon id="path-3" points="0.641178469 0.371038843 13.075 0.371038843 13.075 6.95010682 0.641178469 6.95010682"></polygon>
    </defs>
    <g id="icon-circle-loud-speaker" stroke="none" stroke-width="1" fill="none" fill-rule="evenodd">
        <g id="Page-1">
            <g id="Group-145" transform="translate(0.000000, 0.077000)">
                <path d="M171.0713,94.4317 C171.3983,94.6607 171.8303,94.3827 171.7633,93.9687 C171.6193,93.1277 171.3373,91.8557 170.4903,90.7897 C169.6423,89.7197 168.3243,88.8767 166.2753,88.8137 C160.8613,88.6277 161.5213,87.6597 160.6133,87.0297 C160.2813,86.8027 159.8233,87.0977 159.9193,87.4687 C160.1393,88.3327 160.6423,89.4237 161.3843,90.3267 C162.1343,91.2267 163.0423,91.9407 164.2373,91.9787 C169.0323,92.1087 169.3123,93.2097 171.0713,94.4317" id="Fill-1" fill="#A49384"></path>
                <path d="M170.082,101.9214 C170.385,102.1774 170.844,101.9394 170.818,101.5224 C170.794,101.0984 170.734,100.5624 170.595,99.9914 C170.432,99.4174 170.184,98.8074 169.815,98.2394 C169.078,97.0994 167.85,96.1454 165.813,95.9034 C160.446,95.2454 161.192,94.3394 160.301,93.6294 C159.981,93.3734 159.511,93.6284 159.588,94.0074 C159.91,95.7494 161.157,98.5714 163.514,98.8784 C168.281,99.4314 168.45,100.5504 170.082,101.9214" id="Fill-3" fill="#A49384"></path>
                <path d="M168.4414,109.2994 C168.7184,109.5814 169.1994,109.3854 169.2164,108.9684 C169.2584,107.2514 168.7574,103.7414 164.7284,102.9254 C159.4294,101.7934 160.2234,100.9514 159.4224,100.1704 C159.1294,99.8884 158.6344,100.0994 158.6734,100.4824 C158.7184,100.9294 158.8244,101.4434 158.9924,101.9744 C159.1344,102.4994 159.3414,103.0424 159.6164,103.5484 C160.1674,104.5594 160.9904,105.4344 162.1464,105.6794 C166.8344,106.6504 166.9704,107.7974 168.4414,109.2994" id="Fill-5" fill="#A49384"></path>
                <path d="M166.1572,116.5064 C166.4032,116.8094 166.9162,116.6634 166.9492,116.2424 C167.0302,115.3914 167.0422,114.0724 166.5372,112.8294 C166.0532,111.5894 164.9492,110.4134 163.0002,109.8184 C157.8232,108.2184 158.7002,107.4544 157.9792,106.6074 C157.7152,106.3004 157.2002,106.4654 157.2012,106.8504 C157.2522,108.6334 157.9392,111.6164 160.1912,112.3324 C164.7762,113.7174 164.7862,114.8644 166.1572,116.5064" id="Fill-7" fill="#A49384"></path>
                <path d="M163.2217,123.4727 C163.4507,123.8017 163.9497,123.6907 164.0297,123.2787 C164.1927,122.4407 164.3317,121.1327 163.9467,119.8537 C163.5207,118.5527 162.5747,117.3027 160.6737,116.5317 C155.6597,114.4767 156.6117,113.7987 155.9757,112.8917 C155.7417,112.5647 155.2107,112.6817 155.1737,113.0627 C155.0857,113.9507 155.1837,115.1477 155.5697,116.2527 C155.9227,117.3407 156.5607,118.3407 157.6587,118.7877 C162.1067,120.5787 161.9927,121.7117 163.2217,123.4727" id="Fill-9" fill="#A49384"></path>
                <path d="M159.6787,130.148 C159.8747,130.495 160.3847,130.43 160.5037,130.028 C160.7327,129.205 161.0387,127.942 160.7167,126.606 C160.4147,125.277 159.5897,123.951 157.7657,123.014 C152.9487,120.519 153.9887,119.942 153.4067,118.97 C153.1927,118.618 152.6707,118.696 152.6057,119.075 C152.2727,120.806 152.5077,123.91 154.5667,124.997 C158.8397,127.175 158.6177,128.289 159.6787,130.148" id="Fill-11" fill="#A49384"></path>
                <path d="M155.5645,136.4845 C155.7295,136.8465 156.2445,136.8285 156.4005,136.4415 C157.0925,134.8825 157.7645,131.3675 154.2985,129.2155 C149.7365,126.3135 150.7975,125.8165 150.2995,124.7925 C150.1215,124.4245 149.5865,124.4515 149.4945,124.8265 C149.0335,126.5355 148.9565,129.6275 150.9395,130.9105 C155.0035,133.4595 154.6785,134.5445 155.5645,136.4845" id="Fill-13" fill="#A49384"></path>
                <path d="M150.9131,142.4356 C151.0441,142.8096 151.5601,142.8386 151.7521,142.4676 C152.5571,140.9596 153.5641,137.5396 150.3001,135.0896 C146.0111,131.7956 147.0811,131.3716 146.6951,130.3216 C146.5511,129.9396 146.0151,129.9186 145.8851,130.2826 C145.6011,131.1416 145.3531,132.3026 145.4141,133.4546 C145.4801,134.6066 145.8511,135.7526 146.7901,136.4706 C150.6191,139.3716 150.2191,140.4386 150.9131,142.4356" id="Fill-15" fill="#A49384"></path>
                <path d="M145.7598,147.9571 C145.8568,148.3401 146.3688,148.4151 146.5958,148.0661 C147.4888,146.5951 148.8638,143.3451 145.7838,140.5771 C141.7938,136.9121 142.9098,136.5931 142.6188,135.5151 C142.5108,135.1241 141.9768,135.0531 141.8138,135.4021 C141.1058,137.0471 140.4218,140.0171 142.1658,141.6431 C145.7098,144.8531 145.2538,145.9181 145.7598,147.9571" id="Fill-17" fill="#A49384"></path>
                <path d="M140.1436,153.0084 C140.2016,153.3934 140.7186,153.5294 140.9606,153.1834 C141.4606,152.4904 142.1376,151.3604 142.3316,150.0334 C142.5396,148.7174 142.1826,147.1444 140.8046,145.6454 C137.1516,141.6434 138.2966,141.4294 138.1056,140.3334 C138.0336,139.9354 137.5056,139.8174 137.3106,140.1484 C136.8466,140.9094 136.4566,142.0724 136.2986,143.1984 C136.1536,144.3344 136.3106,145.5204 137.1096,146.3914 C140.3636,149.9064 139.7926,150.9024 140.1436,153.0084" id="Fill-19" fill="#A49384"></path>
                <path d="M134.0957,157.5367 C134.1267,157.9357 134.6137,158.0917 134.8907,157.7767 C135.4527,157.1357 136.2327,156.0757 136.5457,154.7767 C136.8387,153.4447 136.6507,151.8827 135.4017,150.2587 C132.1157,145.9517 133.2797,145.8457 133.1877,144.7417 C133.1527,144.3397 132.6357,144.1727 132.4097,144.4837 C131.8847,145.2057 131.3647,146.2897 131.1387,147.4387 C130.8887,148.5517 130.9377,149.7417 131.6577,150.6807 C134.5927,154.4737 133.9237,155.3947 134.0957,157.5367" id="Fill-21" fill="#A49384"></path>
                <path d="M127.668,161.5079 C127.662,161.9069 128.135,162.1079 128.439,161.8209 C129.054,161.2269 129.948,160.2789 130.352,158.9759 C130.762,157.6749 130.718,156.1119 129.616,154.3829 C126.72,149.7989 127.902,149.8159 127.898,148.6939 C127.89,148.2779 127.406,148.0909 127.15,148.3749 C126.561,149.0419 125.941,150.0679 125.611,151.1869 C125.292,152.3169 125.211,153.4659 125.853,154.4769 C128.441,158.5139 127.689,159.3659 127.668,161.5079" id="Fill-23" fill="#A49384"></path>
                <path d="M120.9141,164.8995 C120.8731,165.2955 121.3261,165.5395 121.6571,165.2825 C123.0421,164.2845 125.4001,161.5965 123.4921,157.9835 C121.0161,153.1685 122.1891,153.2885 122.2751,152.1505 C122.3071,151.7425 121.8321,151.4965 121.5621,151.7745 C120.2961,153.0035 118.6811,155.6565 119.7361,157.7495 C121.9581,162.0015 121.1291,162.7755 120.9141,164.8995" id="Fill-25" fill="#A49384"></path>
                <path d="M113.8867,167.6832 C113.8107,168.0722 114.2407,168.3582 114.5947,168.1362 C116.0547,167.2462 118.6527,164.7962 117.0747,161.0342 C115.0407,156.0332 116.1757,156.1992 116.3727,155.1002 C116.4417,154.6972 115.9897,154.4082 115.6947,154.6572 C115.0177,155.2572 114.2127,156.1252 113.6867,157.1552 C113.1617,158.1832 112.9017,159.3592 113.3487,160.4542 C115.1857,164.8922 114.2977,165.6082 113.8867,167.6832" id="Fill-27" fill="#A49384"></path>
                <path d="M106.6416,169.838 C106.5296,170.217 106.9346,170.543 107.3066,170.357 C108.8216,169.529 111.6606,167.439 110.4036,163.484 C108.8186,158.303 109.9416,158.593 110.2356,157.517 C110.3396,157.125 109.9146,156.794 109.5976,157.012 C108.1576,158.072 106.0646,160.284 106.7446,162.569 C108.1716,167.13 107.2396,167.822 106.6416,169.838" id="Fill-29" fill="#A49384"></path>
                <path d="M99.2324,171.3394 C99.0884,171.7144 99.4614,172.0634 99.8464,171.8964 C100.6304,171.5574 101.7904,170.9314 102.6304,169.8904 C103.4734,168.8404 103.9694,167.3234 103.5414,165.3264 C102.4234,160.0254 103.5184,160.4244 103.9094,159.3854 C104.0484,159.0064 103.6544,158.6354 103.3184,158.8204 C102.5344,159.2444 101.6054,160.0284 100.9024,160.9414 C100.2004,161.8414 99.7324,162.9394 99.9794,164.0964 C100.9984,168.7814 99.9984,169.3294 99.2324,171.3394" id="Fill-31" fill="#A49384"></path>
                <path d="M91.7217,172.1534 C91.5457,172.5114 91.8857,172.8964 92.2847,172.7684 C93.0937,172.4964 94.3087,172.0304 95.2337,171.0244 C96.1617,170.0254 96.7947,168.5954 96.5447,166.5594 C95.9017,161.1794 96.9587,161.6914 97.4417,160.6914 C97.6127,160.3164 97.2547,159.9304 96.9027,160.0744 C96.0817,160.4244 95.0817,161.0844 94.3037,161.9544 C93.5297,162.8404 92.9607,163.8394 93.1067,165.0284 C93.7067,169.7864 92.6617,170.2314 91.7217,172.1534" id="Fill-33" fill="#A49384"></path>
                <path d="M84.1758,172.3199 C83.9688,172.6579 84.2748,173.0749 84.6818,172.9879 C85.5118,172.8309 86.7598,172.4049 87.7698,171.4919 C88.7818,170.5909 89.5378,169.2319 89.4668,167.1829 C89.2998,161.7819 90.3088,162.3739 90.8748,161.3869 C91.0788,161.0319 90.7558,160.6059 90.3928,160.7389 C88.7198,161.3289 86.1168,162.9819 86.1748,165.3589 C86.3588,170.1619 85.2788,170.5029 84.1758,172.3199" id="Fill-35" fill="#A49384"></path>
                <path d="M76.6396,171.8438 C76.4046,172.1608 76.6716,172.6068 77.0856,172.5608 C78.7906,172.2988 82.1736,171.3228 82.3616,167.1788 C82.6646,161.7688 83.6196,162.4268 84.2696,161.5178 C84.5036,161.1858 84.2196,160.7288 83.8456,160.8248 C82.1226,161.3258 79.3946,162.6718 79.2436,165.0538 C79.0086,169.8278 77.8956,170.1508 76.6396,171.8438" id="Fill-37" fill="#A49384"></path>
                <path d="M69.1699,170.6969 C68.9059,170.9989 69.1349,171.4549 69.5539,171.4319 C70.4059,171.3839 71.7099,171.1979 72.8579,170.5129 C74.0129,169.8059 74.9989,168.5629 75.2849,166.5379 C76.0639,161.1759 76.9539,161.9299 77.6799,161.0899 C77.9409,160.7829 77.6979,160.2979 77.3179,160.3559 C76.4369,160.4849 75.2949,160.8889 74.3179,161.5159 C73.3499,162.1169 72.5329,162.9859 72.3649,164.1569 C71.7079,168.9069 70.5799,169.0749 69.1699,170.6969" id="Fill-39" fill="#A49384"></path>
                <path d="M61.833,168.8736 C61.544,169.1486 61.73,169.6276 62.149,169.6456 C63.004,169.6686 64.305,169.6556 65.521,169.0236 C66.739,168.4076 67.826,167.2846 68.292,165.2876 C69.543,160.0116 70.357,160.8686 71.156,160.0826 C71.447,159.7846 71.242,159.3106 70.861,159.3246 C69.102,159.4266 66.147,160.4056 65.593,162.6646 C64.516,167.3386 63.38,167.3946 61.833,168.8736" id="Fill-41" fill="#A49384"></path>
                <path d="M54.6855,166.4137 C54.3735,166.6607 54.5165,167.1567 54.9305,167.2147 C55.3515,167.2747 55.8885,167.3217 56.4765,167.2977 C57.0695,167.2597 57.7185,167.1327 58.3475,166.8867 C59.6125,166.3907 60.7915,165.3757 61.4335,163.4287 C63.1455,158.3007 63.8845,159.2087 64.7565,158.4767 C65.0715,158.2147 64.9155,157.7037 64.5285,157.7037 C62.7595,157.6737 59.7455,158.3387 58.9765,160.5807 C57.4865,165.1427 56.3555,165.0867 54.6855,166.4137" id="Fill-43" fill="#A49384"></path>
                <path d="M47.7842,163.3341 C47.4522,163.5501 47.5492,164.0591 47.9542,164.1571 C49.6192,164.5631 53.1742,164.7351 54.7662,160.9701 C56.9322,156.0031 57.5992,156.9471 58.5242,156.3171 C58.8592,156.0861 58.7522,155.5601 58.3672,155.5221 C57.4672,155.4521 56.2762,155.5021 55.1772,155.8331 C54.0752,156.1731 53.0532,156.8071 52.5822,157.8921 C50.6932,162.3021 49.5532,162.1851 47.7842,163.3341" id="Fill-45" fill="#A49384"></path>
                <path d="M41.1816,159.6588 C40.8316,159.8438 40.8816,160.3618 41.2756,160.4978 C42.9246,161.0018 46.4066,161.5658 48.3556,157.9038 C50.9536,153.1498 51.5306,154.1578 52.5056,153.6178 C52.8596,153.4188 52.7986,152.8828 52.4216,152.8078 C50.6596,152.5118 47.6076,152.5728 46.4516,154.6498 C44.1866,158.8598 43.0446,158.6688 41.1816,159.6588" id="Fill-47" fill="#A49384"></path>
                <path d="M34.9277,155.4171 C34.5607,155.5751 34.5707,156.0871 34.9597,156.2451 C35.7507,156.5661 37.0097,156.9561 38.3417,156.8281 C39.6807,156.6971 41.1127,155.9901 42.2397,154.2881 C45.2477,149.7821 45.7287,150.8451 46.7447,150.3981 C47.1137,150.2331 47.1027,149.6911 46.7347,149.5801 C45.8837,149.3151 44.6727,149.1991 43.5297,149.3341 C42.3947,149.4611 41.2817,149.8961 40.6277,150.8821 C37.9917,154.8871 36.9007,154.5561 34.9277,155.4171" id="Fill-49" fill="#A49384"></path>
                <path d="M29.0879,150.6246 C28.7089,150.7496 28.6729,151.2606 29.0449,151.4546 C29.8029,151.8456 31.0079,152.3606 32.3539,152.3426 C33.7189,152.3046 35.1859,151.7536 36.4639,150.1506 C39.8579,145.9276 40.2369,147.0356 41.2869,146.6836 C41.6669,146.5536 41.7049,146.0106 41.3509,145.8656 C40.5259,145.5266 39.3519,145.2776 38.1829,145.3316 C37.0289,145.3726 35.8989,145.6906 35.1549,146.6196 C32.1769,150.3776 31.1239,149.9466 29.0879,150.6246" id="Fill-51" fill="#A49384"></path>
                <path d="M23.6904,145.3414 C23.3024,145.4324 23.2204,145.9394 23.5714,146.1674 C24.9744,147.1404 28.2614,148.5154 31.0724,145.5244 C34.8314,141.6084 35.0844,142.7764 36.1874,142.4874 C36.5854,142.3834 36.6624,141.8564 36.3104,141.6924 C34.7474,140.8794 31.6994,140.2274 30.0764,141.8944 C26.7774,145.3774 25.7724,144.8494 23.6904,145.3414" id="Fill-53" fill="#A49384"></path>
                <path d="M18.7744,139.6075 C18.3804,139.6625 18.2534,140.1625 18.5804,140.4215 C19.8784,141.5255 23.0624,143.1615 26.1044,140.4445 C30.1754,136.8895 30.3564,138.0455 31.4784,137.8585 C31.8814,137.7915 32.0064,137.2715 31.6734,137.0745 C30.1604,136.1525 27.2204,135.1995 25.4274,136.7435 C21.8354,139.9245 20.8854,139.3055 18.7744,139.6075" id="Fill-55" fill="#A49384"></path>
                <path d="M14.3779,133.4649 C13.9819,133.4849 13.8089,133.9719 14.1099,134.2609 C15.3319,135.4569 18.3259,137.3909 21.5979,134.9509 C25.9719,131.7629 26.0739,132.9119 27.1909,132.8379 C27.5979,132.8069 27.7699,132.2979 27.4569,132.0719 C26.7139,131.5559 25.6669,130.9929 24.5459,130.7249 C23.4229,130.4629 22.2189,130.4939 21.2659,131.1929 C17.4019,134.0479 16.4879,133.3629 14.3779,133.4649" id="Fill-57" fill="#A49384"></path>
                <path d="M10.5352,126.9591 C10.1402,126.9421 9.9232,127.4141 10.1942,127.7301 C11.3582,129.0011 14.0802,131.2441 17.6102,129.0691 C22.2542,126.2761 22.2442,127.4371 23.3592,127.4621 C23.7652,127.4691 23.9832,126.9761 23.6952,126.7211 C22.3182,125.5771 19.6622,124.0851 17.6102,125.2971 C13.5332,127.7871 12.6332,127.0521 10.5352,126.9591" id="Fill-59" fill="#A49384"></path>
                <path d="M7.2773,120.1383 C6.8863,120.0873 6.6233,120.5383 6.8843,120.8693 C7.4063,121.5463 8.2983,122.5183 9.5133,123.0803 C10.7243,123.6503 12.3283,123.7573 14.1583,122.8583 C19.0293,120.4883 18.9093,121.6473 20.0133,121.7733 C20.4163,121.8173 20.6783,121.3443 20.4173,121.0633 C19.8183,120.4053 18.8203,119.6993 17.7773,119.2323 C16.7303,118.7703 15.5503,118.5843 14.4883,119.1043 C10.1913,121.2283 9.4113,120.3943 7.2773,120.1383" id="Fill-61" fill="#A49384"></path>
                <path d="M4.6631,113.0445 C4.2711,112.9605 3.9821,113.3825 4.2051,113.7385 C4.6611,114.4605 5.4421,115.5155 6.6081,116.1815 C7.8081,116.8395 9.3511,117.1065 11.2661,116.3695 C16.3281,114.4415 16.0971,115.5875 17.1801,115.8145 C17.5741,115.8945 17.8811,115.4455 17.6481,115.1415 C17.1071,114.4335 16.2201,113.6255 15.1841,113.0825 C14.1721,112.5335 13.0321,112.2365 11.9231,112.6615 C7.4521,114.3965 6.7621,113.4905 4.6631,113.0445" id="Fill-63" fill="#A49384"></path>
                <path d="M2.6875,105.7476 C2.3075,105.6286 1.9785,106.0246 2.1655,106.3996 C2.8735,107.9536 5.0245,110.8046 8.9555,109.6506 C14.1815,108.1776 13.8015,109.3136 14.9055,109.6216 C15.3005,109.7326 15.6335,109.3176 15.4145,108.9986 C14.4825,107.5066 12.1765,105.4046 9.9345,106.0176 C5.3255,107.3476 4.7285,106.3816 2.6875,105.7476" id="Fill-65" fill="#A49384"></path>
                <path d="M1.3613,98.3087 C0.9953,98.1557 0.6293,98.5217 0.7773,98.9117 C1.0563,99.7087 1.6833,100.8767 2.7303,101.7367 C3.7743,102.6007 5.2303,103.1397 7.2443,102.7537 C12.5523,101.7587 12.1473,102.8397 13.1953,103.2497 C13.5763,103.3967 13.9493,103.0127 13.7623,102.6737 C12.9023,101.1187 10.8963,98.7987 8.5493,99.2207 C3.8333,100.1367 3.3163,99.1227 1.3613,98.3087" id="Fill-67" fill="#A49384"></path>
                <path d="M0.6836,90.7857 C0.3346,90.6017 -0.0654,90.9337 0.0416,91.3347 C0.5666,92.9807 2.0376,96.1757 6.1676,95.7297 C11.5606,95.2057 11.0536,96.2487 12.0506,96.7517 C12.4136,96.9327 12.8236,96.5817 12.6716,96.2277 C11.9176,94.6037 10.1656,92.1117 7.7916,92.3247 C3.0376,92.8207 2.5546,91.7677 0.6836,90.7857" id="Fill-69" fill="#A49384"></path>
                <path d="M0.6807,83.2369 C0.3417,83.0229 -0.0743,83.3189 0.0117,83.7289 C0.1877,84.5629 0.5687,85.8199 1.4187,86.8489 C2.3087,87.8809 3.6747,88.6649 5.7237,88.6389 C11.1407,88.5889 10.5307,89.5859 11.4707,90.1749 C11.8137,90.3869 12.2557,90.0729 12.1417,89.7059 C11.8767,88.8529 11.3177,87.7849 10.5337,86.9149 C9.7927,86.0489 8.8117,85.3739 7.6277,85.3889 C2.8327,85.4669 2.4967,84.3799 0.6807,83.2369" id="Fill-71" fill="#A49384"></path>
                <path d="M1.3457,75.7134 C1.0297,75.4704 0.5837,75.7284 0.6287,76.1444 C0.7547,77.8464 1.7977,81.2614 5.8827,81.5364 C11.2937,81.9594 10.5487,82.8954 11.4747,83.5664 C11.8067,83.8074 12.2627,83.5324 12.1657,83.1564 C11.8167,81.4324 10.3667,78.6614 8.0527,78.4634 C3.2667,78.1224 3.0407,77.0104 1.3457,75.7134" id="Fill-73" fill="#A49384"></path>
                <path d="M2.6602,68.272 C2.3692,68.002 1.8992,68.22 1.9032,68.637 C1.8982,70.348 2.6192,73.842 6.6502,74.473 C11.9742,75.366 11.2342,76.245 12.0702,76.99 C12.3772,77.259 12.8602,77.026 12.8022,76.645 C12.6442,75.752 12.3322,74.613 11.7302,73.624 C11.1312,72.638 10.2652,71.799 9.0982,71.606 C4.3562,70.841 4.2082,69.709 2.6602,68.272" id="Fill-75" fill="#A49384"></path>
                <path d="M4.624,60.9722 C4.359,60.6782 3.87,60.8522 3.832,61.2662 C3.747,62.9922 4.036,66.5042 8.063,67.5092 C13.307,68.8762 12.47,69.6802 13.231,70.4952 C13.51,70.7902 14.016,70.6012 13.996,70.2172 C13.852,68.4342 13.059,65.4922 10.761,64.8722 C6.128,63.6962 6.035,62.5412 4.624,60.9722" id="Fill-77" fill="#A49384"></path>
                <path d="M7.2324,53.876 C6.9894,53.557 6.4964,53.691 6.4354,54.106 C6.3144,54.952 6.2384,56.268 6.6824,57.53 C7.1394,58.8 8.1674,60.016 10.0924,60.699 C15.1924,62.528 14.2774,63.251 14.9564,64.128 C15.2054,64.446 15.7284,64.304 15.7474,63.921 C15.7974,63.032 15.6234,61.831 15.2094,60.752 C14.8114,59.683 14.1224,58.709 13.0074,58.312 C8.4844,56.722 8.5434,55.583 7.2324,53.876" id="Fill-79" fill="#A49384"></path>
                <path d="M10.4795,47.0504 C10.2665,46.7124 9.7615,46.8004 9.6625,47.2074 C9.4665,48.0384 9.2425,49.3264 9.5975,50.6344 C9.9605,51.9504 10.8475,53.2404 12.7115,54.0944 C17.6285,56.3704 16.6425,57.0044 17.2385,57.9374 C17.4655,58.2794 17.9855,58.1794 18.0465,57.8024 C18.1775,56.9224 18.1385,55.7234 17.8055,54.6034 C17.4735,53.4874 16.9065,52.4724 15.8225,51.9734 C11.4575,49.9874 11.6255,48.8624 10.4795,47.0504" id="Fill-81" fill="#A49384"></path>
                <path d="M14.3125,40.5387 C14.1305,40.1837 13.6185,40.2257 13.4805,40.6207 C12.8655,42.2127 12.3335,45.7437 15.9025,47.7467 C20.6015,50.4517 19.5375,50.9817 20.0855,51.9847 C20.2815,52.3457 20.8125,52.2937 20.8885,51.9137 C21.2955,50.1997 21.1955,47.0837 19.1855,45.9067 C15.0115,43.5407 15.2865,42.4397 14.3125,40.5387" id="Fill-83" fill="#A49384"></path>
                <path d="M18.6992,34.3887 C18.5512,34.0207 18.0352,34.0147 17.8602,34.3947 C17.4912,35.1557 17.0822,36.4097 17.2072,37.7647 C17.3202,39.1157 17.9552,40.5337 19.6382,41.7027 C24.0642,44.8017 23.0052,45.2667 23.4452,46.3037 C23.6062,46.6797 24.1422,46.6767 24.2542,46.3057 C24.7672,44.6037 25.0162,41.5427 23.0742,40.1617 C19.1192,37.4317 19.4942,36.3637 18.6992,34.3887" id="Fill-85" fill="#A49384"></path>
                <path d="M23.6055,28.6475 C23.4925,28.2685 22.9765,28.2165 22.7675,28.5765 C21.9185,30.0655 20.7265,33.4075 23.8985,36.0155 C28.0465,39.5015 26.9495,39.8725 27.2895,40.9375 C27.4155,41.3245 27.9515,41.3705 28.0975,41.0135 C28.2685,40.5985 28.4165,40.0935 28.5185,39.5475 C28.6385,39.0155 28.7105,38.4395 28.7055,37.8625 C28.6925,36.7105 28.3755,35.5505 27.4685,34.7925 C23.7785,31.7335 24.2075,30.6675 23.6055,28.6475" id="Fill-87" fill="#A49384"></path>
                <path d="M28.9961,23.356 C28.9171,22.969 28.4061,22.871 28.1651,23.21 C27.2151,24.648 25.6931,27.829 28.6531,30.734 C32.4781,34.572 31.3481,34.838 31.5881,35.926 C31.6781,36.322 32.2101,36.416 32.3901,36.075 C33.1771,34.471 33.9751,31.52 32.3131,29.827 C28.9141,26.464 29.4231,25.427 28.9961,23.356" id="Fill-89" fill="#A49384"></path>
                <path d="M34.8301,18.5567 C34.7811,18.1587 34.2891,18.0247 34.0271,18.3537 C33.4951,19.0207 32.7671,20.1187 32.5131,21.4317 C32.2631,22.7557 32.5351,24.3267 33.8501,25.8897 C37.3221,30.0477 36.1671,30.2077 36.3091,31.3087 C36.3621,31.7087 36.8851,31.8517 37.0961,31.5307 C37.5901,30.7887 38.0471,29.6617 38.2381,28.5247 C38.4351,27.3997 38.3331,26.2097 37.5721,25.3047 C34.4741,21.6447 35.1001,20.6917 34.8301,18.5567" id="Fill-91" fill="#A49384"></path>
                <path d="M41.0781,14.3072 C41.0641,13.9072 40.5851,13.7292 40.2931,14.0312 C39.7041,14.6482 38.8671,15.6562 38.5071,16.9542 C38.1581,18.2752 38.2711,19.8372 39.4491,21.5162 C42.5421,25.9642 41.3731,26.0152 41.4131,27.1202 C41.4321,27.5242 41.9391,27.7112 42.1811,27.4132 C42.7381,26.7182 43.3091,25.6612 43.5871,24.5262 C43.8711,23.4052 43.8881,22.2332 43.2061,21.2582 C40.4411,17.3392 41.1531,16.4512 41.0781,14.3072" id="Fill-93" fill="#A49384"></path>
                <path d="M47.6748,10.6221 C47.6978,10.2241 47.2348,10.0011 46.9158,10.2731 C45.5818,11.3411 43.3358,14.1121 45.4088,17.6501 C48.1038,22.3621 46.9098,22.2711 46.8788,23.4161 C46.8648,23.8261 47.3498,24.0501 47.6068,23.7591 C48.8268,22.4891 50.3128,19.7491 49.1718,17.7201 C46.7648,13.5711 47.5558,12.7571 47.6748,10.6221" id="Fill-95" fill="#A49384"></path>
                <path d="M54.5723,7.5313 C54.6313,7.1383 54.1873,6.8733 53.8453,7.1133 C53.4973,7.3573 53.0723,7.6873 52.6603,8.1083 C52.2573,8.5503 51.8673,9.0793 51.5763,9.6903 C50.9923,10.9143 50.8243,12.4603 51.6863,14.3203 C53.9413,19.2303 52.7873,19.0863 52.6463,20.2103 C52.5963,20.6153 53.0603,20.8833 53.3433,20.6193 C54.6503,19.4193 56.4043,16.8923 55.4273,14.7213 C53.3943,10.3683 54.2603,9.6403 54.5723,7.5313" id="Fill-97" fill="#A49384"></path>
                <path d="M61.7148,5.0596 C61.8098,4.6756 61.3908,4.3696 61.0278,4.5736 C59.5398,5.4306 56.8188,7.7106 58.2358,11.5616 C60.0508,16.6676 58.9178,16.4326 58.6728,17.5246 C58.5858,17.9216 59.0258,18.2326 59.3308,17.9976 C59.6888,17.7266 60.0688,17.3636 60.4348,16.9476 C60.8068,16.5496 61.1598,16.0886 61.4468,15.5886 C62.0188,14.5896 62.3318,13.4286 61.9338,12.3156 C60.3008,7.8116 61.2088,7.1026 61.7148,5.0596" id="Fill-99" fill="#A49384"></path>
                <path d="M69.0488,3.2252 C69.1778,2.8582 68.7848,2.4962 68.4078,2.6862 C66.8578,3.4392 63.9318,5.4122 65.0108,9.4182 C66.3628,14.6652 65.2528,14.3202 64.9098,15.3792 C64.7878,15.7662 65.1978,16.1172 65.5258,15.9142 C67.0158,14.9322 69.1968,12.7892 68.6248,10.4932 C67.3998,5.8642 68.3698,5.2492 69.0488,3.2252" id="Fill-101" fill="#A49384"></path>
                <path d="M76.5176,2.0719 C76.6776,1.7049 76.3216,1.3379 75.9286,1.4849 C75.1306,1.7869 73.9436,2.3489 73.0576,3.3509 C72.1736,4.3969 71.6066,5.8579 71.9476,7.8809 C72.8286,13.2259 71.7496,12.7729 71.3126,13.7899 C71.1566,14.1609 71.5346,14.5509 71.8786,14.3829 C72.6806,13.9919 73.6496,13.2809 74.3876,12.3719 C75.1276,11.4969 75.6456,10.4339 75.4506,9.2639 C74.6396,4.5369 75.6636,4.0409 76.5176,2.0719" id="Fill-103" fill="#A49384"></path>
                <g id="Group-107" transform="translate(77.000000, 0.000000)">
                    <mask id="mask-2" fill="white">
                        <use xlink:href="#path-1"></use>
                    </mask>
                    <g id="Clip-106"></g>
                    <path d="M7.0527,1.5836 C7.2437,1.2346 6.9217,0.8336 6.5177,0.9406 C4.8577,1.3216 1.6407,2.8776 1.9907,6.9526 C2.3967,12.3656 1.3577,11.7686 0.8367,12.7906 C0.6487,13.1546 0.9907,13.5646 1.3467,13.4126 C2.9957,12.8006 5.5157,10.9486 5.3587,8.6286 C4.9667,3.8466 6.0307,3.4566 7.0527,1.5836" id="Fill-105" fill="#A49384" mask="url(#mask-2)"></path>
                </g>
                <path d="M91.5996,1.7374 C91.8206,1.4094 91.5346,0.9774 91.1226,1.0444 C89.4336,1.3254 86.0956,2.5454 86.0886,6.6314 C86.0216,12.0414 85.0386,11.4384 84.4286,12.3784 C84.2086,12.7214 84.5136,13.1644 84.8826,13.0494 C85.7426,12.7594 86.8216,12.2624 87.7066,11.5264 C88.5906,10.7844 89.2866,9.8024 89.2976,8.6204 C89.3236,3.8274 90.4186,3.4804 91.5996,1.7374" id="Fill-108" fill="#A49384"></path>
                <path d="M99.1113,2.5391 C99.3603,2.2341 99.1143,1.7691 98.6953,1.8191 C96.9803,1.9851 93.5563,2.8331 93.1863,6.9661 C92.6463,12.3571 91.7223,11.6501 91.0343,12.5251 C90.7853,12.8451 91.0493,13.3171 91.4263,13.2401 C93.1683,12.8331 95.9553,11.5691 96.2093,9.2201 C96.6543,4.4491 97.7753,4.2181 99.1113,2.5391" id="Fill-110" fill="#A49384"></path>
                <path d="M106.5215,4.0343 C106.7985,3.7453 106.5895,3.2773 106.1705,3.2803 C105.3175,3.2893 104.0105,3.3963 102.8305,4.0453 C101.6415,4.7203 100.6055,5.8953 100.2285,7.9113 C99.2125,13.2323 98.3585,12.4343 97.5975,13.2373 C97.3225,13.5313 97.5425,14.0283 97.9245,13.9893 C98.8115,13.9013 99.9645,13.5683 100.9715,12.9713 C101.9705,12.3923 102.8205,11.5833 103.0415,10.4143 C103.9085,5.6983 105.0415,5.5863 106.5215,4.0343" id="Fill-112" fill="#A49384"></path>
                <path d="M113.7705,6.1773 C114.0715,5.9163 113.9065,5.4283 113.4905,5.3903 C111.7955,5.1753 108.2385,5.5183 107.1605,9.4663 C105.6745,14.6833 104.9045,13.7733 104.0645,14.5503 C103.7615,14.8273 103.9405,15.3303 104.3285,15.3103 C106.0865,15.2973 109.0855,14.4363 109.7415,12.2043 C111.0265,7.5823 112.1615,7.5823 113.7705,6.1773" id="Fill-114" fill="#A49384"></path>
                <path d="M120.8027,8.9503 C121.1237,8.7183 121.0047,8.2153 120.5947,8.1373 C119.7687,7.9583 118.4467,7.8753 117.1637,8.3173 C115.8807,8.7523 114.6577,9.7093 113.9297,11.6263 C111.9937,16.6673 111.2827,15.7593 110.3857,16.4343 C110.0607,16.6813 110.1937,17.2003 110.5787,17.2203 C112.3557,17.3003 115.3807,16.8123 116.2537,14.5923 C117.9487,10.0953 119.0797,10.1903 120.8027,8.9503" id="Fill-116" fill="#A49384"></path>
                <path d="M127.5605,12.3311 C127.9015,12.1301 127.8285,11.6171 127.4285,11.4991 C125.7685,11.0501 122.2515,10.6651 120.4755,14.3931 C118.0905,19.2581 117.4685,18.2811 116.5175,18.8661 C116.1725,19.0811 116.2565,19.6131 116.6385,19.6691 C118.4155,19.8761 121.4535,19.7011 122.5215,17.5621 C124.5985,13.2521 125.7475,13.3941 127.5605,12.3311" id="Fill-118" fill="#A49384"></path>
                <path d="M133.9961,16.2926 C134.3501,16.1276 134.3321,15.5956 133.9341,15.4576 C132.3131,14.8716 128.8541,14.1676 126.7451,17.7366 C123.9381,22.3716 123.4101,21.3346 122.4131,21.8286 C122.0521,22.0106 122.0871,22.5506 122.4601,22.6436 C124.2021,23.0276 127.2661,23.0826 128.5051,21.0706 C130.9571,16.9586 132.0751,17.2216 133.9961,16.2926" id="Fill-120" fill="#A49384"></path>
                <path d="M140.0469,20.8155 C140.4219,20.6725 140.4339,20.1625 140.0539,19.9855 C139.2789,19.6275 138.0419,19.1795 136.7069,19.2455 C135.3489,19.3375 133.9019,19.9615 132.6959,21.6175 C129.4919,25.9855 129.0619,24.8995 128.0269,25.2995 C127.6519,25.4465 127.6389,25.9895 128.0009,26.1175 C128.8409,26.4185 130.0299,26.6085 131.1929,26.5035 C132.3319,26.4285 133.4609,26.0455 134.1579,25.0895 C136.9679,21.2045 138.0409,21.5855 140.0469,20.8155" id="Fill-122" fill="#A49384"></path>
                <path d="M145.6719,25.858 C146.0559,25.75 146.1139,25.24 145.7529,25.029 C145.0099,24.608 143.8459,24.022 142.4839,24 C141.1199,23.975 139.6339,24.459 138.2849,26.004 C134.7069,30.076 134.3869,28.94 133.3139,29.257 C132.9159,29.383 132.8749,29.898 133.2179,30.066 C134.0249,30.443 135.1849,30.748 136.3519,30.747 C137.5239,30.738 138.6519,30.487 139.4389,29.588 C142.5799,25.963 143.6109,26.443 145.6719,25.858" id="Fill-124" fill="#A49384"></path>
                <path d="M150.833,31.3717 C151.225,31.2987 151.329,30.7947 150.99,30.5507 C149.637,29.5107 146.399,28.0047 143.471,30.8607 C139.55,34.6007 139.337,33.4357 138.221,33.6757 C137.819,33.7617 137.719,34.2857 138.062,34.4667 C139.594,35.3407 142.609,36.1277 144.308,34.5307 C147.756,31.1947 148.734,31.7687 150.833,31.3717" id="Fill-126" fill="#A49384"></path>
                <path d="M155.4941,37.3155 C155.8891,37.2775 156.0391,36.7845 155.7241,36.5095 C155.0991,35.9405 154.0101,35.1945 152.6761,34.9315 C151.3481,34.6595 149.8091,34.8675 148.2121,36.1525 C143.9911,39.5235 143.8411,38.3775 142.7231,38.5055 C142.3181,38.5535 142.1691,39.0685 142.4921,39.2805 C143.9821,40.2535 146.8461,41.3585 148.7201,39.8845 C152.4551,36.8605 153.3771,37.5205 155.4941,37.3155" id="Fill-128" fill="#A49384"></path>
                <path d="M159.6172,43.6456 C160.0132,43.6446 160.2092,43.1646 159.9222,42.8606 C158.7292,41.6276 155.8662,39.5356 152.4652,41.8456 C147.9492,44.8406 147.9042,43.6836 146.7872,43.7086 C146.3812,43.7196 146.1842,44.2216 146.4862,44.4626 C146.8362,44.7436 147.2762,45.0286 147.7732,45.2796 C148.2512,45.5436 148.7822,45.7766 149.3372,45.9346 C150.4452,46.2476 151.6462,46.2706 152.6312,45.6146 C156.6042,42.9406 157.5122,43.6496 159.6172,43.6456" id="Fill-130" fill="#A49384"></path>
                <path d="M163.1709,50.3155 C163.5629,50.3505 163.8069,49.8865 163.5449,49.5605 C162.4339,48.2405 159.8129,45.8805 156.1879,47.8985 C151.4259,50.4825 151.4899,49.3215 150.3789,49.2455 C149.9749,49.2205 149.7329,49.7035 150.0099,49.9715 C151.3239,51.1805 153.9309,52.7785 156.0229,51.6655 C160.2129,49.3555 161.0559,50.1415 163.1709,50.3155" id="Fill-132" fill="#A49384"></path>
                <path d="M166.1123,57.2794 C166.5083,57.3454 166.7763,56.9114 166.5373,56.5664 C166.0493,55.8654 165.2073,54.8534 164.0213,54.2354 C162.8093,53.6244 161.2383,53.4354 159.3633,54.2544 C154.3903,56.4054 154.5663,55.2514 153.4713,55.0744 C153.0733,55.0134 152.7873,55.4744 153.0353,55.7674 C153.6073,56.4504 154.5463,57.2114 155.5953,57.7124 C156.6153,58.2214 157.7833,58.4614 158.8683,57.9884 C163.2573,56.0574 163.9913,56.9284 166.1123,57.2794" id="Fill-134" fill="#A49384"></path>
                <path d="M168.4082,64.4825 C168.7952,64.5845 169.1032,64.1745 168.8982,63.8085 C168.4712,63.0685 167.7692,61.9705 166.6022,61.2625 C165.4382,60.5495 163.9112,60.2135 161.9672,60.8645 C156.8192,62.5655 157.1172,61.4255 156.0332,61.1555 C155.6292,61.0635 155.3302,61.4875 155.5412,61.8045 C156.0452,62.5385 156.8902,63.3865 157.8982,63.9765 C158.9172,64.5595 160.0122,64.9165 161.1472,64.5385 C165.6922,63.0045 166.3362,63.9415 168.4082,64.4825" id="Fill-136" fill="#A49384"></path>
                <path d="M170.0605,71.858 C170.4335,71.994 170.7815,71.613 170.6145,71.23 C169.9895,69.644 167.9385,66.705 163.9785,67.679 C158.7095,68.913 159.1055,67.804 158.0235,67.446 C157.6345,67.316 157.2815,67.717 157.4845,68.046 C158.3785,69.57 160.5395,71.785 162.8435,71.264 C167.5075,70.141 168.0545,71.133 170.0605,71.858" id="Fill-138" fill="#A49384"></path>
                <path d="M171.0615,79.3463 C171.4195,79.5143 171.8025,79.1653 171.6745,78.7693 C171.1315,77.1423 169.4315,74.0243 165.3835,74.6443 C160.0185,75.4073 160.4725,74.3433 159.4515,73.8863 C159.0785,73.7223 158.6875,74.0903 158.8565,74.4373 C159.2695,75.2413 159.9405,76.2273 160.7945,76.9923 C161.6615,77.7503 162.7365,78.2883 163.9065,78.1193 C168.6445,77.4143 169.1615,78.4453 171.0615,79.3463" id="Fill-140" fill="#A49384"></path>
                <g id="Group-144" transform="translate(159.000000, 80.000000)">
                    <mask id="mask-4" fill="white">
                        <use xlink:href="#path-3"></use>
                    </mask>
                    <g id="Clip-143"></g>
                    <path d="M12.4141,6.8887 C12.7631,7.0877 13.1641,6.7737 13.0581,6.3677 C12.8401,5.5427 12.3961,4.3027 11.4951,3.3127 C10.6131,2.3187 9.1661,1.5957 7.1341,1.7107 C1.7231,1.9967 2.2821,0.9767 1.3121,0.4297 C0.9591,0.2327 0.5331,0.5657 0.6661,0.9267 C0.9611,1.7677 1.6171,2.8057 2.3861,3.6437 C3.1701,4.4767 4.1851,5.1077 5.3661,5.0417 C10.1521,4.7537 10.5431,5.8267 12.4141,6.8887" id="Fill-142" fill="#A49384" mask="url(#mask-4)"></path>
                </g>
            </g>
            <g id="Group-154" transform="translate(45.000000, 56.077000)" fill="#998675">
                <path d="M39.4902,9.2374 L14.0612,9.2374 C12.8882,9.2374 11.9632,10.1634 11.9632,11.3354 L11.9632,39.5414 C11.9632,40.7144 12.8882,41.6404 14.0612,41.6404 L39.4902,41.6404 C40.6622,41.6404 41.5882,40.7144 41.5882,39.5414 L41.5882,11.3974 C41.5892,10.2254 40.6622,9.2374 39.4902,9.2374" id="Fill-146"></path>
                <path d="M0.9883,32.012 C0.9883,33.617 2.2843,34.913 3.8893,34.913 L7.9633,34.913 L7.9633,16.088 L3.8893,16.088 C2.2843,16.088 0.9883,17.385 0.9883,18.989" id="Fill-148"></path>
                <path d="M74.1865,50.4737 L48.2775,40.0177 C46.6405,39.3577 45.5695,37.7697 45.5695,36.0047 L45.5695,14.9917 C45.5695,13.2297 46.6375,11.6437 48.2705,10.9817 L74.1795,0.4787 C77.0245,-0.6743 80.1325,1.4187 80.1325,4.4887 L80.1325,46.4617 C80.1325,49.5277 77.0305,51.6217 74.1865,50.4737" id="Fill-150"></path>
                <path d="M30.2002,66.2313 L23.3502,66.2313 C21.5982,66.2313 20.1782,64.8113 20.1782,63.0583 L20.1782,48.9523 C20.1782,47.2003 21.5982,45.7793 23.3502,45.7793 L30.2002,45.7793 C31.9522,45.7793 33.3732,47.2003 33.3732,48.9523 L33.3732,63.0583 C33.3732,64.8113 31.9522,66.2313 30.2002,66.2313" id="Fill-152"></path>
            </g>
        </g>
    </g>
</svg>