<?xml version="1.0" encoding="UTF-8"?>
<svg width="62px" height="50px" viewBox="0 0 62 50" version="1.1" xmlns="http://www.w3.org/2000/svg" xmlns:xlink="http://www.w3.org/1999/xlink">
    <!-- Generator: Sketch 49.3 (51167) - http://www.bohemiancoding.com/sketch -->
    <title>happy-star</title>
    <desc>Created with Sketch.</desc>
    <defs></defs>
    <g id="happy-star" stroke="none" stroke-width="1" fill="none" fill-rule="evenodd">
        <g id="Page-1-Copy-29" fill="#FFB236">
            <path d="M37.1402262,29.0091795 C29.7156904,27.4090817 24.017948,22.1479273 22.0098552,14.8438971 C21.3344247,12.3866595 17.6723331,12.3840762 16.9958626,14.8438971 C14.9882898,22.146894 9.29054738,27.4090817 1.86549158,29.0091795 C0.460554548,29.3119426 -0.0828056284,30.4046796 0.0113074738,31.4963834 C-0.0874852855,32.5906704 0.455354929,33.6875408 1.86549158,33.9913372 C9.28950746,35.5914349 14.9877698,40.8520727 16.9958626,48.1561029 C17.6718131,50.6133405 21.3339047,50.6159238 22.0098552,48.1561029 C24.017428,40.8536227 29.7151704,35.5914349 37.1402262,33.9913372 C39.6188846,33.4571102 39.6209644,29.5439231 37.1402262,29.0091795" id="Fill-1"></path>
            <path d="M61.0464679,8.22081648 C57.2390205,7.39911194 54.3165002,4.69725335 53.2871686,0.946660468 C52.9408035,-0.314786381 51.0625176,-0.316320365 50.7156385,0.946660468 C49.6868209,4.69674202 46.7648144,7.39911194 42.9568531,8.22081648 C42.2363724,8.37626027 41.9573275,8.93718739 42.0056336,9.4981145 C41.9557858,10.0600643 42.2338029,10.6230367 42.9568531,10.7789918 C46.7643005,11.6006964 49.6868209,14.302555 50.7156385,18.0531478 C51.0625176,19.315106 52.9408035,19.3161287 53.2871686,18.0531478 C54.3165002,14.3030663 57.2385066,11.6006964 61.0464679,10.7789918 C62.3173301,10.5049199 62.3183579,8.49539976 61.0464679,8.22081648" id="Fill-3"></path>
        </g>
    </g>
</svg>