<svg xmlns="http://www.w3.org/2000/svg" xmlns:xlink="http://www.w3.org/1999/xlink" viewBox="0 0 63.33 13.14"><defs><style>.cls-1{fill:none;clip-rule:evenodd;}.cls-2{fill:#c7b299;}.cls-3{clip-path:url(#clip-path);}.cls-4{clip-path:url(#clip-path-2);}</style><clipPath id="clip-path"><path class="cls-1" d="M-5207.81-738.47h15.52a10.49,10.49,0,0,1,9.48-6,10.5,10.5,0,0,1,10.5,10.5,10.5,10.5,0,0,1-10.5,10.5,10.48,10.48,0,0,1-8.93-5h-16.07V-701h15a10.49,10.49,0,0,1,9.48-6,10.5,10.5,0,0,1,10.5,10.5,10.5,10.5,0,0,1-10.5,10.5,10.48,10.48,0,0,1-8.93-5h-15.57v27.5h14.52a10.49,10.49,0,0,1,9.48-6,10.5,10.5,0,0,1,10.5,10.5,10.5,10.5,0,0,1-10.5,10.5,10.48,10.48,0,0,1-8.93-5h-15.07V-626h14a10.49,10.49,0,0,1,9.48-6,10.5,10.5,0,0,1,10.5,10.5,10.5,10.5,0,0,1-10.5,10.5,10.48,10.48,0,0,1-8.93-5h-14.57v27.5h13.52a10.49,10.49,0,0,1,9.48-6,10.5,10.5,0,0,1,10.5,10.5,10.5,10.5,0,0,1-10.5,10.5,10.48,10.48,0,0,1-8.93-5h-14.07V-551h13a10.49,10.49,0,0,1,9.48-6,10.5,10.5,0,0,1,10.5,10.5,10.5,10.5,0,0,1-10.5,10.5,10.48,10.48,0,0,1-8.93-5h-13.57v27.5h12.52a10.49,10.49,0,0,1,9.48-6,10.5,10.5,0,0,1,10.5,10.5,10.5,10.5,0,0,1-10.5,10.5,10.48,10.48,0,0,1-8.93-5h-13.07V-471h290V-771h-290Z"/></clipPath><clipPath id="clip-path-2"><path class="cls-1" d="M-5713.67-542h15.52a10.49,10.49,0,0,1,9.48-6,10.5,10.5,0,0,1,10.5,10.5,10.5,10.5,0,0,1-10.5,10.5,10.48,10.48,0,0,1-8.93-5h-16.07v27.5h15a10.49,10.49,0,0,1,9.48-6,10.5,10.5,0,0,1,10.5,10.5,10.5,10.5,0,0,1-10.5,10.5,10.48,10.48,0,0,1-8.93-5h-15.57V-467h14.52a10.49,10.49,0,0,1,9.48-6,10.5,10.5,0,0,1,10.5,10.5,10.5,10.5,0,0,1-10.5,10.5,10.48,10.48,0,0,1-8.93-5h-15.07v27.5h14a10.49,10.49,0,0,1,9.48-6,10.5,10.5,0,0,1,10.5,10.5,10.5,10.5,0,0,1-10.5,10.5,10.48,10.48,0,0,1-8.93-5h-14.57V-392h13.52a10.49,10.49,0,0,1,9.48-6,10.5,10.5,0,0,1,10.5,10.5,10.5,10.5,0,0,1-10.5,10.5,10.48,10.48,0,0,1-8.93-5h-14.07v27.5h13a10.49,10.49,0,0,1,9.48-6,10.5,10.5,0,0,1,10.5,10.5,10.5,10.5,0,0,1-10.5,10.5,10.48,10.48,0,0,1-8.93-5h-13.57V-317h12.52a10.49,10.49,0,0,1,9.48-6,10.5,10.5,0,0,1,10.5,10.5,10.5,10.5,0,0,1-10.5,10.5,10.48,10.48,0,0,1-8.93-5h-13.07v32.5h290v-300h-290Z"/></clipPath></defs><title>underline-curve</title><g id="圖層_1" data-name="圖層 1"><path class="cls-2" d="M.21,10.17c12.46-3.28,25.1.73,37.44,2.46,9.36,1.31,18.43-.49,27.56-3C70.79,8.16,68.42-.52,62.81,1,53.53,3.5,45.13,4.87,35.73,3.28,23.19,1.16,10.47-1.84-2.19,1.49-7.78,3-5.41,11.65.21,10.17Z"/></g></svg>