<?xml version="1.0" encoding="utf-8"?>
<!-- Generator: Adobe Illustrator 21.0.2, SVG Export Plug-In . SVG Version: 6.00 Build 0)  -->
<!DOCTYPE svg PUBLIC "-//W3C//DTD SVG 1.1//EN" "http://www.w3.org/Graphics/SVG/1.1/DTD/svg11.dtd">
<svg version="1.1" id="Layer_1" xmlns="http://www.w3.org/2000/svg" xmlns:xlink="http://www.w3.org/1999/xlink" x="0px" y="0px"
	 viewBox="0 0 40 40" style="enable-background:new 0 0 40 40;" xml:space="preserve">
<style type="text/css">
	.st0{fill:#DBDBE2;}
</style>
<g id="path-1_1_">
	<path class="st0" d="M20,40C9,40,0,31,0,20C0,9,9,0,20,0c11,0,20,9,20,20C40,31,31,40,20,40z M20,1.9C10,1.9,1.9,10,1.9,20
		S10,38.1,20,38.1S38.1,30,38.1,20S30,1.9,20,1.9z"/>
</g>
<path id="share" class="st0" d="M14.1,23.5c0.6,0,1.1-0.2,1.6-0.4l4.3,4.3c-0.3,0.5-0.4,1-0.4,1.5c0,1.7,1.4,3.1,3.1,3.1
	s3.1-1.4,3.1-3.1c0-1.7-1.4-3.1-3.1-3.1c-0.6,0-1.1,0.2-1.6,0.4l-4.3-4.3c0.3-0.5,0.4-1,0.4-1.5c0-0.6-0.2-1.1-0.4-1.5l4.3-4.3
	c0.5,0.3,1,0.4,1.6,0.4c1.7,0,3.1-1.4,3.1-3.1s-1.4-3.1-3.1-3.1s-3.1,1.4-3.1,3.1c0,0.6,0.2,1.1,0.4,1.5l-4.3,4.2
	c-0.4-0.3-1-0.4-1.6-0.4c-1.7,0-3.1,1.4-3.1,3.1C11,22.1,12.4,23.5,14.1,23.5L14.1,23.5z"/>
</svg>
