<?xml version="1.0" encoding="UTF-8" standalone="no"?>
<svg width="73px" height="74px" viewBox="0 0 73 74" version="1.1" xmlns="http://www.w3.org/2000/svg" xmlns:xlink="http://www.w3.org/1999/xlink">
    <!-- Generator: Sketch 41.2 (35397) - http://www.bohemiancoding.com/sketch -->
    <title>Group 20</title>
    <desc>Created with Sketch.</desc>
    <defs></defs>
    <g id="Page-1" stroke="none" stroke-width="1" fill="none" fill-rule="evenodd">
        <g id="註冊後選擇口味" transform="translate(-252.000000, -378.000000)">
            <g id="Group-20" transform="translate(253.000000, 379.000000)">
                <circle id="Oval-Copy-12" stroke="#FC5500" stroke-width="2" cx="35.5" cy="36.3194828" r="35.5"></circle>
                <path d="M25,51.0634665 L28,51.0634665 L28,53.0634665 L25,53.0634665 L25,51.0634665 Z M31,55.0634665 L34,55.0634665 L34,57.0634665 L31,57.0634665 L31,55.0634665 Z M25,56.0634665 L28,56.0634665 L28,58.0634665 L25,58.0634665 L25,56.0634665 Z M20,52.0634665 L23,52.0634665 L23,54.0634665 L20,54.0634665 L20,52.0634665 Z M18,59.0634665 L21,59.0634665 L21,61.0634665 L18,61.0634665 L18,59.0634665 Z M21,55.0634665 L24,55.0634665 L24,57.0634665 L21,57.0634665 L21,55.0634665 Z M17,56.0634665 L20,56.0634665 L20,58.0634665 L17,58.0634665 L17,56.0634665 Z M15,58.0634665 L18,58.0634665 L18,60.0634665 L15,60.0634665 L15,58.0634665 Z M21,58.0634665 L24,58.0634665 L24,60.0634665 L21,60.0634665 L21,58.0634665 Z M17,53.0634665 L20,53.0634665 L20,55.0634665 L17,55.0634665 L17,53.0634665 Z M27,53.0634665 L30,53.0634665 L30,55.0634665 L27,55.0634665 L27,53.0634665 Z" id="Combined-Shape" fill="#FC5500"></path>
                <g id="religious-salt-copy-2" transform="translate(39.459292, 29.000000) rotate(-150.000000) translate(-39.459292, -29.000000) translate(27.959292, 8.000000)" fill="#FC5500">
                    <g id="Capa_1" transform="translate(0.000000, 0.000000)">
                        <g id="Group" transform="translate(-0.000000, 0.000000)">
                            <path d="M21.8979974,34.9380114 C21.7945671,33.9610265 21.6899014,32.9590042 21.5846179,31.9519568 C20.8862874,25.2683113 20.2265225,18.955377 19.7107834,17.1811645 C19.4571499,16.3097948 18.8654266,15.8827496 18.3899299,15.5395442 C17.8625417,15.1588709 17.4925933,14.8912183 17.4100786,14.0693062 C18.207515,13.6237474 18.748141,12.7714202 18.748141,11.7946997 C18.748141,11.0005578 18.3891357,10.2889333 17.825035,9.81181346 C18.7156646,8.78166826 19.1972505,7.56391938 19.1972505,6.30376572 C19.1972505,4.581303 18.3210941,2.97521097 16.7301925,1.78126519 C15.1997428,0.632633458 13.1758815,-9.30810984e-13 11.0316458,-9.30810984e-13 C8.88679231,-9.30810984e-13 6.86284277,0.632633458 5.33248134,1.78135335 C3.74202095,2.97521097 2.8661293,4.581303 2.8661293,6.30385388 C2.8661293,7.56383122 3.34753876,8.78149194 4.23781534,9.81154898 C3.67309688,10.2886689 3.31373861,11.0004697 3.31373861,11.7947879 C3.31373861,12.7711557 3.85436453,13.6233066 4.65188926,14.0689535 C4.56955103,14.8912183 4.19942613,15.1588709 3.67194962,15.5396324 C3.19645297,15.8828378 2.60472969,16.309883 2.35100793,17.1815172 C1.83676907,18.9502637 1.18009302,25.2374554 0.484851259,31.8937715 C0.377626236,32.9203903 0.270930718,33.9422485 0.165558967,34.9380114 C-0.0577161856,37.0463488 -0.135818363,38.5043327 0.778285995,39.5191381 C1.97338169,40.8462049 4.503804,41.0823846 11.0316458,41.0823846 C17.5583403,41.0823846 20.0884096,40.8462049 21.2839466,39.5193144 C22.1982274,38.504509 22.1206548,37.0465251 21.8979974,34.9380114 Z M5.91855655,12.9881165 C5.26082149,12.9881165 4.72566713,12.4528113 4.72566713,11.7946997 C4.72566713,11.1394092 5.26073324,10.6063961 5.91855655,10.6063961 L16.1449115,10.6063961 C16.8017641,10.6063961 17.3362124,11.1394974 17.3362124,11.7946997 C17.3362124,12.4527231 16.8017641,12.9881165 16.1449115,12.9881165 L5.91855655,12.9881165 Z M4.27814607,6.30376572 C4.27814607,4.62564729 5.45056125,3.14244978 7.23270291,2.26058907 C7.365962,2.57849267 7.68040048,2.80241811 8.04637758,2.80241811 C8.53343512,2.80241811 8.92959407,2.40728668 8.92959407,1.92152715 C8.92959407,1.83195698 8.91591516,1.74547239 8.89094011,1.66392473 C9.2978657,1.5650978 9.72164723,1.49377666 10.1586664,1.45269428 C10.2209717,1.8779763 10.588096,2.2059301 11.0314693,2.2059301 C11.4741365,2.2059301 11.8407314,1.87788814 11.9028601,1.45260612 C12.3398793,1.49360034 12.7637491,1.56483332 13.1706747,1.6635721 C13.1456997,1.74520791 13.1320207,1.83178066 13.1320207,1.92152715 C13.1320207,2.40728668 13.5275619,2.80241811 14.0138252,2.80241811 C14.3806848,2.80241811 14.6958293,2.57805187 14.8290884,2.25979563 C16.6120243,3.14156818 17.7851455,4.62511833 17.7851455,6.30376572 C17.7851455,7.34969149 17.3123846,8.37207865 16.4489364,9.21417937 C16.3490362,9.2025423 16.2476357,9.19584217 16.144735,9.19584217 L5.91855655,9.19584217 C5.81547933,9.19584217 5.71399062,9.2025423 5.61400219,9.21417937 C4.75073043,8.37216681 4.27814607,7.34977965 4.27814607,6.30376572 Z M20.2343769,38.5756538 C19.3945799,39.5078537 16.5977277,39.6718306 11.0316458,39.6718306 C5.46459316,39.6718306 2.66738793,39.5078537 1.82776746,38.5756538 C1.3050565,37.995299 1.38624747,36.8173101 1.56963315,35.0862959 C1.6750049,34.0898277 1.78178867,33.0674405 1.88910194,32.0401164 C2.54727826,25.7384666 3.22795859,19.2222361 3.70680878,17.5750617 C3.81968187,17.1873357 4.05601818,17.002465 4.49877369,16.6828864 C5.07355277,16.2680072 5.83057026,15.7205359 6.03063539,14.3986705 L16.0312442,14.3986705 C16.2313093,15.7205359 16.9882385,16.2680953 17.5630176,16.6828864 C18.0057731,17.002465 18.2420212,17.1872476 18.3548943,17.5747973 C18.835333,19.2275257 19.5499017,26.0654506 20.1803672,32.0984781 C20.2856507,33.1061426 20.3904047,34.1086939 20.4938349,35.0862078 C20.6766029,36.817222 20.7572643,37.995299 20.2343769,38.5756538 Z" id="Shape"></path>
                            <path d="M15.3728914,16.6728362 L6.60982702,16.6728362 C6.21993388,16.6728362 5.90381863,16.9886239 5.90381863,17.3781131 C5.90381863,17.7676024 6.21993388,18.0833901 6.60982702,18.0833901 L7.39720287,18.0833901 C7.33339736,19.0311942 7.2318204,20.5336105 7.11171073,22.3095862 C7.08541191,22.6981938 7.37946441,23.0345227 7.76847503,23.0607943 C7.78471322,23.0618522 7.80068666,23.0624693 7.81674835,23.0624693 C8.18501998,23.0624693 8.49522241,22.7771848 8.52046221,22.4047104 C8.64480794,20.568081 8.74912068,19.0243178 8.81239668,18.0833901 L13.2481591,18.0833901 C13.4265145,20.707814 13.7595739,25.6165418 14.0529204,29.9425345 C14.0781602,30.3150089 14.3883627,30.6002053 14.7566343,30.6002053 C14.772696,30.6002053 14.7887577,30.5996764 14.8050841,30.5985303 C15.1940947,30.5721706 15.488059,30.2358416 15.4616719,29.847234 C15.1719437,25.5740489 14.8432968,20.7305591 14.6634412,18.0833901 L15.3728914,18.0833901 C15.7627845,18.0833901 16.0788997,17.7676024 16.0788997,17.3781131 C16.0788997,16.9886239 15.7627845,16.6728362 15.3728914,16.6728362 Z" id="Shape"></path>
                            <path d="M7.68472478,24.298291 C7.29659667,24.2721957 6.95885991,24.5657672 6.9327376,24.9543749 C6.5956186,29.9324843 6.19654736,35.8166102 6.04334354,38.0745545 C6.01695647,38.4631621 6.31092071,38.7995793 6.69993134,38.8258508 C6.71625778,38.8269969 6.73231947,38.8275259 6.74838116,38.8275259 C7.11656453,38.8275259 7.42685522,38.5423295 7.45209502,38.1699432 C7.60529884,35.911999 8.00437008,30.027873 8.34148909,25.0495873 C8.3677879,24.6609796 8.0737354,24.3246507 7.68472478,24.298291 Z" id="Shape"></path>
                            <path d="M15.6409098,32.4921108 C15.614611,32.1035032 15.277845,31.8107251 14.8889226,31.8360269 C14.499912,31.8622985 14.2058595,32.1987156 14.2322466,32.5873232 C14.4224276,35.3955599 14.5716601,37.6002557 14.609608,38.169238 C14.6344948,38.5419768 14.9448738,38.827614 15.3134102,38.827614 C15.3292071,38.827614 15.3450923,38.8270851 15.3610657,38.8260271 C15.7501646,38.8001082 16.0444818,38.4640437 16.018536,38.075348 C15.9804116,37.5062776 15.8312673,35.3008764 15.6409098,32.4921108 Z" id="Shape"></path>
                            <path d="M8.04637758,5.18669513 C8.53343512,5.18669513 8.92959407,4.7915637 8.92959407,4.30580417 C8.92959407,3.81925121 8.53343512,3.42350266 8.04637758,3.42350266 C7.5601143,3.42350266 7.16457311,3.81925121 7.16457311,4.30580417 C7.16457311,4.7915637 7.5601143,5.18669513 8.04637758,5.18669513 Z" id="Shape"></path>
                            <path d="M14.0140017,5.18669513 C14.5010593,5.18669513 14.8972182,4.7915637 14.8972182,4.30580417 C14.8972182,3.81925121 14.5010593,3.42350266 14.0140017,3.42350266 C13.5277384,3.42350266 13.1321972,3.81925121 13.1321972,4.30580417 C13.1321972,4.7915637 13.5277384,5.18669513 14.0140017,5.18669513 Z" id="Shape"></path>
                            <path d="M11.0315575,4.59029528 C11.5177326,4.59029528 11.9132738,4.19516384 11.9132738,3.70940432 C11.9132738,3.22285136 11.5177326,2.82710281 11.0315575,2.82710281 C10.5445,2.82710281 10.148341,3.22285136 10.148341,3.70940432 C10.148341,4.19507568 10.5445,4.59029528 11.0315575,4.59029528 Z" id="Shape"></path>
                        </g>
                    </g>
                </g>
            </g>
        </g>
    </g>
</svg>