<?xml version="1.0" encoding="utf-8"?>
<!-- Generator: Adobe Illustrator 21.0.0, SVG Export Plug-In . SVG Version: 6.00 Build 0)  -->
<!DOCTYPE svg PUBLIC "-//W3C//DTD SVG 1.1//EN" "http://www.w3.org/Graphics/SVG/1.1/DTD/svg11.dtd">
<svg version="1.1" id="Layer_1" xmlns="http://www.w3.org/2000/svg" xmlns:xlink="http://www.w3.org/1999/xlink" x="0px" y="0px"
	 viewBox="0 0 1024 1024" style="enable-background:new 0 0 1024 1024;" xml:space="preserve">
<style type="text/css">
	.st0{fill:none;}
	.st1{fill:#FF5252;}
</style>
<g>
	<title></title>
	<rect id="canvas_background" x="-1" y="-1" class="st0" width="582" height="402"/>
</g>
<g>
	<title></title>
	<g id="svg_1" transform="translate(0,1024) scale(0.10000000149011612,-0.10000000149011612) ">
		<path id="svg_2" class="st1" d="M4855,9439c-884-55-1739-386-2430-940c-659-528-1153-1237-1414-2029c-318-963-287-2010,86-2960
			c64-163,217-472,310-626c376-621,876-1121,1497-1497c154-93,464-246,626-310c1034-405,2166-405,3200,0c162,64,472,217,626,310
			c621,376,1121,876,1497,1497c93,154,246,464,310,626c377,962,404,2009,77,2990c-120,357-321,757-545,1081
			c-533,768-1320,1357-2205,1648C5967,9402,5407,9474,4855,9439z M6549,7075c215-35,399-126,570-281c63-57,56-56,224-8
			c137,39,289,97,436,166c57,26,106,46,109,43c13-13-78-206-141-300c-55-81-176-201-266-263c-85-59-91-58,109-15
			c95,20,373,107,444,138c22,10-12-44-102-160c-68-88-298-315-379-375l-61-45l-6-175c-20-522-100-892-288-1320
			c-161-370-348-643-637-931c-557-555-1216-868-1976-939c-141-13-513-13-646,0c-382,38-729,132-1057,286c-111,52-264,135-331,180
			l-34,23l224-1c230-1,349,9,519,43c201,41,413,117,590,211c93,49,315,191,325,208c3,5-21,11-52,15c-373,41-665,218-863,522
			c-45,68-101,186-115,245c-7,26-6,26,32,17c88-20,433-3,433,21c0,4-15,11-32,14c-125,25-321,129-437,232c-215,191-337,401-386,663
			c-13,75-21,221-11,221c2,0,30-13,62-29c81-40,201-76,318-96c54-9,99-15,101-13s-32,32-76,66c-252,201-393,483-406,813
			c-7,166,6,268,52,406c32,96,89,223,100,223c3,0,20-17,38-37c317-368,644-631,1015-818c363-182,770-290,1175-312
			c116-6,120-6,113,13c-28,71-36,293-16,421c35,222,133,413,299,586c178,185,387,300,612,337c41,6,81,13,89,15
			C6267,7094,6468,7088,6549,7075z"/>
	</g>
</g>
</svg>
