<?xml version="1.0" encoding="UTF-8"?>
<svg width="65px" height="11px" viewBox="0 0 65 11" version="1.1" xmlns="http://www.w3.org/2000/svg" xmlns:xlink="http://www.w3.org/1999/xlink">
    <!-- Generator: Sketch 49.3 (51167) - http://www.bohemiancoding.com/sketch -->
    <title>pattern-curve</title>
    <desc>Created with Sketch.</desc>
    <defs>
        <polygon id="path-1" points="0 0.826 65 0.826 65 10 0 10"></polygon>
    </defs>
    <g id="pattern-curve" stroke="none" stroke-width="1" fill="none" fill-rule="evenodd">
        <g id="Group-48" transform="translate(0.000000, 0.174500)">
            <mask id="mask-2" fill="white">
                <use xlink:href="#path-1"></use>
            </mask>
            <g id="Clip-47"></g>
            <path d="M0,4.4133 C3.733,2.5753 7.855,1.6333 11.992,1.1513 C16.143,0.6713 20.368,0.7263 24.534,1.2863 C26.662,1.5623 28.583,1.9223 30.566,2.2723 L36.455,3.3453 C38.405,3.7133 40.348,4.0513 42.252,4.3583 C43.205,4.4963 44.147,4.6293 45.089,4.7363 C46.031,4.8363 46.988,4.9043 48,4.9883 L47.759,5.0003 L56.305,4.7283 L60.624,4.5863 L65,4.4133 C63.709,5.1413 62.354,5.7343 60.984,6.2903 C59.613,6.8383 58.218,7.3113 56.813,7.7493 C55.408,8.1783 53.99,8.5603 52.566,8.9123 C51.133,9.2463 49.721,9.5693 48.241,9.8263 L48,9.8383 C45.986,10.0143 43.753,10.0623 41.66,9.9043 C39.552,9.7753 37.503,9.5033 35.474,9.2053 C33.447,8.8883 31.439,8.5343 29.449,8.1203 C27.465,7.7293 25.439,7.2423 23.587,6.8463 C19.8,6.0263 15.947,5.4303 12.026,5.0303 C8.101,4.6343 4.124,4.3853 0,4.4133" id="Fill-46" fill="#998675" mask="url(#mask-2)"></path>
        </g>
    </g>
</svg>