<?xml version="1.0" encoding="UTF-8"?>
<svg width="316px" height="570px" viewBox="0 0 316 570" version="1.1" xmlns="http://www.w3.org/2000/svg" xmlns:xlink="http://www.w3.org/1999/xlink">
    <!-- Generator: Sketch 49.3 (51167) - http://www.bohemiancoding.com/sketch -->
    <title>deco-right</title>
    <desc>Created with Sketch.</desc>
    <defs>
        <polygon id="path-1" points="0 0.284907278 77.3418506 0.284907278 77.3418506 308.776955 0 308.776955"></polygon>
        <polygon id="path-3" points="0.347849078 0.397733921 41.6638417 0.397733921 41.6638417 24.8058577 0.347849078 24.8058577"></polygon>
        <polygon id="path-5" points="0 0.684033633 52.434416 0.684033633 52.434416 11.2 0 11.2"></polygon>
        <polygon id="path-7" points="-8.76370619e-05 0.684033633 52.434416 0.684033633 52.434416 11.2 -8.76370619e-05 11.2"></polygon>
        <polygon id="path-9" points="-8.76370619e-05 0.684033633 52.434416 0.684033633 52.434416 11.2 -8.76370619e-05 11.2"></polygon>
        <polygon id="path-11" points="-8.76370619e-05 0.684033633 52.434416 0.684033633 52.434416 11.2 -8.76370619e-05 11.2"></polygon>
        <polygon id="path-13" points="-8.76370619e-05 0.684033633 52.434416 0.684033633 52.434416 11.2 -8.76370619e-05 11.2"></polygon>
        <polygon id="path-15" points="0.000219901576 0.684033633 52.434416 0.684033633 52.434416 11.2 0.000219901576 11.2"></polygon>
        <polygon id="path-17" points="0.000219901576 0.684033633 52.434416 0.684033633 52.434416 11.2 0.000219901576 11.2"></polygon>
        <polygon id="path-19" points="0 0.684033633 52.434416 0.684033633 52.434416 11.2 0 11.2"></polygon>
        <polygon id="path-21" points="-8.76370619e-05 0.684033633 52.434416 0.684033633 52.434416 11.2 -8.76370619e-05 11.2"></polygon>
        <polygon id="path-23" points="-8.76370619e-05 0.684033633 52.434416 0.684033633 52.434416 11.2 -8.76370619e-05 11.2"></polygon>
        <polygon id="path-25" points="-8.76370619e-05 0.684033633 52.434416 0.684033633 52.434416 11.2 -8.76370619e-05 11.2"></polygon>
        <polygon id="path-27" points="-8.76370619e-05 0.684033633 52.434416 0.684033633 52.434416 11.2 -8.76370619e-05 11.2"></polygon>
        <polygon id="path-29" points="0.000219901576 0.684033633 52.434416 0.684033633 52.434416 11.2 0.000219901576 11.2"></polygon>
        <polygon id="path-31" points="0.000219901576 0.684033633 52.434416 0.684033633 52.434416 11.2 0.000219901576 11.2"></polygon>
        <polygon id="path-33" points="0 0.684033633 52.434416 0.684033633 52.434416 11.2 0 11.2"></polygon>
        <polygon id="path-35" points="-8.76370619e-05 0.684033633 52.434416 0.684033633 52.434416 11.2 -8.76370619e-05 11.2"></polygon>
        <polygon id="path-37" points="-8.76370619e-05 0.684033633 52.434416 0.684033633 52.434416 11.2 -8.76370619e-05 11.2"></polygon>
        <polygon id="path-39" points="-8.76370619e-05 0.684033633 52.434416 0.684033633 52.434416 11.2 -8.76370619e-05 11.2"></polygon>
        <polygon id="path-41" points="-8.76370619e-05 0.684033633 52.434416 0.684033633 52.434416 11.2 -8.76370619e-05 11.2"></polygon>
        <polygon id="path-43" points="0.000219901576 0.684033633 52.434416 0.684033633 52.434416 11.2 0.000219901576 11.2"></polygon>
        <polygon id="path-45" points="0.000219901576 0.684033633 52.434416 0.684033633 52.434416 11.2 0.000219901576 11.2"></polygon>
        <polygon id="path-47" points="0 0.619230636 213.433723 0.619230636 213.433723 126.999872 0 126.999872"></polygon>
    </defs>
    <g id="homepage" stroke="none" stroke-width="1" fill="none" fill-rule="evenodd">
        <g id="0311-feedme-homepage" transform="translate(-1604.000000, -1124.000000)">
            <g id="deco-right" transform="translate(1597.000000, 1124.000000)">
                <g id="Page-1" transform="translate(169.500000, 311.000000) rotate(45.000000) translate(-169.500000, -311.000000) translate(129.000000, 113.000000)">
                    <polygon id="Fill-1" fill="#FFB236" points="4 344 73 344 73 44 4 44"></polygon>
                    <g id="Group-66">
                        <path d="M69.8489122,341.260751 C67.5647754,340.970307 63.6243289,340.941985 59.8938258,340.893779 C62.7653235,341.172171 65.8179176,341.29329 69.8489122,341.260751" id="Fill-2" fill="#FFBA4B"></path>
                        <path d="M59.8502674,340.889538 C59.8297323,340.89014 59.7874542,340.891948 59.7626913,340.893153 C59.8406038,340.894358 59.8961693,340.894961 59.9607945,340.895564 C59.9167044,340.893153 59.8828819,340.891345 59.8502674,340.889538" id="Fill-4" fill="#FFBA4B"></path>
                        <path d="M77.0765395,342.239857 C77.0711037,341.309237 77.06446,340.248986 77.0584203,339.173132 C77.0493607,340.200175 77.0487567,341.245222 77.0765395,342.239857" id="Fill-6" fill="#FFBA4B"></path>
                        <g id="Group-10" transform="translate(0.000000, 40.009448)">
                            <mask id="mask-2" fill="white">
                                <use xlink:href="#path-1"></use>
                            </mask>
                            <g id="Clip-9"></g>
                            <path d="M8.6049977,180.368632 L8.28447333,179.801298 C8.27966546,170.963611 8.65107308,177.228291 8.57214396,169.057561 C8.11900262,165.861206 8.61902065,155.485156 8.37822671,152.660889 C8.38704113,152.676893 8.39505424,152.438837 8.403468,152.076751 C8.41188177,151.714666 8.42310012,151.228551 8.43431847,150.748038 C8.45996042,149.787411 8.49842335,148.85079 8.56974002,148.977219 C8.32373757,147.75213 8.51284695,144.861848 8.44954338,142.338852 C8.3810313,141.424636 8.37622343,143.01021 8.30210217,143.693972 L8.21515993,137.913807 C8.29448972,135.653273 8.43912634,135.096742 8.4655696,137.553322 C8.5537138,122.447755 8.78969988,49.923829 8.66669865,33.6507863 C8.48079451,35.7424802 8.60660033,40.7656664 8.31412183,42.6745172 C8.1506544,38.3731014 8.37181622,36.3406215 8.19953437,34.4441737 C8.6338449,32.7929837 8.30370479,24.9899411 8.7436245,21.7323719 L8.49722138,20.4980804 L8.64786784,18.3603756 C8.59658394,14.6879084 8.56252822,12.2781394 8.53929021,10.6541559 C8.53328038,10.2484601 8.52847251,9.8915758 8.52366464,9.57670144 C8.52126071,9.43986913 8.51885678,9.31223899 8.5168535,9.19261074 L8.51164498,9.1738063 C8.50563515,9.14900045 8.50122794,9.13099619 8.49762204,9.11739298 C8.48840696,9.06177985 8.51044301,9.06898155 8.53648562,8.98856256 C8.5645315,8.99376379 8.60459705,9.00136558 8.65948685,9.01176804 C8.6815229,9.0149688 8.7075655,9.01856965 8.73601204,9.02297069 C9.42954666,9.02577135 10.2044143,9.0293722 11.0698301,9.03297305 C20.7913344,8.99536417 25.4100907,8.65408358 30.8189395,8.78011334 C30.0152247,8.77731268 27.8721186,8.62687715 30.3898375,8.56406232 C30.8189395,8.78011334 37.0932042,8.40922576 38.3204119,8.62727725 C40.7868469,8.60007082 48.7779203,8.62807744 46.0734959,8.33280771 C47.4301153,8.48004248 54.5593787,8.54045674 50.3148347,8.66848698 C52.7199694,8.67688896 55.0501816,8.72009917 56.7814139,8.65528386 L53.6935622,8.5728644 C57.7550067,8.55165939 60.892139,8.59767025 63.6754926,8.6160746 C65.0673697,8.62527677 66.3703013,8.62767734 67.6560047,8.61087337 L67.72652,8.60927299 L67.7417449,8.60727252 L67.7713934,8.60367167 L67.8322931,8.5944695 L67.9621054,8.57006374 C68.0534549,8.55045911 68.1552214,8.52485306 68.2782226,8.49164522 C68.1628338,8.45243596 68.0230051,8.4132267 67.8587363,8.37401744 C68.1011329,8.36881621 68.3395229,8.3628148 68.5514696,8.36481527 C68.5490657,8.62927772 68.5358441,8.87893667 68.4969805,9.07218231 L68.4813549,9.14179875 L68.4725405,9.1742064 C68.4693353,9.19261074 68.46613,9.16820498 68.4629248,9.25862633 C68.4472992,9.52028812 68.4320743,9.76754651 68.4180514,10.0004015 C68.3843963,10.4649112 68.3427281,10.8698068 68.2910436,11.2070864 L68.2682062,9.96239252 L68.2569879,9.33984551 L68.2541833,9.19421112 L68.2513787,9.17700706 L68.2457695,9.14339912 L68.2008961,8.8985413 C68.2145184,11.8776448 68.2261374,14.2650085 68.2365544,16.5287431 C68.2613951,19.5842646 68.3054672,22.4729468 68.3831943,25.8245382 L68.3912074,23.4319732 C68.6832853,31.9719899 68.9244799,76.6473395 69.2902783,84.5163977 L69.5170493,80.8923419 L69.708162,87.6595399 C69.7109666,86.8585508 68.9713566,84.3939688 69.0454778,83.7226103 C69.0663119,98.2232344 69.2426003,173.650246 69.0895499,187.042608 C68.9637441,192.445884 68.72896,188.014438 68.6937023,187.953623 C68.7782406,194.528776 68.9340956,190.790293 68.9144635,196.380813 C68.8735966,197.906774 68.7365725,196.064739 68.7041194,195.206136 C68.7309633,197.656315 68.6524348,199.928451 68.7586085,200.115695 C68.8407429,197.052172 69.1224037,198.349278 69.3051026,197.052172 L69.2806626,204.24347 L69.1027716,203.924595 C69.097563,205.528173 69.5887666,207.991155 69.4934106,215.055623 C69.4164848,226.974038 69.478987,239.919495 69.4377195,251.903525 C69.3307445,251.717481 69.2678416,249.201286 69.20574,246.678691 C69.2001308,248.28587 69.2273754,250.734448 69.1508502,252.214398 C69.3391583,249.320114 69.2762554,257.243986 69.3555852,254.981051 C69.7898957,263.759124 69.3932468,275.116206 69.6881292,282.864436 C70.0787683,283.542196 76.3991083,299.456354 76.8638686,299.456354 C76.8554549,301.862922 76.8470411,304.255487 76.8085782,304.99046 C76.9179571,304.369914 76.9700423,299.641197 76.9079407,297.127804 L76.6583324,296.694501 C76.5713902,290.911936 76.8065749,295.339782 76.7897474,289.695649 C76.9932804,289.394778 77.0369518,294.589204 77.0565839,299.163885 C77.0802226,295.045312 77.2284651,290.942743 77.0057007,289.265147 C77.0906396,285.394233 77.2545077,289.695649 77.3418506,285.032948 C77.2817523,281.712164 77.0822259,277.350334 77.2028232,273.535033 L77.2388822,273.602649 C77.4492263,264.328459 76.9299768,259.412498 77.137917,250.938897 L77.2060284,251.851512 C77.3238211,248.856005 77.1655622,242.959012 77.291368,237.555736 C77.2501005,239.0973 77.1026593,240.436817 77.0782193,237.18805 C77.2068297,230.974982 77.0782193,226.736382 77.2372795,222.195309 L77.0377531,217.83588 C77.076216,196.205172 76.7929526,110.763796 76.7609002,89.0342646 L76.7929526,89.8856656 C76.7568936,68.2705614 76.6967953,32.4797098 76.6427068,0.284907278 C65.5850165,0.31371408 54.9576302,0.341320599 45.2369272,0.366526552 C36.7883054,0.414137795 29.1277728,0.457347998 22.667604,0.493356501 C20.0180694,0.395733449 16.8657122,0.358124568 13.6849084,0.338119844 C9.25365891,0.320915781 4.78314519,0.303711719 0.932846128,0.288908223 C3.81916813,0.32971786 4.76070848,0.384930898 4.45621032,0.42894129 C4.14850692,0.472951683 2.60638402,0.50575943 0.433228759,0.501758485 C0.264152151,0.501758485 0.0962775092,0.501358391 0.0373811553,0.501358391 L0.0373811553,9.17700706 C0.0437916428,10.3644875 0.0485995084,11.1790798 0.0510034412,11.7456136 C0.0646257272,12.8746802 0.0846585006,13.0163137 0.108297173,13.1731507 C0.155574519,13.4872249 0.215672839,13.8621134 0.257341008,22.3217111 C0.440039902,41.911537 0.232500369,116.884041 0.0650263826,134.274548 C0.354299631,143.615153 0.13514109,155.275907 0.318240639,164.428068 L0.249728554,163.50625 C0.359107497,173.334571 0.0906683326,228.971709 0.194438099,240.395607 L0.235705612,238.860445 C0.415599918,248.821597 0.0990820975,247.464876 -0.000280458828,255.31393 C0.325051782,254.282486 0.509353298,262.818102 0.533392626,266.073671 L0.462877263,265.950442 C0.517366407,270.859201 0.799828513,281.979427 0.843099303,290.086141 L0.665608931,289.769266 C0.721300041,291.750534 0.753753134,294.242723 0.772583941,296.896149 C0.78059705,300.576218 0.78861016,304.47994 0.796623269,308.1224 C5.83286251,308.1228 10.3498523,308.1232 13.05628,308.1236 C24.1852869,308.196818 41.346162,308.505691 56.2265061,308.271235 L65.8398334,308.776955 L67.2469354,308.726543 C67.2469354,308.726543 82.7286634,302.619901 63.0757113,301.319194 L63.3886233,301.142352 L59.5030665,301.165157 C54.8410395,301.077937 52.6851124,301.283185 53.0016302,301.106343 L59.3884791,301.127948 C54.7048166,301.076736 57.9753672,300.982714 59.7630919,300.88269 C57.8074926,300.865486 55.909187,300.844281 54.3522398,300.789869 C53.4291296,300.857885 55.0305495,300.863486 55.7593418,300.901895 C53.2396196,300.96431 49.7310796,301.130749 46.6632607,301.04913 C41.8670141,301.032326 46.3575606,300.762262 40.7608043,300.743058 C34.5678728,300.71225 28.4154074,300.681043 22.2841767,300.650636 C19.2183611,300.634632 16.157754,300.619028 13.0999514,300.603024 L8.72479369,300.580219 L8.37181622,300.557414 L8.38664047,300.307755 L8.39425293,300.190527 L8.40106407,298.658165 C8.40987849,296.547267 8.41869291,294.435168 8.42750733,292.321869 C8.44153027,288.094871 8.45555321,283.862271 8.46957616,279.616469 C8.47598664,271.125264 8.48239713,262.583246 8.48920827,253.937605 C8.56292888,253.260245 8.56012429,254.067235 8.59297804,254.927439 C8.54690266,245.950919 8.50643646,237.974235 8.46476829,229.801505 C8.54409807,227.531369 8.65347702,226.911623 8.72719762,226.240264 C8.65347702,226.914824 8.61341147,215.630959 8.59658394,204.086633 C8.59297804,198.31447 8.5897728,192.477092 8.58696821,188.036843 C8.58897149,183.596194 8.59538197,180.552676 8.6049977,180.368632" id="Fill-8" fill="#FFBA4B" mask="url(#mask-2)"></path>
                        </g>
                        <path d="M72.5306596,44.4006848 L3.93283408,44.4006848 L3.93283408,18.2064993 C3.93283408,10.7087288 10.019592,4.63089354 17.5274748,4.63089354 L58.9360188,4.63089354 C66.4443023,4.63089354 72.5306596,10.7087288 72.5306596,18.2064993 L72.5306596,44.4006848 Z" id="Fill-11" fill="#FF5253"></path>
                        <path d="M71.7864821,40.6614872 C71.1526451,40.371043 70.0588557,40.3427217 69.023562,40.2945152 C69.8204657,40.5729077 70.667852,40.6940266 71.7864821,40.6614872" id="Fill-13" fill="#FF6465"></path>
                        <path d="M69.0115417,40.2900741 C69.005502,40.2912793 68.9940265,40.293087 68.9873828,40.2942922 C69.0085218,40.2948948 69.0242251,40.2954973 69.0423443,40.2967025 C69.0296609,40.2936896 69.0206013,40.2918818 69.0115417,40.2900741" id="Fill-15" fill="#FF6465"></path>
                        <path d="M77.0765395,43.6345839 C77.0711037,43.3761228 77.06446,43.0820534 77.0584203,42.7835829 C77.0493607,43.0684502 77.0487567,43.3585187 77.0765395,43.6345839" id="Fill-17" fill="#FF6465"></path>
                        <path d="M18.8565291,39.735023 L18.6982702,40.0546985 C16.2426528,40.0594997 17.9835009,39.6890122 15.7125857,39.7682309 C14.8247331,40.2203376 11.9404144,39.7210197 11.1555304,39.9614765 C11.1731592,39.925468 10.0617409,39.9118648 10.1318556,39.7702313 C9.96157706,39.8930604 9.67550905,39.9074638 9.34456763,39.8986617 C9.17949758,39.8926603 9.00200721,39.8858587 8.82291421,39.8794571 L8.7556041,39.8778568 C8.73156477,39.8770566 8.74678967,39.8770566 8.74037919,39.8766565 L8.73236608,39.8770566 C8.72715756,39.8782569 8.72194904,39.8822578 8.71553855,39.8898596 C8.69189988,39.9582758 8.71914445,39.963477 8.73597198,40.0374945 C8.68669135,40.0667014 8.62739435,40.0955082 8.5584816,40.124315 C8.51521081,40.0450963 8.5945406,39.9006621 8.64061598,39.8742559 C8.61377206,39.8634534 8.57130258,39.8470495 8.51481016,39.8250443 C8.52682982,39.7790334 8.54045211,39.726221 8.55527636,39.6690074 C8.5620875,39.6474023 8.56849799,39.6253971 8.57611045,39.6021917 C8.58252093,39.070066 8.58933208,38.5223367 8.59654387,37.9630046 C8.61938124,35.5144264 8.64462253,32.8638005 8.6682612,30.3115978 C8.70632347,25.2067923 8.71874379,20.4960799 8.66665858,18.5836283 C8.4811551,19.1641654 8.60656026,20.5580946 8.31448242,21.0882198 C8.15061434,19.8943379 8.37177616,19.3302046 8.1994943,18.8040804 C8.30887325,18.6920539 8.3677696,18.4615995 8.40703384,18.1931361 C8.45831774,18.0034913 8.48516165,17.7750374 8.50799902,17.5377814 C8.51521081,17.2981248 8.5837229,17.0588683 8.65343695,16.8440175 C8.73236608,16.6311673 8.79406702,16.4375216 8.95312724,16.3234946 L8.77203097,16.0526307 L9.01242425,15.7137506 C9.09936649,15.2948517 9.21675854,14.9799774 9.27445293,14.719916 C9.37581876,14.4770586 9.44433085,14.2970161 9.49481344,14.1629844 C9.58816616,13.8905201 9.6390494,13.8177029 9.6823202,13.7564885 C9.72519033,13.6948739 9.77126571,13.6492631 9.90708791,13.4552173 C10.0328937,13.2563704 10.2841047,12.9282929 10.787328,12.3501564 C10.9355705,12.1845173 11.0665848,12.022479 11.1867815,11.8664421 C11.3266102,11.7288096 11.4524161,11.594778 11.5686061,11.463547 C11.787364,11.1854813 12.0325652,10.9986372 12.2308896,10.7885876 C12.4256082,10.5709362 12.6507766,10.438905 12.8539089,10.286069 C12.9588806,10.2156523 13.0590445,10.1388342 13.1716287,10.0844213 C13.2862161,10.0352097 13.4032075,9.98959895 13.5238048,9.9491894 C13.3899859,10.010804 12.9476623,10.0500132 13.3555295,9.79035189 C13.444475,9.87757249 13.7020965,9.6811261 14.0045914,9.52468916 C14.3106922,9.38065515 14.6352231,9.20701415 14.7790584,9.27783087 C14.8920433,9.24582331 15.0683317,9.19621159 15.2614476,9.14219884 C15.4541629,9.08578552 15.6613018,9.01136795 15.8480072,8.98096077 C16.2142063,8.89534055 16.4618114,8.78451438 16.1809519,8.68088991 C16.2522686,8.70729614 16.3916967,8.71649832 16.5467503,8.71809869 C16.7038073,8.73810342 16.8784931,8.76050871 17.0187225,8.77811286 C17.2975787,8.81252099 17.4334009,8.85173025 17.0311428,8.93815066 C17.1457303,8.93534999 17.2599171,8.93214924 17.3712993,8.92934858 C17.4281924,8.9277482 17.4846848,8.92614782 17.5399753,8.92454744 C17.6189044,8.92614782 17.6966315,8.9277482 17.7731567,8.92894848 C18.0784562,8.93254933 18.360117,8.92734811 18.6001096,8.89454036 L17.7435082,8.8121209 C19.9975959,8.76931079 21.2260056,8.99776473 22.6944079,8.73090172 L21.8614451,8.61367403 C23.2088495,8.59486959 24.336294,8.5728644 24.8655598,8.86493337 L23.4816959,8.95455453 C25.7169527,8.94695273 27.0651584,8.9277482 28.9282063,8.77251154 L28.2635189,8.76450965 C30.6366012,8.47284078 43.0533149,8.2319839 45.2404931,7.86669764 L44.2332452,7.64024417 L46.113922,7.4493991 C45.8915582,7.44659844 45.2064374,8.18517285 45.0197319,8.11115537 C46.0269798,8.10475386 48.09316,8.09115065 50.6833976,8.07394658 C51.9783161,8.06594469 53.4046496,8.05714261 54.8950879,8.04794044 C55.6403071,8.0439395 56.4015525,8.03953846 57.170811,8.03553751 C57.5554402,8.03353704 57.9420727,8.03153657 58.3291059,8.0295361 L58.9108577,8.02673543 L59.3547839,8.04914073 C60.5214927,8.08474913 61.6773837,8.30960223 62.7030617,8.73610294 C63.7327462,9.15020073 64.6458401,9.70673215 65.3942645,10.3076741 C66.8766897,11.5467667 67.6355312,12.895085 67.9292116,13.5120307 C68.2978147,14.5706807 67.6888183,13.8457095 67.6559646,13.8597128 C67.8126209,14.1461805 67.9340195,14.3110194 68.0081408,14.423446 C68.0758515,14.5382731 68.1231289,14.5898853 68.1643964,14.6370964 C68.2437262,14.732719 68.3234566,14.804736 68.4917319,15.346864 C68.5185758,15.6609382 68.3214533,15.3292599 68.2196868,15.1848257 C68.3887634,15.6437341 68.4075943,16.1042429 68.5285922,16.1150454 C68.4504644,15.503301 68.7910215,15.6837436 68.8995992,15.3728702 L69.0802948,16.1102443 L69.1804587,16.8632221 L68.9941539,16.8208121 C69.0053722,16.9032315 69.049845,16.9920525 69.1135492,17.1044791 C69.1748495,17.2169056 69.227736,17.3561385 69.2942448,17.5329802 C69.3575484,17.709822 69.4212526,17.9266732 69.4713345,18.1959368 C69.5049896,18.5368173 69.5166086,18.9513152 69.4933706,19.4402306 C69.4164447,22.7482118 69.478947,26.3410602 69.4376795,29.6670456 C69.3307045,29.6154334 69.2678015,28.9168684 69.2056999,28.2167031 C69.2000908,28.6628084 69.2273353,29.342569 69.1508101,29.753466 C69.3391182,28.9500763 69.2762153,31.1493956 69.3555451,30.5212473 C69.7898556,32.9574226 69.3932067,36.1093669 69.6880891,38.2598747 C70.0787282,38.4479191 76.3990682,42.8649621 76.8638286,42.8649621 C76.8554148,43.5327198 76.8470011,44.1964766 76.8089388,44.4005247 C76.9179171,44.2284841 76.9700023,42.9161742 76.9079007,42.2184095 L76.658693,42.0983811 C76.5713501,40.4936022 76.8065349,41.7222923 76.7897073,40.1559224 C76.9932403,40.0723027 77.0369117,41.5138431 77.0565439,42.783743 C77.0801825,41.6402729 77.2284251,40.5020041 77.0056606,40.0362942 C77.0905996,38.9620405 77.2544677,40.1559224 77.3418106,38.8616168 C77.2817122,37.9401992 77.0821858,36.7295133 77.2027831,35.6704632 L77.2388421,35.6892677 C77.4491862,33.1154599 76.9299367,31.7507376 77.1378769,29.3993824 L77.2059884,29.6526422 C77.3237811,28.8212459 77.1655222,27.1844593 77.291328,25.6849052 C77.2500605,26.1126062 77.1026192,26.484294 77.0781793,25.5828811 C77.2067897,23.8584739 77.0781793,22.6821962 77.2372395,21.4218986 L77.0377131,20.2120129 C77.038915,19.8367242 77.040117,19.3922193 77.041319,18.8873 L77.041319,18.497608 C77.0393157,18.3531739 77.0449249,18.2547507 77.0341072,18.0463015 C77.0152764,17.6726132 76.9956442,17.2805206 76.9756115,16.871224 C76.8357827,15.2436396 76.5012354,13.3191852 75.6682727,11.3775267 C74.8577466,9.4346679 73.6213239,7.46860364 71.9682194,5.76620163 C70.3215254,4.06139906 68.2609544,2.62666026 65.9836287,1.67563568 C63.7147167,0.717409409 61.2154279,0.273704633 58.8912256,0.29490964 C57.0994943,0.312113703 55.3762751,0.328917671 53.7916827,0.344121261 C50.6220973,0.371327685 48.0058171,0.393332882 46.4957467,0.406535999 L46.732534,0.374528441 C42.1318073,0.402535055 35.1091182,0.445345164 28.0479662,0.488155273 C24.5177909,0.517762264 20.9775992,0.54776935 17.7254787,0.575375869 C17.5487897,0.572975302 17.2511027,0.591779743 16.999491,0.604982861 C16.7398663,0.620586545 16.4814435,0.63619023 16.2254247,0.651793915 C15.7113837,0.667797694 15.2105644,0.77022188 14.7161555,0.84704002 C14.4693517,0.88904994 14.2245512,0.931059861 13.981754,0.972669686 C13.7425627,1.03508442 13.506176,1.09749916 13.2713919,1.15911371 C12.8042276,1.29194508 12.3366627,1.39356908 11.9035541,1.57401169 C10.1242432,2.17175284 8.62939762,3.07676655 7.39738206,3.97217799 C6.99512396,4.21983647 6.53917804,4.48309864 6.1184898,4.82798008 C5.70381139,5.17886294 5.25267333,5.53174627 4.85642507,5.94384358 C4.46859058,6.36354269 4.05511413,6.76723802 3.71455698,7.20734194 C3.37720508,7.64984644 3.034244,8.06674488 2.75218255,8.47764191 C3.09033576,8.0363377 3.26061434,7.93591399 3.25300188,8.00953137 C3.25700844,8.09155074 3.07711413,8.34120969 2.8587569,8.70969671 C2.03941647,9.97159469 1.75815633,10.7037676 1.58306989,11.0786561 C1.41359263,11.4567454 1.42160574,11.5175598 1.42360901,11.5775739 C1.42681426,11.6375881 1.43082081,11.7012031 1.3094222,12.1048985 C1.24571798,12.3053458 1.15476919,12.5918134 1.02295354,13.0079117 C0.911971979,13.4292112 0.784162884,13.987343 0.612281688,14.7179155 C0.508511921,15.4836963 0.335829414,16.4879335 0.327014994,17.6874167 C0.321806473,17.837052 0.316597952,17.989488 0.310988775,18.1451248 C0.307382876,18.2935598 0.312190741,18.4003851 0.312190741,18.5336165 C0.314194019,18.7884767 0.316597952,19.0517389 0.318200573,19.3230029 C0.320604506,19.8659311 0.323409095,20.4400667 0.326213683,21.0402084 C0.320203851,23.4411754 0.313793363,26.2586407 0.306581565,29.1413214 C0.235264891,36.3450225 0.161544285,43.8732002 0.118273494,48.2094242 C1.74333208,48.2326297 2.9685365,48.2502338 3.87602114,48.2630368 C5.08760328,48.1910198 6.32562868,48.1506103 7.58729275,48.1274048 C8.46192364,48.1174024 9.35979254,48.107 10.2552575,48.0965975 C11.7080342,48.0925966 13.1544005,48.1013987 14.4256803,48.0101771 L14.1700621,48.0781932 C16.9013304,47.9693675 32.3646283,48.2370307 35.5398229,48.1338063 L35.1127241,48.0925966 C37.8812534,47.9129542 37.5042366,48.2294289 39.6858056,48.3278521 C39.3989363,48.0037756 41.7712174,47.8197322 42.6762981,47.7949263 L42.6418417,47.865743 C44.0060736,47.8113302 47.0967299,47.5296637 49.3496156,47.4860534 L49.261872,47.6632952 C51.1409462,47.4728502 54.6735254,47.552069 56.0245357,47.5332645 C59.1131887,47.6068819 63.8757802,47.9157548 68.0057368,47.6812995 L70.6737016,48.1870189 L71.0643407,48.1370071 C71.0643407,48.1370071 75.3609699,42.029965 69.9064464,40.7292578 L69.9937893,40.552016 L68.9148241,40.5752214 C67.6211076,40.4880008 67.022929,40.6932493 67.1106725,40.5164075 L68.8831723,40.5380127 C67.583446,40.4868006 68.4909306,40.3931785 68.9873427,40.2927547 C68.4444546,40.2755507 67.9175926,40.2543457 67.485686,40.1999328 C67.2292665,40.268349 67.6739941,40.2735502 67.8763251,40.3119593 C67.1771813,40.374374 66.2031879,40.5408133 65.351795,40.459194 C64.0204169,40.4423901 65.266856,40.1723263 63.7135148,40.1531218 C55.5213124,40.0162895 47.5831256,39.8106409 39.3031797,39.8510504 C39.1148716,39.777433 39.3392387,39.7798336 39.57843,39.7470259 C37.0835484,39.8234439 34.8667217,39.7958374 32.5950052,39.8750561 C31.9643734,39.7958374 31.7916909,39.6866116 31.6053861,39.6129942 C31.7928929,39.6866116 28.6569626,39.726621 25.4481129,39.743425 C23.8438884,39.7470259 22.2216344,39.7502266 20.9872149,39.7530273 C19.7531961,39.7510268 18.9074124,39.7446253 18.8565291,39.735023" id="Fill-19" fill="#FF6465"></path>
                        <path d="M34.6659933,389.117326 C36.3940203,391.597912 40.0692329,391.597912 41.7976606,389.117326 L51.1517639,375.688955 L25.3114894,375.688955 L34.6659933,389.117326 Z" id="Fill-21" fill="#736357"></path>
                        <path d="M31.76669,391.682772 C31.814368,391.891221 31.9281542,392.142481 32.1192669,392.380937 C32.3099789,392.618993 32.5387531,392.869852 32.7795471,393.095106 C32.5247302,392.615792 32.1925868,392.210897 31.76669,391.682772" id="Fill-23" fill="#827469"></path>
                        <path d="M32.7909825,393.112218 L32.8054778,393.118846 C32.7958143,393.109808 32.7879626,393.102577 32.779507,393.095346 C32.7843388,393.101974 32.7873587,393.106192 32.7909825,393.112218" id="Fill-25" fill="#827469"></path>
                        <path d="M38.3336102,386.436282 C38.2563016,386.335651 38.1687255,386.219955 38.0793375,386.103054 C38.1524182,386.222968 38.2333506,386.341074 38.3336102,386.436282" id="Fill-27" fill="#827469"></path>
                        <g id="Group-31" transform="translate(18.430152, 370.487487)">
                            <mask id="mask-4" fill="white">
                                <use xlink:href="#path-3"></use>
                            </mask>
                            <g id="Clip-30"></g>
                            <path d="M33.5293337,12.2125239 L33.2472723,12.0576873 C34.1142907,10.8045914 33.9055492,11.7528153 34.6455598,10.5525319 C34.5413894,10.3056736 34.8867544,9.83036134 35.2701817,9.34704721 C35.6520064,8.86613365 36.0734959,8.37441754 36.0514599,8.19517521 C36.0935287,8.19797587 36.5122137,7.62063954 36.6856975,7.61983935 C36.4649363,7.50621252 37.0202448,7.03970236 37.1853149,6.69322054 C37.1769011,6.58599522 37.0102284,6.81604954 36.8347413,6.93767826 L37.2750617,6.15429328 C37.6152182,5.80341042 37.8972796,5.65217471 37.6901408,5.99625596 C38.3295869,5.13765321 39.8817262,3.00835039 41.6638417,0.535766516 C37.1704906,0.458548282 31.5549036,0.399334299 29.7122891,0.474552061 C29.9614968,0.659795804 30.9503145,0.534566233 31.0476737,0.826235107 C30.178652,0.989873749 29.9907446,0.769021597 29.5448151,0.941062223 C29.5480203,0.723810921 29.1465635,0.69780478 28.7098491,0.671398544 C28.2711313,0.644592214 27.8011625,0.61738579 27.5996328,0.397733921 L27.2771051,0.643391931 L26.9533755,0.492956407 C25.2153321,0.620586545 25.0390437,0.651793915 24.8916025,0.643792025 C24.8202858,0.640191175 24.7625914,0.626187868 24.5362211,0.609783994 C24.4220342,0.603782577 24.2665799,0.595380593 24.0470207,0.584177948 C23.868729,0.577776436 23.6383521,0.570174641 23.3374599,0.559772185 C22.4568192,0.59778116 22.0381342,0.938661656 21.5485332,0.813031989 C21.6210519,0.815432556 21.8153698,0.966268175 21.5869961,1.02868291 C21.5485332,0.813031989 20.9800031,1.18351948 20.8686209,0.965467986 C20.6454558,0.993074505 19.9214714,0.965067891 20.1662719,1.25993752 C20.0436713,1.11310285 19.3978147,1.05268858 19.7820433,0.924658349 C19.5644873,0.916256365 19.3533419,0.872646067 19.1966856,0.937861467 L19.4763431,1.01988083 C18.740339,1.06309104 18.3392829,0.834637091 17.860099,1.10150011 L18.1317434,1.21872779 C17.6922243,1.23713214 17.3244226,1.25953743 17.1513394,0.967868553 L17.6032788,0.877847295 C17.2382817,0.881448145 16.9458032,0.888249751 16.6685496,0.913455704 C16.5299228,0.926258727 16.3953026,0.943062695 16.2570764,0.967068364 L16.152906,0.985872804 C16.119251,0.993074505 16.0892018,1.00027621 16.0094714,1.007878 C15.8768544,1.02468197 15.7406315,1.04188603 15.5983989,1.05989028 L16.0026602,1.06789217 C15.2786758,1.21352656 13.0918982,1.34675802 11.0545652,1.48919166 C9.00681507,1.63162529 7.11532061,1.78286101 6.7375025,1.96570418 L7.53560819,2.19215766 L6.77035625,2.38300272 C6.87733126,2.38540329 6.37651192,1.64722898 6.57724031,1.72124646 C5.65853732,1.73164891 3.1404177,1.76045571 0.347849078,1.79246327 C2.69488882,5.09364281 5.27190479,8.75210672 5.86006702,9.7535432 C6.18940582,10.4457067 5.50909283,9.87917287 5.45420303,9.86316909 C6.16777042,10.739376 6.00470365,10.2328564 6.49109938,10.9646292 C6.58325014,11.1690775 6.26032183,10.9450246 6.14212847,10.8317978 C6.39974994,11.1546741 6.52435379,11.4707487 6.65857337,11.4779504 C6.4666594,11.0590515 6.90137058,11.1910827 6.993922,11.0034384 L7.59049799,11.9028507 L7.37494535,11.904051 C7.51717804,12.1181016 8.23314936,12.2869414 8.72835952,13.1643486 C8.96234232,13.5336358 9.21114936,13.9097246 9.46756886,14.2874138 C9.64465858,14.5450747 9.82375158,14.8051361 10.0024439,15.0659977 C10.3257729,15.5285069 10.6527077,15.9886156 10.9467889,16.4463236 C10.8494296,16.4931347 10.6671313,16.341899 10.4852338,16.1898631 C10.5641629,16.3126921 10.7136074,16.4791314 10.7272297,16.6327677 C10.7320375,16.3102915 11.0906242,16.9352391 11.038539,16.7215886 C11.8498663,17.1268843 12.1126963,18.1975372 12.7557483,18.6056335 C13.111931,18.4331928 19.1249683,16.0122211 19.5059916,15.7473586 C19.6237843,15.9310019 19.7407757,16.1138451 19.7479875,16.1902632 C19.8052813,16.0818376 19.6029503,15.7005475 19.4214533,15.5493118 L19.1946823,15.6589377 C18.8232747,15.2788479 19.2459662,15.473694 18.9394648,15.0635971 C19.0913132,14.9251644 19.396212,15.2868498 19.6490256,15.6157275 C19.4551084,15.296052 19.3645603,14.9059599 19.0949191,14.9087606 C18.9639048,14.5722811 19.3212895,14.7987346 19.1510109,14.4022409 C18.9302497,14.1893907 18.540412,13.978941 18.4418507,13.6264578 L18.4747045,13.6108541 C18.1666004,12.8014629 17.4858868,12.7318465 17.2178483,11.9832697 L17.3208167,12.0120765 C17.262321,11.722008 16.8272092,11.3739258 16.6501195,10.9006141 C16.6961948,11.0382466 16.6445103,11.22229 16.4566029,10.9946363 C16.3484259,10.7269731 16.2130043,10.5325272 16.0916057,10.3516844 C16.0615566,10.3060737 16.0323087,10.2616632 16.0038622,10.2176528 L15.9629953,10.1504369 C15.9489724,10.1272314 15.9337475,10.1008252 15.9417606,10.1064265 C15.949373,10.0964242 15.9657999,10.0816207 15.9986537,10.0596155 C15.9397573,10.0912229 15.8776557,10.1184294 15.8123489,10.1412348 C15.7995279,10.0980245 15.7258073,10.0420113 15.5971969,9.93238543 C15.4705898,9.82676049 15.281881,9.65792062 15.1140064,9.49708264 C15.2269912,9.46227442 15.3111289,9.4346679 15.3648167,9.42626592 L15.3956672,9.45787338 C15.4501563,9.43306753 15.547115,9.41546337 15.6681129,9.39825931 C15.807541,9.38145534 15.9593894,9.3626509 16.1124398,9.34424655 C18.4174107,9.30143644 20.7344013,9.23662114 22.2865406,9.09938873 C22.5269339,9.19741188 22.8122006,9.23502076 23.1006725,9.25462539 C23.2405013,9.26182709 23.3807307,9.26942888 23.5169535,9.27663058 C23.5381883,9.2830321 23.5578204,9.2902338 23.5750486,9.30383701 C23.5397909,9.22221774 23.5562178,9.08338495 23.6002899,9.09138684 C23.8951723,9.11379213 23.6271338,8.95575481 24.0089585,8.87173497 C24.3342907,8.75170663 25.2389707,8.80091825 25.6412288,8.89614074 C25.3655779,9.20541377 25.1259859,9.44106942 24.978144,9.55349596 C25.1548331,9.55349596 25.1111617,9.64631788 25.0562719,9.73313838 C24.9985775,9.82355974 24.9288634,9.90757958 24.9833526,9.98919885 L24.9108339,9.97439535 C24.918847,10.0584152 24.6576197,10.3632872 24.4296467,10.6201478 C23.9981408,11.2086868 23.5642309,11.8012267 23.2008364,12.2969438 C22.8322333,12.8106651 22.5433608,13.2299641 22.4167536,13.4572178 L22.5301391,13.3667964 C22.1615361,14.2097955 21.9716254,13.9285291 21.4844283,14.4558536 C21.8041514,14.5642792 21.5136762,15.304454 21.365033,15.5605145 L21.3133485,15.5109027 C21.2083767,15.7089495 21.0697499,16.0550312 20.9094877,16.4299198 C20.8373698,16.6055612 20.7107626,16.8640223 20.7311961,16.8720242 C20.7211797,16.9400402 20.7075574,17.0096567 20.6710977,17.0460653 L20.5509011,16.9152344 C20.580149,17.1724951 20.2492075,17.2729188 20.1386266,17.3045263 C19.9923874,17.307327 19.8036787,17.2345098 19.6510289,17.1524904 C19.4919687,17.0696708 19.3809871,17.0032552 19.1894738,17.0116571 C19.2159171,16.918035 19.2383538,16.8448177 19.2768167,16.7623983 C19.3176836,16.676378 19.3617557,16.6007601 19.4062284,16.5355447 C19.3873976,16.5463473 19.372974,16.5499481 19.3577491,16.5543491 C19.3577491,16.5543491 19.0668732,16.7964063 18.5780736,17.1348862 C18.0916778,17.4761668 17.3953386,17.8974663 16.6633411,18.3327691 C15.938956,18.7692722 15.1861244,19.2465849 14.6608651,19.8051168 C14.4048462,20.0915844 14.2121309,20.4088594 14.1231854,20.7649434 C14.0787127,20.9425854 14.0602825,21.1302297 14.0727028,21.3250757 C14.0943382,21.5147205 14.1484267,21.7123672 14.2397762,21.9144149 L14.0779113,22.004036 C14.2449847,22.1504706 14.400439,22.3069076 14.5835385,22.4349378 C14.8708085,22.7170044 15.1264267,22.8698405 15.2894935,22.9578613 C15.4573681,23.0402807 15.5286848,23.0734886 15.4585701,23.1351031 C15.1408503,22.9490592 14.8631961,22.7030011 14.5751248,22.4757474 C15.1845218,23.0098736 14.6825004,22.7466114 14.3667839,22.6233823 C14.6276106,22.8526364 14.8840301,23.075089 15.0843579,23.2775368 C15.2610469,23.3087441 15.021455,23.1527073 14.9425258,23.0402807 C15.1368438,23.1531074 15.400475,23.2347267 15.6568945,23.3411518 C15.9129134,23.4491773 16.1725381,23.5612037 16.4021137,23.6996364 C16.7807331,23.8732774 16.7695148,23.9412935 16.7719187,24.0217125 C16.7759253,24.0985306 16.7907495,24.1985542 17.2691322,24.3517904 C19.7712256,25.1983904 22.6274984,24.8615108 24.8867946,23.3407517 C25.1604423,23.1451055 25.4425037,22.9522599 25.693314,22.7290072 C25.9421211,22.5033539 26.1921301,22.2732996 26.421305,22.0288419 C26.6396623,21.7787828 26.851609,21.5203218 27.0559433,21.2562595 L27.3676533,20.83496 C27.7606963,20.2992335 28.1465275,19.7543048 28.5243456,19.1945726 C28.6197016,19.1861706 28.5760301,19.2445844 28.5584013,19.327404 C28.9606594,18.616036 29.3965725,18.0390998 29.7547585,17.3857455 C29.9374574,17.2621163 30.0592567,17.2785202 30.1546127,17.2705183 C30.0592567,17.2789202 30.6109593,16.4167166 31.1951149,15.5485116 C31.7468175,14.7507232 32.3041293,13.9441328 32.7288241,13.3299877 C33.1831674,12.6814346 33.5000859,12.2373297 33.5293337,12.2125239" id="Fill-29" fill="#827469" mask="url(#mask-4)"></path>
                        </g>
                        <polygon id="Fill-32" fill="#FCE3CE" points="3.93287415 345.000068 25.3114493 375.689315 51.1517238 375.689315 72.5306996 345.000068"></polygon>
                        <path d="M1.10833322,347.709508 C1.24856264,348.248435 1.74858066,348.999013 2.20973511,349.717982 C1.98616936,349.07303 1.65282401,348.453684 1.10833322,347.709508" id="Fill-34" fill="#FCE6D3"></path>
                        <path d="M2.21927848,349.741926 C2.22290232,349.745541 2.23015,349.75217 2.23377384,349.755785 C2.22471424,349.741323 2.21746656,349.729874 2.20961491,349.717822 C2.21384272,349.727464 2.21625862,349.734695 2.21927848,349.741926" id="Fill-36" fill="#FCE6D3"></path>
                        <path d="M4.56594986,349.539273 C4.77909857,349.533849 5.02269709,349.527221 5.2691002,349.521195 C5.03351479,349.512759 4.79392282,349.511554 4.56594986,349.539273" id="Fill-38" fill="#FCE6D3"></path>
                        <path d="M32.1689081,380.354737 L32.2991211,380.035062 C34.3264378,380.03026 32.8892866,380.400748 34.7635529,380.321929 C35.4967524,379.869422 37.8762452,380.36874 38.5241051,380.128284 C38.5092809,380.164292 39.4267819,380.177895 39.3690875,380.319529 C39.649947,380.073871 40.3126311,380.262715 40.8915783,380.1999 C41.1011211,380.131484 40.7377266,380.126283 40.5806696,380.052266 L41.9064386,379.965445 C42.4248868,380.044664 42.5526959,380.189098 41.9889736,380.215904 C42.7017397,380.229507 43.9710162,380.253913 45.5728368,380.28432 C46.3737471,380.296723 47.257593,380.310327 48.1971301,380.32433 C49.9135381,380.337133 51.7309113,380.350336 53.5979658,380.363939 C55.7434759,377.331623 58.0488474,374.072854 60.0212743,371.284995 C61.5549834,369.105681 62.8166475,367.285651 63.4144255,366.364633 C62.9881281,366.651901 62.4332202,367.668141 61.9432186,367.860187 C62.3723206,366.958374 62.8198528,366.701913 62.9272284,366.247406 C63.4997651,366.184591 64.2505934,364.529 65.0386827,364.167715 L64.9982165,363.795227 L65.4016766,363.479152 C67.6697872,359.775477 65.8656356,362.594943 68.1101076,359.474606 C69.3505369,357.62777 69.6742665,356.56592 70.4851932,355.622097 C70.3778175,355.771332 69.9735562,356.087807 70.251611,355.579287 C70.3097061,355.590089 70.3858306,355.51127 70.4727729,355.385241 C70.515643,355.322426 70.5613177,355.247608 70.6089957,355.165989 C70.6326344,355.125579 70.6566737,355.083169 70.681915,355.040359 C70.7099609,354.991548 70.7187753,354.971143 70.7804763,354.87352 C71.1851383,354.225767 71.6030219,353.558809 71.8570375,353.385168 C72.4403919,352.500159 74.4280437,349.695897 73.4248024,350.618915 C73.9087942,350.181612 75.7373857,347.662617 74.8611522,349.144567 C75.4645394,348.292766 76.1063894,347.448166 76.4409367,346.854026 L75.5663058,347.965089 C76.5286803,346.546353 77.3632456,345.42969 78.0792169,344.433855 C78.791983,343.442821 79.3841518,342.576216 79.7804001,341.773626 L78.8452702,342.910295 C79.3128351,342.225333 79.7443411,341.591583 80.1594201,341.019448 C79.2178798,341.000244 78.5539937,340.937029 78.3564705,340.766189 L80.6754644,340.676167 C77.1653218,340.683769 74.9841534,340.702974 71.9596053,340.85821 L72.9732637,340.866212 C71.9824427,340.939029 70.0584951,341.009046 67.7282829,341.078262 C66.5776004,341.11027 65.3103272,341.145478 63.9853595,341.182287 C63.2016774,341.199491 62.9873267,341.217095 62.5810621,341.234699 C62.2060486,341.252303 61.8262272,341.269908 61.4472071,341.287512 C58.4154472,341.429945 55.4025181,341.581181 54.4998413,341.764024 L55.331602,341.990478 L53.7790621,342.181323 C53.9625623,342.184123 54.5282878,341.445549 54.6817389,341.519566 C51.3562985,341.540371 34.056396,341.716413 30.9849712,341.563577 C29.7457438,341.437947 30.7618061,341.203892 30.775829,341.168284 C29.2681625,341.252703 30.1251645,341.40834 28.843067,341.388736 C28.4928941,341.347926 28.9155857,341.211494 29.1123075,341.178686 C28.5505885,341.205492 28.0293358,341.127074 27.9864656,341.233099 C28.6888147,341.315118 28.3915283,341.596385 28.6888147,341.778828 L27.0397168,341.754422 L27.1130367,341.57718 C26.745235,341.571579 26.1803108,342.062495 24.5600601,341.966872 C21.8263878,341.890054 18.8571301,341.952469 16.1086336,341.911259 C16.1511031,341.804834 16.7284476,341.742019 17.3069941,341.679604 C16.9383911,341.674003 16.3766721,341.701209 16.0373169,341.624791 C16.701203,341.812836 14.8834292,341.750021 15.4026787,341.82924 C13.3893849,342.262942 10.7847237,341.866848 9.00741606,342.161318 C8.85236239,342.55141 5.20199041,348.863301 5.20199041,349.32701 C4.64988718,349.318608 4.10098918,349.310206 3.93271389,349.272197 C4.07494658,349.381023 5.15952093,349.433035 5.73606415,349.37062 L5.83542671,349.122162 C7.16159631,349.034941 6.14633535,349.269797 7.44045252,349.252993 C7.50976591,349.456241 6.31821655,349.499851 5.26889988,349.519456 C6.21404613,349.543061 7.15438451,349.691496 7.53941442,349.468644 C8.42726694,349.553464 7.44045252,349.717102 8.51020262,349.804323 C9.27184867,349.744309 10.2722854,349.545462 11.1473169,349.66549 L11.1316914,349.701499 C13.2587712,349.911548 14.3862157,349.393026 16.3297954,349.600675 L16.1202526,349.668691 C16.8073767,349.786319 18.1599896,349.628281 19.399217,349.753911 C19.0458388,349.712701 18.7385361,349.565466 19.4837553,349.541461 C20.9088868,349.669491 21.8808769,349.541461 22.9225812,349.699898 L23.9222165,349.500651 C28.8835332,349.53946 48.4799929,349.256193 53.4637462,349.224586 L53.268627,349.256193 C55.5952333,349.237389 58.6722673,349.212583 62.036972,349.185377 C62.4576602,349.182976 62.882355,349.180576 63.311457,349.177775 L63.4933546,349.169773 C63.6123493,349.164172 63.7333472,349.15817 63.8551465,349.152569 C64.1223837,349.138166 64.3920248,349.123762 64.6548548,349.109759 C64.5090162,349.356617 64.3623763,349.613478 64.217339,349.881141 C64.1804787,349.950757 64.1444197,350.018373 64.1095627,350.084389 L64.0554742,350.187613 L64.029031,350.239226 L64.0154087,350.265632 L64.0089982,350.278835 L63.9661281,350.34325 C63.4781297,351.089026 63.0229851,351.784791 62.6071047,352.420541 C61.7529072,353.303549 60.8346049,354.702279 60.0665484,355.708517 C60.5357159,355.177992 60.5124779,355.455257 60.1915529,355.901363 C57.9695176,359.051306 60.1546926,356.192231 57.9951596,359.438998 C57.228305,360.640882 55.6990031,362.869008 53.8916463,365.451218 C52.983761,366.738722 52.0109695,368.118648 51.0337708,369.504975 C50.5473751,370.188336 50.0597774,370.873298 49.5785902,371.549858 C49.4583935,371.704294 49.3393988,371.85673 49.2240101,372.004765 C49.1138298,371.998364 49.0048515,371.991562 48.8990785,371.985161 L48.7460281,371.974758 L48.6719068,371.969557 L48.6270334,371.967156 L48.4671719,371.964356 C47.6177823,371.948352 46.8192759,371.933148 46.0924869,371.919545 C44.6389089,371.889138 43.4697962,371.85713 42.7414046,371.826723 C40.5986991,372.115591 37.9243239,371.89714 35.8252899,372.079583 L36.0364353,372.011567 C35.3705459,372.043975 33.7883575,372.043174 31.8231424,372.028771 C30.8407352,372.019569 29.7621707,372.009966 28.6547589,371.999564 C28.379108,371.996363 28.1022551,371.993563 27.8237995,371.990762 L27.6322862,371.98196 C27.5076823,371.975958 27.3830785,371.969957 27.2604779,371.964356 C27.1679265,371.818721 27.0769777,371.676688 26.9912374,371.542656 C26.6366573,371.026534 26.3025107,370.540019 25.9996152,370.098715 C25.3112891,369.10448 24.7579839,368.319895 24.4342542,367.892594 L24.6013276,368.204668 C23.1489515,366.43465 23.5868679,366.509067 22.640119,364.976706 C22.5083034,365.355995 21.2390269,363.856441 20.792296,363.2583 L20.8668179,363.241096 C20.1788925,362.349285 18.490931,360.419229 17.3935357,358.920075 L17.5810424,358.878066 C16.5385369,357.715791 14.9387196,355.280416 14.2868532,354.377403 C12.8917708,352.246099 10.9009138,348.847697 8.76221491,346.187869 L7.92043777,344.094174 L7.6952694,343.858519 C7.6952694,343.858519 0.65014363,344.439056 2.15139967,348.872103 L1.96469422,348.914113 L2.49195682,349.630682 C3.02963646,350.5561 3.48037386,350.843368 3.29406907,350.884978 L2.47633126,349.673492 C3.04646399,350.582107 2.54203875,350.021574 2.22592159,349.743108 C2.46751684,350.120397 2.69789373,350.488884 2.85735461,350.812161 C3.03364301,350.946593 2.82890807,350.642921 2.76480319,350.484083 C3.1462272,350.921387 3.74160123,351.48512 4.07574789,352.107667 C4.68955207,353.017882 3.88022802,352.328919 4.5966,353.39077 C8.34433126,359.010897 11.9165754,364.498193 15.8514128,370.07671 C15.8798593,370.24595 15.7764902,370.092714 15.6362608,369.94988 C16.8750875,371.593868 17.8971596,373.109426 19.0326172,374.600978 C19.2649974,375.07309 19.256183,375.251932 19.2838282,375.419972 C19.2726098,375.351155 19.5190129,375.662029 19.9188671,376.201356 C20.6644869,377.252404 21.7158069,378.733154 22.8688933,380.357938 C25.1786721,380.350736 27.7817307,380.342734 29.8266762,380.336333 C31.1544484,380.336733 32.1192268,380.343534 32.1689081,380.354737" id="Fill-40" fill="#FCE6D3"></path>
                        <path d="M17.2951789,60.8202821 C17.0765407,61.6672821 17.0554016,63.1284272 17.0191632,64.5115538 C17.2287419,63.4465023 17.3193379,62.314635 17.2951789,60.8202821" id="Fill-42" fill="#F89E36"></path>
                        <path d="M17.015998,64.5523292 C17.017206,64.5601628 17.01781,64.5758299 17.0190179,64.5848686 C17.0190179,64.5559447 17.0196219,64.535457 17.0208298,64.5113537 C17.0184139,64.5276234 17.01781,64.5402776 17.015998,64.5523292" id="Fill-44" fill="#F89E36"></path>
                        <path d="M23.5121594,332.901331 C23.5079315,332.55605 23.5037037,332.161957 23.498872,331.762662 C23.4922282,332.143953 23.4916243,332.532044 23.5121594,332.901331" id="Fill-46" fill="#F89E36"></path>
                        <path d="M16.5989157,131.534261 L16.839309,131.74511 C16.8425142,135.026685 16.5644593,132.700536 16.6237563,135.734452 C16.9635122,136.921133 16.5884986,140.773642 16.7691943,141.82229 C16.7419497,141.798684 16.7319333,143.284235 16.6253589,143.190213 C16.8096605,143.64512 16.6682291,144.718174 16.7155064,145.654795 C16.7667903,145.994475 16.7707969,145.405936 16.8260873,145.151876 L16.8909935,147.297983 C16.8320972,148.137381 16.7235195,148.34423 16.7034868,147.432015 C16.6373786,153.040539 16.4602889,179.969298 16.5528403,186.011925 C16.6918678,185.234941 16.5977137,183.370101 16.8168723,182.661134 C16.9398735,184.258311 16.7740021,185.012889 16.9030132,185.717055 C16.5768796,186.3304 16.8248854,189.227484 16.4947453,190.43737 L16.6794474,190.895478 L16.5664626,191.689266 C16.7583766,198.714524 16.660216,193.294445 16.6169452,199.522315 C16.6449911,203.126766 16.9014106,204.839571 16.8072565,206.845244 C16.8088592,206.547174 16.9222447,205.752186 16.9691213,206.686007 C16.8072565,206.845244 17.0853114,209.171794 16.921844,209.626701 C16.9418768,210.540917 16.9214433,213.504017 17.1426052,212.50138 C17.0324249,213.004299 16.9871508,215.647723 16.8909935,214.074151 C16.884583,214.965962 16.8517293,215.829766 16.9006093,216.471518 L16.9623102,215.326847 C16.9947633,218.338358 16.8232828,219.979946 17.0236105,221.941209 L17.1117547,220.828546 C17.125377,222.629372 17.1422045,224.134927 16.9234466,224.842294 L16.8557358,222.993458 C16.861345,225.979763 16.875368,227.780988 16.9923594,230.269576 L16.9983692,229.381366 C17.2175277,232.552115 17.3982233,249.140832 17.6726723,252.062322 L17.8425503,250.716804 L17.9859849,253.229398 C17.9883889,252.932127 17.433481,252.017111 17.4891721,251.767852 C17.5047977,257.151924 17.637014,285.158537 17.5224265,290.131312 C17.4278719,292.137785 17.2519841,290.492197 17.2247395,290.469391 C17.2888444,292.911168 17.4058358,291.52284 17.3910115,293.59853 C17.3601611,294.165064 17.2575933,293.481303 17.2331533,293.162427 C17.2535867,294.072242 17.1942897,294.916042 17.2740202,294.985658 C17.3357211,293.847789 17.5464659,294.329503 17.6838907,293.847789 L17.6654605,296.51802 L17.5320423,296.399592 C17.5280357,296.995333 17.8966388,297.909548 17.8253221,300.532568 C17.767227,304.958013 17.8141037,309.764748 17.7832533,314.214599 C17.7035228,314.145382 17.6562455,313.211162 17.6089681,312.274541 C17.6049616,312.871482 17.6257957,313.780496 17.5681013,314.330226 C17.709132,313.255172 17.6618546,316.197467 17.7215523,315.357269 C18.0472852,318.616838 17.7499989,322.833834 17.9711607,325.710913 C18.2640398,325.962173 23.0041947,331.871568 23.3527649,331.871568 C23.3467551,332.764979 23.3403446,333.653189 23.3114974,333.926453 C23.3936318,333.695999 23.432896,331.939984 23.3856187,331.006564 L23.1993139,330.846126 C23.1336064,328.698819 23.3098948,330.342807 23.2974745,328.247112 C23.4501242,328.135486 23.482978,330.063941 23.4974016,331.762742 C23.515431,330.233581 23.6264126,328.710022 23.4593393,328.087475 C23.5226428,326.649935 23.6460447,328.247112 23.7113516,326.515904 C23.6664782,325.282812 23.5170337,323.66323 23.6071812,322.246495 L23.6344257,322.271701 C23.7918833,318.828088 23.4024462,317.002457 23.5583012,313.856514 L23.6095851,314.195394 C23.6981299,313.083131 23.5791353,310.893414 23.6732893,308.887341 C23.6424388,309.459476 23.5322586,309.956793 23.5138284,308.750508 C23.6099857,306.443564 23.5138284,304.869992 23.6328231,303.183594 L23.4833786,301.565212 C23.5126265,293.533315 23.2998784,261.808223 23.2758391,253.739918 L23.2998784,254.055993 C23.2249558,241.76309 23.2365748,216.527931 23.0306379,203.822931 C23.1776785,201.858067 23.1428215,199.147427 23.1844896,197.097743 C23.1227887,198.237612 23.0182176,197.84712 23.0242274,196.95731 C23.0414556,190.710634 22.922461,196.53561 22.859558,190.218518 C22.7225339,182.944401 22.8787895,155.106627 23.003794,148.649502 C22.7870394,145.181083 22.9509075,140.851261 22.8138833,137.453258 L22.8651672,137.795339 C22.7834335,134.146077 22.9845626,113.487599 22.9068354,109.245797 L22.8759849,109.815532 C22.740964,106.117058 22.9785527,106.620777 23.0522733,103.706489 C22.8090755,104.08938 22.6708493,100.920231 22.6524192,99.7111458 L22.7057063,99.7571567 C22.6648395,97.9343262 22.4528927,93.8053512 22.4204397,90.7950404 L22.5534573,90.9130682 C22.4104233,88.4024754 22.4697203,83.6825608 22.456098,81.8781347 C22.5113884,77.7519604 22.7429673,71.3884577 22.5670796,65.8711548 L22.9469009,62.3067131 L22.9092393,61.7849899 C22.9092393,61.7849899 18.3225355,56.0448344 17.3457375,63.3317552 L17.2127199,63.2157278 L17.2299481,64.656468 C17.1642406,66.3848761 17.3188936,67.184665 17.1858759,67.0670372 L17.2023028,64.698878 C17.1634392,66.4356881 17.0929239,65.2230018 17.0180013,64.5600452 C17.0051803,65.2854165 16.9891541,65.9887826 16.9482873,66.5661189 C16.9991705,66.9085998 17.0035777,66.3148596 17.0324249,66.0443957 C17.0789009,66.9786163 17.2043061,68.2793235 17.1426052,69.4171922 C17.1301848,71.1956121 16.9274532,69.5304189 16.9130296,71.605709 C16.8100611,82.5506935 16.6562094,93.1555978 16.6858579,104.21781 C16.6305675,104.469069 16.6325707,104.169399 16.6077301,103.850123 C16.6654245,107.18291 16.6445904,110.14481 16.7042881,113.179526 C16.6445904,114.022125 16.562456,114.25258 16.5071656,114.501838 C16.6177465,114.00092 16.6277629,131.260596 16.5989157,131.534261" id="Fill-48" fill="#F89E36"></path>
                        <path d="M36.5430683,60.8202821 C36.325034,61.6672821 36.303895,63.1284272 36.2670526,64.5115538 C36.4766313,63.4465023 36.5672273,62.314635 36.5430683,60.8202821" id="Fill-50" fill="#F89E36"></path>
                        <path d="M36.2638874,64.5523292 C36.2650954,64.5601628 36.2656993,64.5758299 36.2669073,64.5848686 C36.2669073,64.5559447 36.2681152,64.535457 36.2687192,64.5113537 C36.2663033,64.5276234 36.2656993,64.5402776 36.2638874,64.5523292" id="Fill-52" fill="#F89E36"></path>
                        <path d="M42.7605928,332.901331 C42.756365,332.55605 42.7515332,332.161957 42.7473054,331.762662 C42.7400577,332.143953 42.7394537,332.532044 42.7605928,332.901331" id="Fill-54" fill="#F89E36"></path>
                        <path d="M35.8472057,131.534261 L36.0871984,131.74511 C36.0904036,135.026685 35.8123487,132.700536 35.8720464,135.734452 C36.2114016,136.921133 35.8367887,140.773642 36.0170836,141.82229 C35.9898391,141.798684 35.9798227,143.284235 35.8732483,143.190213 C36.0579505,143.64512 35.9165191,144.718174 35.9633958,145.654795 C36.0146797,145.994475 36.0186863,145.405936 36.0739767,145.151876 L36.1392836,147.297983 C36.0799866,148.137381 35.9718096,148.34423 35.9513762,147.432015 C35.885268,153.040539 35.7085789,179.969298 35.8007297,186.011925 C35.9397571,185.234941 35.8460038,183.370101 36.0647616,182.661134 C36.1877629,184.258311 36.0222922,185.012889 36.1513032,185.717055 C35.8251697,186.3304 36.0727748,189.227484 35.7430353,190.43737 L35.9273368,190.895478 L35.8147526,191.689266 C36.0066666,198.714524 35.9081054,193.294445 35.8648346,199.522315 C35.8932811,203.126766 36.1493,204.839571 36.0551459,206.845244 C36.0567485,206.547174 36.170134,205.752186 36.2170107,206.686007 C36.0551459,206.845244 36.3336015,209.171794 36.1697334,209.626701 C36.1897662,210.540917 36.1693327,213.504017 36.3904945,212.50138 C36.2803143,213.004299 36.2350402,215.647723 36.1392836,214.074151 C36.1324724,214.965962 36.1000193,215.829766 36.1488993,216.471518 L36.2106002,215.326847 C36.2426527,218.338358 36.0711721,219.979946 36.2719005,221.941209 L36.3596441,220.828546 C36.373667,222.629372 36.3900939,224.134927 36.171336,224.842294 L36.1040259,222.993458 C36.1092344,225.979763 36.123658,227.780988 36.2402487,230.269576 L36.2462586,229.381366 C36.4654171,232.552115 36.6465134,249.140832 36.9209624,252.062322 L37.0908403,250.716804 L37.234275,253.229398 C37.2362782,252.932127 36.6813704,252.017111 36.7370615,251.767852 C36.7530877,257.151924 36.8849034,285.158537 36.7703159,290.131312 C36.6757612,292.137785 36.4998735,290.492197 36.4730296,290.469391 C36.5367338,292.911168 36.6537252,291.52284 36.6393016,293.59853 C36.6080505,294.165064 36.5058833,293.481303 36.4810427,293.162427 C36.5014761,294.072242 36.4421791,294.916042 36.5223102,294.985658 C36.5836105,293.847789 36.7947559,294.329503 36.9317801,293.847789 L36.9133499,296.51802 L36.7803323,296.399592 C36.7759251,296.995333 37.1445281,297.909548 37.0732115,300.532568 C37.0155171,304.958013 37.0619931,309.764748 37.0311426,314.214599 C36.9514122,314.145382 36.9041349,313.211162 36.8572582,312.274541 C36.8532516,312.871482 36.873685,313.780496 36.8159907,314.330226 C36.957422,313.255172 36.9101447,316.197467 36.9698424,315.357269 C37.2955753,318.616838 36.9978882,322.833834 37.2190501,325.710913 C37.5119292,325.962173 42.2524847,331.871568 42.6006543,331.871568 C42.5946445,332.764979 42.588234,333.653189 42.5597875,333.926453 C42.6415212,333.695999 42.6807854,331.939984 42.6335081,331.006564 L42.4472033,330.846126 C42.3818964,328.698819 42.5577842,330.342807 42.5453639,328.247112 C42.6980136,328.135486 42.7308673,330.063941 42.7456916,331.762742 C42.7633204,330.233581 42.8747027,328.710022 42.7072287,328.087475 C42.7709329,326.649935 42.8939341,328.247112 42.959241,326.515904 C42.9143675,325.282812 42.7649231,323.66323 42.8550705,322.246495 L42.8823151,322.271701 C43.0397727,318.828088 42.6503356,317.002457 42.8065912,313.856514 L42.8574745,314.195394 C42.9460193,313.083131 42.8270247,310.893414 42.9211787,308.887341 C42.8907289,309.459476 42.780148,309.956793 42.7621185,308.750508 C42.8582758,306.443564 42.7621185,304.869992 42.8811131,303.183594 L42.731268,301.565212 C42.7605158,293.533315 42.5477678,261.808223 42.5237285,253.739918 L42.5477678,254.055993 C42.4728452,241.76309 42.4844642,216.527931 42.2785273,203.822931 C42.4255679,201.858067 42.3911115,199.147427 42.432379,197.097743 C42.3706781,198.237612 42.266107,197.84712 42.2725175,196.95731 C42.289345,190.710634 42.170751,196.53561 42.1078481,190.218518 C41.9708239,182.944401 42.1266789,155.106627 42.2520841,148.649502 C42.0349288,145.181083 42.1991975,140.851261 42.0621734,137.453258 L42.1134573,137.795339 C42.0317235,134.146077 42.2328526,113.487599 42.1551254,109.245797 L42.1238743,109.815532 C41.9892541,106.117058 42.2268428,106.620777 42.3005634,103.706489 C42.0569648,104.08938 41.9187387,100.920231 41.9003086,99.7111458 L41.9535957,99.7571567 C41.9127289,97.9343262 41.7011828,93.8053512 41.668329,90.7950404 L41.8017473,90.9130682 C41.6587133,88.4024754 41.7180103,83.6825608 41.7039874,81.8781347 C41.7592778,77.7519604 41.9912573,71.3884577 41.8153696,65.8711548 L42.195191,62.3067131 L42.1571287,61.7849899 C42.1571287,61.7849899 37.5708256,56.0448344 36.5936269,63.3317552 L36.4606093,63.2157278 L36.4778374,64.656468 C36.4125306,66.3848761 36.566783,67.184665 36.434166,67.0670372 L36.4501922,64.698878 C36.4117293,66.4356881 36.3408133,65.2230018 36.2658907,64.5600452 C36.2530697,65.2854165 36.2370435,65.9887826 36.1961766,66.5661189 C36.2474605,66.9085998 36.2514671,66.3148596 36.2803143,66.0443957 C36.327191,66.9786163 36.4521955,68.2793235 36.3904945,69.4171922 C36.3780742,71.1956121 36.1753426,69.5304189 36.160919,71.605709 C36.0579505,82.5506935 35.9040988,93.1555978 35.934148,104.21781 C35.8788575,104.469069 35.8808608,104.169399 35.8556195,103.850123 C35.9133139,107.18291 35.8924798,110.14481 35.9521775,113.179526 C35.8924798,114.022125 35.8107461,114.25258 35.7554556,114.501838 C35.8660365,114.00092 35.8756523,131.260596 35.8472057,131.534261" id="Fill-56" fill="#F89E36"></path>
                        <path d="M55.7909577,60.8202821 C55.5729234,61.6672821 55.5517843,63.1284272 55.514942,64.5115538 C55.7251246,63.4465023 55.8157206,62.314635 55.7909577,60.8202821" id="Fill-58" fill="#F89E36"></path>
                        <path d="M55.5117768,64.5523292 C55.5129848,64.5601628 55.5141927,64.5758299 55.5147967,64.5848686 C55.5154006,64.5559447 55.5160046,64.535457 55.5166086,64.5113537 C55.5147967,64.5276234 55.5141927,64.5402776 55.5117768,64.5523292" id="Fill-60" fill="#F89E36"></path>
                        <path d="M62.0083388,332.901331 C62.004111,332.55605 61.9998832,332.161957 61.9950514,331.762662 C61.9884077,332.143953 61.9878037,332.532044 62.0083388,332.901331" id="Fill-62" fill="#F89E36"></path>
                        <path d="M55.0950951,131.534261 L55.3354884,131.74511 C55.3386936,135.026685 55.0606387,132.700536 55.1199358,135.734452 C55.4592909,136.921133 55.0846781,140.773642 55.2653737,141.82229 C55.2381291,141.798684 55.2277121,143.284235 55.1215384,143.190213 C55.3058399,143.64512 55.1644085,144.718174 55.2112852,145.654795 C55.2629698,145.994475 55.2669763,145.405936 55.3222668,145.151876 L55.387173,147.297983 C55.3278759,148.137381 55.219699,148.34423 55.1996662,147.432015 C55.133558,153.040539 54.9564683,179.969298 55.0486191,186.011925 C55.1880472,185.234941 55.0938931,183.370101 55.3130517,182.661134 C55.4360529,184.258311 55.2701816,185.012889 55.3991926,185.717055 C55.0730591,186.3304 55.3210648,189.227484 54.9909247,190.43737 L55.1756269,190.895478 L55.062642,191.689266 C55.254556,198.714524 55.1563954,193.294445 55.1131246,199.522315 C55.1411705,203.126766 55.39759,204.839571 55.303436,206.845244 C55.3046379,206.547174 55.4180234,205.752186 55.4653008,206.686007 C55.303436,206.845244 55.5814909,209.171794 55.4180234,209.626701 C55.4380562,210.540917 55.4176228,213.504017 55.6387846,212.50138 C55.5282037,213.004299 55.4829296,215.647723 55.387173,214.074151 C55.3803618,214.965962 55.3479087,215.829766 55.3967887,216.471518 L55.4584896,215.326847 C55.4905421,218.338358 55.3194622,219.979946 55.5197899,221.941209 L55.6075335,220.828546 C55.6215564,222.629372 55.6383839,224.134927 55.4192254,224.842294 L55.3519153,222.993458 C55.3571238,225.979763 55.3715474,227.780988 55.4885388,230.269576 L55.4945486,229.381366 C55.7137072,232.552115 55.8944028,249.140832 56.1688518,252.062322 L56.3387297,250.716804 L56.4821643,253.229398 C56.4841676,252.932127 55.9296605,252.017111 55.9853516,251.767852 C56.0009771,257.151924 56.1331934,285.158537 56.018606,290.131312 C55.9240513,292.137785 55.7481635,290.492197 55.720919,290.469391 C55.7846232,292.911168 55.9016146,291.52284 55.887191,293.59853 C55.8563405,294.165064 55.7537727,293.481303 55.7293327,293.162427 C55.7493655,294.072242 55.6904691,294.916042 55.7701996,294.985658 C55.8319005,293.847789 56.0426453,294.329503 56.1800701,293.847789 L56.16164,296.51802 L56.0282217,296.399592 C56.0242151,296.995333 56.3928182,297.909548 56.3211009,300.532568 C56.2634065,304.958013 56.3102832,309.764748 56.2794327,314.214599 C56.1993016,314.145382 56.1524249,313.211162 56.1051476,312.274541 C56.101141,312.871482 56.1219751,313.780496 56.0642807,314.330226 C56.2053114,313.255172 56.1580341,316.197467 56.2177317,315.357269 C56.5434646,318.616838 56.2457776,322.833834 56.4673401,325.710913 C56.7598186,325.962173 61.5003741,331.871568 61.8489444,331.871568 C61.8429345,332.764979 61.8361234,333.653189 61.8076768,333.926453 C61.8898112,333.695999 61.9286748,331.939984 61.8817981,331.006564 L61.6950927,330.846126 C61.6297858,328.698819 61.8060742,330.342807 61.7936539,328.247112 C61.9463036,328.135486 61.9791574,330.063941 61.993581,331.762742 C62.0112098,330.233581 62.122592,328.710022 61.9555187,328.087475 C62.0188223,326.649935 62.1422242,328.247112 62.207531,326.515904 C62.1626576,325.282812 62.0132131,323.66323 62.1033606,322.246495 L62.1306052,322.271701 C62.2880628,318.828088 61.898225,317.002457 62.0544806,313.856514 L62.1057645,314.195394 C62.1943094,313.083131 62.0753147,310.893414 62.1694687,308.887341 C62.1386183,309.459476 62.028438,309.956793 62.0100079,308.750508 C62.1061652,306.443564 62.0100079,304.869992 62.1290025,303.183594 L61.979558,301.565212 C62.0084052,293.533315 61.7960578,261.808223 61.7720185,253.739918 L61.7960578,254.055993 C61.7211353,241.76309 61.7323536,216.527931 61.5268174,203.822931 C61.6738579,201.858067 61.6390009,199.147427 61.6806691,197.097743 C61.6189681,198.237612 61.514397,197.84712 61.5204069,196.95731 C61.5372344,190.710634 61.4186404,196.53561 61.3557375,190.218518 C61.2187133,182.944401 61.3745683,155.106627 61.4999734,148.649502 C61.2828182,145.181083 61.4470869,140.851261 61.3100628,137.453258 L61.3613467,137.795339 C61.2796129,134.146077 61.480742,113.487599 61.4030148,109.245797 L61.3721643,109.815532 C61.2371435,106.117058 61.4747321,106.620777 61.5484528,103.706489 C61.3052549,104.08938 61.1666281,100.920231 61.1481979,99.7111458 L61.2018858,99.7571567 C61.1610189,97.9343262 60.9490722,93.8053512 60.9166191,90.7950404 L61.0496367,90.9130682 C60.9066027,88.4024754 60.9658997,83.6825608 60.9518768,81.8781347 C61.0071672,77.7519604 61.2391467,71.3884577 61.063259,65.8711548 L61.4430804,62.3067131 L61.4054188,61.7849899 C61.4054188,61.7849899 56.8187149,56.0448344 55.8419169,63.3317552 L55.7088993,63.2157278 L55.7261275,64.656468 C55.66042,66.3848761 55.8146723,67.184665 55.6820554,67.0670372 L55.6980816,64.698878 C55.6596187,66.4356881 55.5891033,65.2230018 55.5137801,64.5600452 C55.5013598,65.2854165 55.4853335,65.9887826 55.444066,66.5661189 C55.4953499,66.9085998 55.4993565,66.3148596 55.5282037,66.0443957 C55.5750804,66.9786163 55.7004855,68.2793235 55.6387846,69.4171922 C55.6263643,71.1956121 55.4232319,69.5304189 55.4088083,71.605709 C55.3062405,82.5506935 55.1519882,93.1555978 55.1820374,104.21781 C55.1267469,104.469069 55.1287502,104.169399 55.1039095,103.850123 C55.1616039,107.18291 55.1407698,110.14481 55.2004675,113.179526 C55.1407698,114.022125 55.0586355,114.25258 55.003345,114.501838 C55.1139259,114.00092 55.1239423,131.260596 55.0950951,131.534261" id="Fill-64" fill="#F89E36"></path>
                    </g>
                </g>
                <g id="Page-1" opacity="0.5" transform="translate(7.000000, 500.000000)">
                    <g id="Group-3" transform="translate(0.000000, 0.115920)">
                        <mask id="mask-6" fill="white">
                            <use xlink:href="#path-5"></use>
                        </mask>
                        <g id="Clip-2"></g>
                        <path d="M3.96982079,8.81904 C12.8296318,6.19344 21.8081422,9.40544 30.5783955,10.78544 C37.2284068,11.83264 43.6794011,10.79344 50.1701989,8.81904 C54.1398775,7.61184 52.4553406,0.66384 48.4693142,1.87664 C41.8697679,3.88384 35.8971251,4.58144 29.2165505,3.30704 C20.307696,1.60784 11.2623728,-0.78896 2.26893611,1.87664 C-1.70856106,3.05504 -0.0211810964,10.00224 3.96982079,8.81904" id="Fill-1" fill="#C7B299" mask="url(#mask-6)"></path>
                    </g>
                    <g id="Group-6" transform="translate(46.200378, 0.115920)">
                        <mask id="mask-8" fill="white">
                            <use xlink:href="#path-7"></use>
                        </mask>
                        <g id="Clip-5"></g>
                        <path d="M3.96982079,8.81904 C12.8296318,6.19344 21.8081422,9.40544 30.5783955,10.78544 C37.2284068,11.83264 43.6794011,10.79344 50.1701989,8.81904 C54.1398775,7.61184 52.4553406,0.66384 48.4693142,1.87664 C41.8697679,3.88384 35.8971251,4.58144 29.2165505,3.30704 C20.307696,1.60784 11.2623728,-0.78896 2.26893611,1.87664 C-1.70856106,3.05504 -0.0211810964,10.00224 3.96982079,8.81904" id="Fill-4" fill="#C7B299" mask="url(#mask-8)"></path>
                    </g>
                    <g id="Group-9" transform="translate(92.400756, 0.115920)">
                        <mask id="mask-10" fill="white">
                            <use xlink:href="#path-9"></use>
                        </mask>
                        <g id="Clip-8"></g>
                        <path d="M3.96982079,8.81904 C12.8296318,6.19344 21.8081422,9.40544 30.5783955,10.78544 C37.2284068,11.83264 43.6794011,10.79344 50.1701989,8.81904 C54.1398775,7.61184 52.4553406,0.66384 48.4693142,1.87664 C41.8697679,3.88384 35.8971251,4.58144 29.2165505,3.30704 C20.307696,1.60784 11.2623728,-0.78896 2.26893611,1.87664 C-1.70856106,3.05504 -0.0211810964,10.00224 3.96982079,8.81904" id="Fill-7" fill="#C7B299" mask="url(#mask-10)"></path>
                    </g>
                    <g id="Group-12" transform="translate(138.601134, 0.115920)">
                        <mask id="mask-12" fill="white">
                            <use xlink:href="#path-11"></use>
                        </mask>
                        <g id="Clip-11"></g>
                        <path d="M3.96982079,8.81904 C12.8296318,6.19344 21.8081422,9.40544 30.5783955,10.78544 C37.2284068,11.83264 43.6794011,10.79344 50.1701989,8.81904 C54.1398775,7.61184 52.4553406,0.66384 48.4693142,1.87664 C41.8697679,3.88384 35.8971251,4.58144 29.2165505,3.30704 C20.307696,1.60784 11.2623728,-0.78896 2.26893611,1.87664 C-1.70856106,3.05504 -0.0211810964,10.00224 3.96982079,8.81904" id="Fill-10" fill="#C7B299" mask="url(#mask-12)"></path>
                    </g>
                    <g id="Group-15" transform="translate(184.801512, 0.115920)">
                        <mask id="mask-14" fill="white">
                            <use xlink:href="#path-13"></use>
                        </mask>
                        <g id="Clip-14"></g>
                        <path d="M3.96982079,8.81904 C12.8296318,6.19344 21.8081422,9.40544 30.5783955,10.78544 C37.2284068,11.83264 43.6794011,10.79344 50.1701989,8.81904 C54.1398775,7.61184 52.4553406,0.66384 48.4693142,1.87664 C41.8697679,3.88384 35.8971251,4.58144 29.2165505,3.30704 C20.307696,1.60784 11.2623728,-0.78896 2.26893611,1.87664 C-1.70856106,3.05504 -0.0211810964,10.00224 3.96982079,8.81904" id="Fill-13" fill="#C7B299" mask="url(#mask-14)"></path>
                    </g>
                    <g id="Group-18" transform="translate(231.001890, 0.115920)">
                        <mask id="mask-16" fill="white">
                            <use xlink:href="#path-15"></use>
                        </mask>
                        <g id="Clip-17"></g>
                        <path d="M3.96982079,8.81904 C12.8296318,6.19344 21.8081422,9.40544 30.5783955,10.78544 C37.2284068,11.83264 43.6794011,10.79344 50.1701989,8.81904 C54.1398775,7.61184 52.4553406,0.66384 48.4693142,1.87664 C41.8697679,3.88384 35.8978359,4.58144 29.2165505,3.30704 C20.307696,1.60784 11.2623728,-0.78896 2.26893611,1.87664 C-1.70785028,3.05504 -0.0211810964,10.00224 3.96982079,8.81904" id="Fill-16" fill="#C7B299" mask="url(#mask-16)"></path>
                    </g>
                    <g id="Group-21" transform="translate(277.202268, 0.115920)">
                        <mask id="mask-18" fill="white">
                            <use xlink:href="#path-17"></use>
                        </mask>
                        <g id="Clip-20"></g>
                        <path d="M3.96982079,8.81904 C12.8296318,6.19344 21.8081422,9.40544 30.5783955,10.78544 C37.2284068,11.83264 43.6794011,10.79344 50.1701989,8.81904 C54.1398775,7.61184 52.4553406,0.66384 48.4693142,1.87664 C41.8697679,3.88384 35.8978359,4.58144 29.2165505,3.30704 C20.307696,1.60784 11.2623728,-0.78896 2.26893611,1.87664 C-1.70785028,3.05504 -0.0211810964,10.00224 3.96982079,8.81904" id="Fill-19" fill="#C7B299" mask="url(#mask-18)"></path>
                    </g>
                </g>
                <g id="Page-1-Copy-18" opacity="0.5" transform="translate(7.000000, 529.000000)">
                    <g id="Group-3" transform="translate(0.000000, 0.115920)">
                        <mask id="mask-20" fill="white">
                            <use xlink:href="#path-19"></use>
                        </mask>
                        <g id="Clip-2"></g>
                        <path d="M3.96982079,8.81904 C12.8296318,6.19344 21.8081422,9.40544 30.5783955,10.78544 C37.2284068,11.83264 43.6794011,10.79344 50.1701989,8.81904 C54.1398775,7.61184 52.4553406,0.66384 48.4693142,1.87664 C41.8697679,3.88384 35.8971251,4.58144 29.2165505,3.30704 C20.307696,1.60784 11.2623728,-0.78896 2.26893611,1.87664 C-1.70856106,3.05504 -0.0211810964,10.00224 3.96982079,8.81904" id="Fill-1" fill="#C7B299" mask="url(#mask-20)"></path>
                    </g>
                    <g id="Group-6" transform="translate(46.200378, 0.115920)">
                        <mask id="mask-22" fill="white">
                            <use xlink:href="#path-21"></use>
                        </mask>
                        <g id="Clip-5"></g>
                        <path d="M3.96982079,8.81904 C12.8296318,6.19344 21.8081422,9.40544 30.5783955,10.78544 C37.2284068,11.83264 43.6794011,10.79344 50.1701989,8.81904 C54.1398775,7.61184 52.4553406,0.66384 48.4693142,1.87664 C41.8697679,3.88384 35.8971251,4.58144 29.2165505,3.30704 C20.307696,1.60784 11.2623728,-0.78896 2.26893611,1.87664 C-1.70856106,3.05504 -0.0211810964,10.00224 3.96982079,8.81904" id="Fill-4" fill="#C7B299" mask="url(#mask-22)"></path>
                    </g>
                    <g id="Group-9" transform="translate(92.400756, 0.115920)">
                        <mask id="mask-24" fill="white">
                            <use xlink:href="#path-23"></use>
                        </mask>
                        <g id="Clip-8"></g>
                        <path d="M3.96982079,8.81904 C12.8296318,6.19344 21.8081422,9.40544 30.5783955,10.78544 C37.2284068,11.83264 43.6794011,10.79344 50.1701989,8.81904 C54.1398775,7.61184 52.4553406,0.66384 48.4693142,1.87664 C41.8697679,3.88384 35.8971251,4.58144 29.2165505,3.30704 C20.307696,1.60784 11.2623728,-0.78896 2.26893611,1.87664 C-1.70856106,3.05504 -0.0211810964,10.00224 3.96982079,8.81904" id="Fill-7" fill="#C7B299" mask="url(#mask-24)"></path>
                    </g>
                    <g id="Group-12" transform="translate(138.601134, 0.115920)">
                        <mask id="mask-26" fill="white">
                            <use xlink:href="#path-25"></use>
                        </mask>
                        <g id="Clip-11"></g>
                        <path d="M3.96982079,8.81904 C12.8296318,6.19344 21.8081422,9.40544 30.5783955,10.78544 C37.2284068,11.83264 43.6794011,10.79344 50.1701989,8.81904 C54.1398775,7.61184 52.4553406,0.66384 48.4693142,1.87664 C41.8697679,3.88384 35.8971251,4.58144 29.2165505,3.30704 C20.307696,1.60784 11.2623728,-0.78896 2.26893611,1.87664 C-1.70856106,3.05504 -0.0211810964,10.00224 3.96982079,8.81904" id="Fill-10" fill="#C7B299" mask="url(#mask-26)"></path>
                    </g>
                    <g id="Group-15" transform="translate(184.801512, 0.115920)">
                        <mask id="mask-28" fill="white">
                            <use xlink:href="#path-27"></use>
                        </mask>
                        <g id="Clip-14"></g>
                        <path d="M3.96982079,8.81904 C12.8296318,6.19344 21.8081422,9.40544 30.5783955,10.78544 C37.2284068,11.83264 43.6794011,10.79344 50.1701989,8.81904 C54.1398775,7.61184 52.4553406,0.66384 48.4693142,1.87664 C41.8697679,3.88384 35.8971251,4.58144 29.2165505,3.30704 C20.307696,1.60784 11.2623728,-0.78896 2.26893611,1.87664 C-1.70856106,3.05504 -0.0211810964,10.00224 3.96982079,8.81904" id="Fill-13" fill="#C7B299" mask="url(#mask-28)"></path>
                    </g>
                    <g id="Group-18" transform="translate(231.001890, 0.115920)">
                        <mask id="mask-30" fill="white">
                            <use xlink:href="#path-29"></use>
                        </mask>
                        <g id="Clip-17"></g>
                        <path d="M3.96982079,8.81904 C12.8296318,6.19344 21.8081422,9.40544 30.5783955,10.78544 C37.2284068,11.83264 43.6794011,10.79344 50.1701989,8.81904 C54.1398775,7.61184 52.4553406,0.66384 48.4693142,1.87664 C41.8697679,3.88384 35.8978359,4.58144 29.2165505,3.30704 C20.307696,1.60784 11.2623728,-0.78896 2.26893611,1.87664 C-1.70785028,3.05504 -0.0211810964,10.00224 3.96982079,8.81904" id="Fill-16" fill="#C7B299" mask="url(#mask-30)"></path>
                    </g>
                    <g id="Group-21" transform="translate(277.202268, 0.115920)">
                        <mask id="mask-32" fill="white">
                            <use xlink:href="#path-31"></use>
                        </mask>
                        <g id="Clip-20"></g>
                        <path d="M3.96982079,8.81904 C12.8296318,6.19344 21.8081422,9.40544 30.5783955,10.78544 C37.2284068,11.83264 43.6794011,10.79344 50.1701989,8.81904 C54.1398775,7.61184 52.4553406,0.66384 48.4693142,1.87664 C41.8697679,3.88384 35.8978359,4.58144 29.2165505,3.30704 C20.307696,1.60784 11.2623728,-0.78896 2.26893611,1.87664 C-1.70785028,3.05504 -0.0211810964,10.00224 3.96982079,8.81904" id="Fill-19" fill="#C7B299" mask="url(#mask-32)"></path>
                    </g>
                </g>
                <g id="Page-1-Copy-19" opacity="0.5" transform="translate(7.000000, 558.000000)">
                    <g id="Group-3" transform="translate(0.000000, 0.115920)">
                        <mask id="mask-34" fill="white">
                            <use xlink:href="#path-33"></use>
                        </mask>
                        <g id="Clip-2"></g>
                        <path d="M3.96982079,8.81904 C12.8296318,6.19344 21.8081422,9.40544 30.5783955,10.78544 C37.2284068,11.83264 43.6794011,10.79344 50.1701989,8.81904 C54.1398775,7.61184 52.4553406,0.66384 48.4693142,1.87664 C41.8697679,3.88384 35.8971251,4.58144 29.2165505,3.30704 C20.307696,1.60784 11.2623728,-0.78896 2.26893611,1.87664 C-1.70856106,3.05504 -0.0211810964,10.00224 3.96982079,8.81904" id="Fill-1" fill="#C7B299" mask="url(#mask-34)"></path>
                    </g>
                    <g id="Group-6" transform="translate(46.200378, 0.115920)">
                        <mask id="mask-36" fill="white">
                            <use xlink:href="#path-35"></use>
                        </mask>
                        <g id="Clip-5"></g>
                        <path d="M3.96982079,8.81904 C12.8296318,6.19344 21.8081422,9.40544 30.5783955,10.78544 C37.2284068,11.83264 43.6794011,10.79344 50.1701989,8.81904 C54.1398775,7.61184 52.4553406,0.66384 48.4693142,1.87664 C41.8697679,3.88384 35.8971251,4.58144 29.2165505,3.30704 C20.307696,1.60784 11.2623728,-0.78896 2.26893611,1.87664 C-1.70856106,3.05504 -0.0211810964,10.00224 3.96982079,8.81904" id="Fill-4" fill="#C7B299" mask="url(#mask-36)"></path>
                    </g>
                    <g id="Group-9" transform="translate(92.400756, 0.115920)">
                        <mask id="mask-38" fill="white">
                            <use xlink:href="#path-37"></use>
                        </mask>
                        <g id="Clip-8"></g>
                        <path d="M3.96982079,8.81904 C12.8296318,6.19344 21.8081422,9.40544 30.5783955,10.78544 C37.2284068,11.83264 43.6794011,10.79344 50.1701989,8.81904 C54.1398775,7.61184 52.4553406,0.66384 48.4693142,1.87664 C41.8697679,3.88384 35.8971251,4.58144 29.2165505,3.30704 C20.307696,1.60784 11.2623728,-0.78896 2.26893611,1.87664 C-1.70856106,3.05504 -0.0211810964,10.00224 3.96982079,8.81904" id="Fill-7" fill="#C7B299" mask="url(#mask-38)"></path>
                    </g>
                    <g id="Group-12" transform="translate(138.601134, 0.115920)">
                        <mask id="mask-40" fill="white">
                            <use xlink:href="#path-39"></use>
                        </mask>
                        <g id="Clip-11"></g>
                        <path d="M3.96982079,8.81904 C12.8296318,6.19344 21.8081422,9.40544 30.5783955,10.78544 C37.2284068,11.83264 43.6794011,10.79344 50.1701989,8.81904 C54.1398775,7.61184 52.4553406,0.66384 48.4693142,1.87664 C41.8697679,3.88384 35.8971251,4.58144 29.2165505,3.30704 C20.307696,1.60784 11.2623728,-0.78896 2.26893611,1.87664 C-1.70856106,3.05504 -0.0211810964,10.00224 3.96982079,8.81904" id="Fill-10" fill="#C7B299" mask="url(#mask-40)"></path>
                    </g>
                    <g id="Group-15" transform="translate(184.801512, 0.115920)">
                        <mask id="mask-42" fill="white">
                            <use xlink:href="#path-41"></use>
                        </mask>
                        <g id="Clip-14"></g>
                        <path d="M3.96982079,8.81904 C12.8296318,6.19344 21.8081422,9.40544 30.5783955,10.78544 C37.2284068,11.83264 43.6794011,10.79344 50.1701989,8.81904 C54.1398775,7.61184 52.4553406,0.66384 48.4693142,1.87664 C41.8697679,3.88384 35.8971251,4.58144 29.2165505,3.30704 C20.307696,1.60784 11.2623728,-0.78896 2.26893611,1.87664 C-1.70856106,3.05504 -0.0211810964,10.00224 3.96982079,8.81904" id="Fill-13" fill="#C7B299" mask="url(#mask-42)"></path>
                    </g>
                    <g id="Group-18" transform="translate(231.001890, 0.115920)">
                        <mask id="mask-44" fill="white">
                            <use xlink:href="#path-43"></use>
                        </mask>
                        <g id="Clip-17"></g>
                        <path d="M3.96982079,8.81904 C12.8296318,6.19344 21.8081422,9.40544 30.5783955,10.78544 C37.2284068,11.83264 43.6794011,10.79344 50.1701989,8.81904 C54.1398775,7.61184 52.4553406,0.66384 48.4693142,1.87664 C41.8697679,3.88384 35.8978359,4.58144 29.2165505,3.30704 C20.307696,1.60784 11.2623728,-0.78896 2.26893611,1.87664 C-1.70785028,3.05504 -0.0211810964,10.00224 3.96982079,8.81904" id="Fill-16" fill="#C7B299" mask="url(#mask-44)"></path>
                    </g>
                    <g id="Group-21" transform="translate(277.202268, 0.115920)">
                        <mask id="mask-46" fill="white">
                            <use xlink:href="#path-45"></use>
                        </mask>
                        <g id="Clip-20"></g>
                        <path d="M3.96982079,8.81904 C12.8296318,6.19344 21.8081422,9.40544 30.5783955,10.78544 C37.2284068,11.83264 43.6794011,10.79344 50.1701989,8.81904 C54.1398775,7.61184 52.4553406,0.66384 48.4693142,1.87664 C41.8697679,3.88384 35.8978359,4.58144 29.2165505,3.30704 C20.307696,1.60784 11.2623728,-0.78896 2.26893611,1.87664 C-1.70785028,3.05504 -0.0211810964,10.00224 3.96982079,8.81904" id="Fill-19" fill="#C7B299" mask="url(#mask-46)"></path>
                    </g>
                </g>
                <g id="Page-1" transform="translate(21.000000, 0.000000)">
                    <g id="Group-3" transform="translate(0.000000, 13.000000)">
                        <mask id="mask-48" fill="white">
                            <use xlink:href="#path-47"></use>
                        </mask>
                        <g id="Clip-2"></g>
                        <path d="M205.224436,47.4373039 L157.311482,47.4373039 C157.063736,46.7280831 156.81599,46.019687 156.571536,45.3096416 C156.235721,44.3389987 155.903198,43.3667065 155.575613,42.3927649 C155.000282,40.6922844 154.434828,38.9893299 153.880898,37.2822519 C153.732744,36.8253818 153.582944,36.370161 153.435613,35.9132909 C152.838882,34.0528234 152.262728,32.1857584 151.695628,30.3162195 C150.651967,26.6917714 149.861813,22.7341545 148.225536,19.3224727 C153.895713,10.1825961 164.511759,5.0259013 175.299005,7.42900519 C185.778421,9.76448571 193.754036,18.5596481 195.067667,29.2433169 C195.131867,29.7669857 195.304713,30.2156091 195.544228,30.5999078 C195.991159,31.5251935 196.856213,32.2525571 198.154205,32.3358494 C205.947921,32.8372519 209.636128,41.4031545 205.224436,47.4373039 Z M171.639605,120.708882 L151.085728,120.708882 L133.804405,120.708882 C144.697005,109.795953 155.588782,98.8822 166.481382,87.9684468 C170.912828,98.4055377 175.575559,108.744492 180.413605,118.995206 C181.089352,121.898888 172.792736,120.708882 171.639605,120.708882 Z M98.6014054,120.708882 C115.766675,103.510278 132.931944,86.311674 150.097213,69.1130701 C152.187828,67.0183948 154.279267,64.9237195 156.369882,62.8282195 C158.657213,68.8656675 161.039198,74.8668299 163.501021,80.8358299 C163.087013,81.0123104 162.681236,81.2795052 162.300975,81.6613299 C149.33669,94.6507909 136.371582,107.641077 123.406475,120.630538 C123.380136,120.656927 123.360382,120.683317 123.33569,120.708882 L106.870859,120.708882 L98.6014054,120.708882 Z M63.4831823,120.708882 C83.5884823,100.565362 103.692959,80.4218429 123.796613,60.2774987 L132.931121,51.1260766 C132.968159,51.0889662 132.99779,51.0510312 133.032359,51.0139208 C134.74189,52.5395701 136.559244,53.9497649 138.532982,55.0663753 C138.983205,55.3220247 139.433428,55.5479857 139.885298,55.7582779 C140.211236,55.9157909 140.54129,56.0650571 140.877105,56.2052519 C144.742275,57.8249143 148.568759,57.7276026 152.220752,56.4889403 C133.818398,74.9262065 115.416867,93.3642974 97.0145131,111.802388 C94.3526823,114.470213 91.6892054,117.138038 89.0265515,119.805862 C88.7376515,120.095323 88.5162438,120.398804 88.34669,120.708882 L63.4831823,120.708882 Z M27.8233746,120.708882 C32.7445515,115.778148 37.6665515,110.847414 42.5877285,105.915856 C43.1227285,105.380642 43.43879,104.798421 43.5836515,104.211252 L46.2668823,104.211252 C51.8827362,104.211252 57.8138285,104.819038 63.3778285,104.211252 C67.0487515,103.809635 69.0603515,99.9320117 69.7978285,95.9710961 C69.9846669,95.0853948 70.0875515,94.1939208 70.1073054,93.3057455 C70.1690362,91.9623494 70.0850823,90.7030701 69.8694362,89.6763494 C69.2661208,86.8064792 67.8841746,84.3728623 65.9952131,82.4629143 C74.9050208,73.5358039 83.8148285,64.6086935 92.7246362,55.6815831 C92.7945977,55.6123104 92.8546823,55.5405636 92.9172362,55.4696416 C93.7386669,56.0122779 94.6111285,56.4839922 95.5675438,56.8353039 C97.7067208,57.6187455 99.9183285,57.7581156 102.076436,57.4323688 C102.311013,57.3993818 102.544767,57.3606221 102.777698,57.3169143 C102.779344,57.3160896 102.78099,57.3160896 102.782636,57.3160896 C104.495459,56.9961156 106.164659,56.403174 107.688998,55.5982909 C110.202675,54.269739 112.284236,52.3325766 114.239867,50.2774857 C114.361682,50.1504857 114.481028,50.0218364 114.601198,49.8940117 C114.95759,49.514661 115.312336,49.1344857 115.662967,48.7518364 C116.151875,48.2182714 116.641605,47.6830571 117.135452,47.1519662 C117.181544,47.1008364 117.229282,47.0488818 117.276198,46.9977519 C119.630198,44.4701221 122.134821,41.3916091 125.601621,43.7815182 C126.116867,44.1369532 126.603305,44.5377455 127.081513,44.9542065 C127.339959,45.2131545 127.593467,45.4787 127.837921,45.7467195 C127.790182,45.7904273 127.739975,45.8300117 127.693882,45.8778429 C106.143259,67.4703169 84.5926362,89.0619662 63.0428362,110.65444 C59.9982746,113.704914 56.9520669,116.755388 53.9075054,119.805862 C53.6202515,120.095323 53.3980208,120.398804 53.22929,120.708882 L44.2832669,120.708882 L27.8233746,120.708882 Z M7.34192846,98.026187 C4.66939769,93.8912649 7.09994385,88.435213 12.3141362,88.0344208 C14.1463054,87.8934013 15.1718592,86.7165896 15.4006746,84.9418883 C16.5011285,76.4221675 23.4635362,69.5179857 32.0465823,68.7444403 C34.0293746,68.5663104 35.9611362,68.7262974 37.8015362,69.1526545 C40.8107054,69.928674 43.5013438,71.3083558 45.7351746,73.2150052 C45.7812669,73.2554143 45.8265362,73.2958234 45.8734515,73.3362325 C46.1220208,73.5539468 46.3664746,73.7782584 46.6043438,74.0091675 C47.6512977,75.039187 48.5879592,76.1912584 49.3846977,77.454661 C49.4003362,77.4794013 49.4151515,77.5041416 49.43079,77.5297065 C49.6760669,77.9214273 49.9048823,78.3255182 50.1221746,78.7370312 C50.1633285,78.8162 50.2053054,78.8945442 50.2456362,78.973713 C50.4324746,79.3373948 50.6028515,79.7093234 50.7666438,80.0870247 C50.8135592,80.1958818 50.86459,80.3030896 50.9106823,80.4127714 C51.1041054,80.8820117 51.2843592,81.358674 51.44239,81.8468818 C51.6572131,82.5082714 52.1362438,83.1713104 52.7486131,83.6125117 C53.2375208,83.9646481 53.8112054,84.1790636 54.4186362,84.117213 C55.0301823,84.0545377 55.6145669,84.0578364 56.1783746,84.1073169 C57.0681208,84.2260701 57.8977823,84.4578039 58.6558362,84.787674 C59.1291054,85.2288753 59.6986746,85.5653429 60.3135131,85.735226 C61.2312438,86.403213 61.9901208,87.233661 62.5728592,88.1688429 C64.2741592,91.0552065 64.3597592,94.9344792 62.1629669,98.026187 L22.5293438,98.026187 L22.5276977,98.026187 L7.34192846,98.026187 Z M59.5686285,78.4055117 C58.5941054,78.1193494 57.5743131,77.9362714 56.5150131,77.8818429 C56.4063669,77.6303169 56.2985438,77.3787909 56.18249,77.1313883 C56.0697285,76.8897584 55.9479131,76.6555506 55.8285669,76.4180442 C55.7594285,76.2811481 55.6911131,76.1450766 55.6195054,76.0090052 C53.0572669,71.1063104 49.0867438,67.2163169 44.14499,64.8717649 C43.8684362,64.7389922 43.5902362,64.6119922 43.3087438,64.4891156 C43.1754054,64.432213 43.04289,64.3744857 42.9079054,64.3192325 C42.4379285,64.1246091 41.9613669,63.9431805 41.4773977,63.7782455 C41.4741054,63.7774208 41.46999,63.7765961 41.4666977,63.7757714 C41.4354208,63.764226 41.4033208,63.7551545 41.3720438,63.7444338 C42.2461515,61.4435896 43.1079131,59.1386221 43.9565054,56.8287065 C44.4989131,57.2740312 45.0190977,57.6772974 45.4652054,58.0228364 C45.5129438,58.0591221 45.5606823,58.0896351 45.6075977,58.1259208 C48.1138669,60.0639078 50.9872285,61.4518364 54.2359131,61.6843948 C59.3768515,62.0530247 64.5482438,59.415713 68.4249362,56.2209208 C69.8513285,55.0449338 71.0176285,53.6866935 72.1345438,52.2888688 C72.9131746,51.4328558 73.6564131,50.5504532 74.3535592,49.6540312 C77.4318669,45.6964143 79.45499,45.0152325 84.08809,47.9989078 C85.2510977,48.747713 86.3038131,49.6515571 87.3236054,50.5974597 L59.5686285,78.4055117 Z M18.2435823,119.81081 C18.0197054,116.886512 22.5137054,108.079804 24.4471131,104.211252 L33.8129054,104.211252 C28.6234054,109.41083 23.4330823,114.611232 18.2435823,119.81081 Z M52.8383285,30.3805442 C54.5420977,24.678739 55.3997438,17.9081545 62.68809,17.4653039 C69.1006823,17.0752325 75.6548438,17.4653039 82.07649,17.4653039 L119.674644,17.4653039 L132.577198,17.4653039 C136.401213,17.4653039 139.977482,17.9996935 142.087852,21.0320247 C142.708452,23.1440182 143.777628,25.3170377 144.405636,27.4933558 C144.578482,28.0920701 144.764498,28.686661 144.941459,29.2845506 C145.13159,29.9310961 145.325836,30.5768169 145.520082,31.2225377 C145.735728,31.9367065 145.941498,32.6533494 146.160436,33.3666935 C147.883136,38.9555182 149.744113,44.5006351 151.678344,50.0193623 C150.610813,50.4902519 149.566328,50.8044532 148.535836,50.9652649 C148.530898,50.9660896 148.525136,50.967739 148.519375,50.9685636 C148.293852,51.0032 148.068328,51.0279403 147.842805,51.0477325 C147.790952,51.0518558 147.738275,51.0576286 147.687244,51.0609273 C147.479828,51.0765961 147.272413,51.0840182 147.066644,51.0864922 C146.998328,51.0873169 146.930013,51.0873169 146.862521,51.0864922 C146.663336,51.0848429 146.464152,51.0790701 146.26579,51.0658753 C146.195005,51.0609273 146.123398,51.0526805 146.05179,51.0460831 C145.854252,51.0287649 145.655067,51.0097974 145.457528,50.9792844 C145.413905,50.9735117 145.370282,50.9627909 145.327482,50.9561935 C144.938167,50.8926935 144.548852,50.8044532 144.162005,50.6964208 C144.073113,50.6716805 143.985044,50.6518883 143.896152,50.624674 C143.748821,50.5793169 143.600667,50.5248883 143.452513,50.4729338 C143.319998,50.4267519 143.187482,50.3813948 143.054144,50.3294403 C142.917513,50.2758364 142.780059,50.2164597 142.642605,50.1570831 C142.496921,50.0944078 142.351236,50.0300831 142.205552,49.9608104 C142.076328,49.8997844 141.947105,49.8354597 141.817882,49.7694857 C141.659028,49.6878429 141.499352,49.6020766 141.340498,49.5138364 C141.221152,49.4478623 141.103452,49.3818883 140.984105,49.3117909 C140.802205,49.2054078 140.620305,49.0899532 140.438405,48.9728494 C140.339636,48.910174 140.240867,48.8499727 140.142921,48.7839987 C139.861428,48.5967974 139.579113,48.3997 139.295975,48.1894078 C139.295152,48.1885831 139.293505,48.1877584 139.293505,48.1869338 C137.296721,46.7008688 135.579782,44.7917455 133.823336,42.9403494 C133.467767,42.5659468 133.113021,42.1931935 132.75169,41.8278623 C132.749221,41.8253883 132.745928,41.8229143 132.744282,41.8204403 C131.077552,40.1323299 129.318636,38.5794662 127.208267,37.5560442 C126.283128,37.1065961 125.39009,36.8253818 124.528328,36.685187 C124.097859,36.6150896 123.673975,36.5804532 123.258321,36.5788039 C119.405498,36.5573623 116.174098,39.2952844 113.304028,42.2624662 C112.927882,42.651713 112.556675,43.0442584 112.192052,43.4359792 C112.177236,43.4524727 112.162421,43.4681416 112.146782,43.4846351 C111.402721,44.2837455 110.682528,45.0746091 109.979621,45.8085701 C107.152352,48.7658558 103.607359,51.8740571 99.1866131,51.3809013 C98.4573669,51.2992584 97.7709208,51.0897909 97.1173977,50.7887844 C97.1132823,50.7871351 97.10999,50.784661 97.1058746,50.782187 C94.2818977,49.4726026 92.0875746,46.4394468 89.7829592,44.5633104 C87.2939746,42.5370831 84.4617669,40.9281416 81.6122746,40.2791221 C81.2056746,40.1867584 80.7990746,40.1133623 80.3924746,40.0622325 C79.5792746,39.9583234 78.7668977,39.9393558 77.9668669,40.0177 C77.7339362,40.0407909 77.5018285,40.0737779 77.27219,40.1133623 C76.9470746,40.1694403 76.6260746,40.2420117 76.3058977,40.3319013 C76.2170054,40.3574662 76.12729,40.3846805 76.0392208,40.4127195 C74.3338054,40.9487584 72.70329,41.9969208 71.2324515,43.6974013 C70.6151438,44.4107455 70.0299362,45.1414078 69.4521362,45.8728948 C68.0767746,47.6104857 66.7450362,49.349726 65.1441515,50.8638299 C65.0947669,50.9100117 65.0387977,50.9520701 64.98859,50.9982519 C64.2733362,51.6621156 63.5070515,52.2847455 62.6543438,52.8372779 C60.50529,54.2293299 57.9874977,55.4284078 55.4186746,55.5001545 C54.5626746,55.5240701 53.7009131,55.4226351 52.8449131,55.161213 C52.4687669,55.0457584 52.1049669,54.9006156 51.7485746,54.7414532 C51.6333438,54.6894987 51.5205823,54.6301221 51.4069977,54.5740442 C51.1707746,54.4577649 50.9386669,54.3348883 50.7106746,54.2021156 C50.5814515,54.1262455 50.4546977,54.048726 50.3279438,53.9670831 C50.1229977,53.8367844 49.9213438,53.6974143 49.7229823,53.5547455 C49.5978746,53.4640312 49.4711208,53.3766156 49.3484823,53.2817779 C49.1460054,53.1259143 48.9509362,52.9601545 48.7558669,52.7943948 C48.5064746,52.5799792 48.2620208,52.3597909 48.0225054,52.1321805 C47.9089208,52.0241481 47.79369,51.9185896 47.6817515,51.8080831 C47.4907977,51.6184078 47.3056054,51.4237844 47.1204131,51.2283364 C47.0545669,51.1574143 46.9870746,51.0881416 46.9220515,51.0163948 C46.7154592,50.7920831 46.5113362,50.5661221 46.3121515,50.337687 C46.3088592,50.335213 46.3072131,50.3319143 46.3039208,50.3286156 C48.6233515,43.7262649 50.8366054,37.0868039 52.8383285,30.3805442 Z M200.779821,26.5334338 C196.975559,8.32542727 178.23739,-4.12057273 159.80129,2.35312857 C155.334452,3.92166104 151.249521,6.42372597 147.867498,9.75046623 C146.651813,10.9470701 145.135705,12.4859143 143.927428,14.1773234 C141.871382,12.6021935 139.387336,11.5828948 136.583113,11.3396156 C134.471098,11.155713 132.309698,11.280239 130.195213,11.280239 L104.582705,11.280239 L67.6084438,11.280239 C65.3227592,11.280239 62.9605285,11.1293234 60.6896592,11.4492974 C54.5379823,12.3185052 50.3501669,16.7701026 48.6612131,22.5675701 C46.9368669,28.4870896 45.1927669,34.3884662 43.2503054,40.241187 C42.6436977,42.0694922 42.0247438,43.893674 41.3959131,45.7145571 C40.9234669,47.0826935 39.9069669,48.8483234 39.7530515,50.3904662 C38.2970285,54.4610636 36.7875054,58.5102195 35.2483515,62.5503039 C33.8326592,62.4645377 32.3873362,62.5016481 30.9239054,62.6773039 C20.0691669,63.9802909 12.0737977,71.991187 9.71897462,82.2798364 C5.19287462,83.423661 1.50549,86.6085571 0.312851538,91.4296091 C-0.778548462,95.8416221 0.926866923,103.706551 6.30320538,104.211252 C10.0259823,104.56009 13.8730438,104.435564 17.6904746,104.319284 C16.7274746,106.437051 15.7735285,108.559765 14.7924208,110.669284 C13.36109,113.749447 10.7988515,117.315343 11.3774746,120.87959 C11.9816131,124.589804 15.0747362,126.696025 18.6435977,126.893947 C22.9326515,127.132278 27.3040131,126.893947 31.5980054,126.893947 L81.8954131,126.893947 L125.478982,126.893947 C125.926736,126.988784 126.392598,126.995382 126.856813,126.893947 L151.085728,126.893947 L174.689928,126.893947 C176.298221,126.893947 177.938613,126.98631 179.545259,126.893947 C184.636813,126.601187 187.937352,122.159486 186.330705,117.201538 C186.260744,116.986297 186.171852,116.793323 186.072259,116.611895 C186.051682,116.562414 186.043452,116.513758 186.019582,116.463453 C176.299867,95.9042974 167.299521,74.9979532 159.518975,53.6223688 L186.393259,53.6223688 L195.991159,53.6223688 C199.195398,53.6223688 202.416921,53.7188558 205.620336,53.6223688 C209.059152,53.5192844 210.885559,50.8127 212.183552,47.7498558 C216.198521,38.2743364 210.049313,28.6198623 200.779821,26.5334338 Z" id="Fill-1" fill="#E3D7C7" mask="url(#mask-48)"></path>
                    </g>
                    <path d="M41.4143289,58 C41.8956924,56.5971409 42.3770558,55.1942817 42.8443589,53.7864626 C44.7971066,47.919585 46.5496997,42.0039338 48.2824427,36.0709226 C49.9787941,30.2586052 54.1870026,25.7962401 60.3694629,24.9257565 C62.6513905,24.6041818 65.0251244,24.7554624 67.3211124,24.7554624 L86,24.7554624 C83.1970089,10.6408974 70.7419359,0 55.7973371,0 C38.788334,0 25,13.781417 25,30.7818874 C25,42.5875629 31.6530717,52.8366186 41.4143289,58" id="Fill-4" fill="#E3D7C7"></path>
                </g>
            </g>
        </g>
    </g>
</svg>