<svg xmlns="http://www.w3.org/2000/svg" xmlns:xlink="http://www.w3.org/1999/xlink" viewBox="0 0 201.36 987.26"><defs><style>.cls-1,.cls-2{fill:none;}.cls-1{clip-rule:evenodd;}.cls-3{fill:#ffb236;}.cls-4{fill:#ffba4b;}.cls-5{fill:#ff5253;}.cls-6{fill:#ff6465;}.cls-7{fill:#736357;}.cls-8{fill:#827469;}.cls-9{fill:#fce3ce;}.cls-10{fill:#fce6d3;}.cls-11{fill:#f89e36;}.cls-12{clip-path:url(#clip-path);}.cls-13{clip-path:url(#clip-path-2);}.cls-14{clip-path:url(#clip-path-3);}.cls-15{clip-path:url(#clip-path-4);}.cls-16{clip-path:url(#clip-path-5);}.cls-17{clip-path:url(#clip-path-6);}</style><clipPath id="clip-path"><path class="cls-1" d="M278.94,1838.82v15.52a10.5,10.5,0,1,1-10,.54v-16.07h-27.5v15a10.5,10.5,0,1,1-10,.54v-15.57h-27.5v14.52a10.5,10.5,0,1,1-10,.54v-15.07h-27.5v14a10.5,10.5,0,1,1-10,.54v-14.57h-27.5v13.52a10.5,10.5,0,1,1-10,.54v-14.07H91.44v13a10.5,10.5,0,1,1-10,.54v-13.57H53.94v12.52a10.5,10.5,0,1,1-10,.54v-13.07H11.44v290h300v-290Z"/></clipPath><clipPath id="clip-path-2"><path class="cls-1" d="M406.32,2352.65v15.52a10.5,10.5,0,1,1-10,.54v-16.07h-27.5v15a10.5,10.5,0,1,1-10,.54v-15.57h-27.5v14.52a10.5,10.5,0,1,1-10,.54v-15.07h-27.5v14a10.5,10.5,0,1,1-10,.54v-14.57h-27.5v13.52a10.5,10.5,0,1,1-10,.54v-14.07h-27.5v13a10.5,10.5,0,1,1-10,.54v-13.57h-27.5v12.52a10.5,10.5,0,1,1-10,.54v-13.07h-32.5v240h300v-240Z"/></clipPath><clipPath id="clip-path-3"><rect class="cls-2" x="136.32" y="2350.15" width="305" height="245"/></clipPath><clipPath id="clip-path-4"><path class="cls-1" d="M-143.68,2215.39h41a13,13,0,0,1,13,13,13,13,0,0,1-13,13h-41a13,13,0,0,1-13-13A13,13,0,0,1-143.68,2215.39Z"/></clipPath><clipPath id="clip-path-5"><path class="cls-1" d="M618.88,1838.82v15.52a10.5,10.5,0,1,1-10,.54v-16.07h-27.5v15a10.5,10.5,0,1,1-10,.54v-15.57h-27.5v14.52a10.5,10.5,0,1,1-10,.54v-15.07h-27.5v14a10.5,10.5,0,1,1-10,.54v-14.57h-27.5v13.52a10.5,10.5,0,1,1-10,.55v-14.07h-27.5v13a10.5,10.5,0,1,1-10,.55v-13.57h-27.5v12.52a10.5,10.5,0,1,1-10,.55v-13.07h-32.5v280h300v-280Z"/></clipPath><clipPath id="clip-path-6"><path class="cls-1" d="M615,1876.78c12.93-.6,16-17,6.34-23.81v-11.65h27.5v275h-295v-275h27.5v9.4c-8.82,7.83-4.45,23.67,8.66,23.06,12.93-.6,16-17,6.34-23.81v-8.65h22.5v9.9c-8.82,7.83-4.45,23.67,8.66,23.06,12.93-.61,16-17,6.34-23.81v-9.15h22.5v10.4c-8.82,7.82-4.45,23.67,8.66,23.06,12.93-.61,16-17,6.34-23.81v-9.65h22.5v10.9c-8.82,7.83-4.45,23.67,8.66,23.06,12.93-.61,16-17,6.34-23.81v-10.15h22.5v11.4c-8.82,7.82-4.45,23.67,8.66,23.06,12.93-.61,16-17,6.34-23.81v-10.65h22.5v11.9c-8.82,7.83-4.45,23.67,8.66,23.06,12.93-.6,16-17,6.34-23.81v-11.15h22.5v12.4c-8.66,7.68-4.61,23.07,7.93,23.07Zm3.84-40.46a2.31,2.31,0,0,0-1.69.67l-.08.08,0,0a2.31,2.31,0,0,0-.68,1.7v15.52a2.51,2.51,0,0,0,1.24,2.16c8.08,4.48,4.36,17.31-5.16,15.09a8,8,0,0,1-5.94-8.8c.39-2.94,2.12-3.6,3.63-5.74.39-.56.9-.74,1.15-1.49.76-2.34.09-5.81.09-8.22v-8.51a2.54,2.54,0,0,0-2.5-2.5h-27.5a2.54,2.54,0,0,0-2.5,2.5v15a2.51,2.51,0,0,0,1.24,2.16c8,4.44,4.36,17.55-5.16,15.08a8,8,0,0,1-3.86-13.29c.77-.84,2.12-1.32,2.56-2.45.85-2.18.21-5.5.21-7.78v-8.75a2.54,2.54,0,0,0-2.5-2.5h-27.5a2.54,2.54,0,0,0-2.5,2.5v14.52a2.5,2.5,0,0,0,1.24,2.16c7.53,4.17,5.07,16.32-4.2,15.2a8,8,0,0,1-7-7.88,8.23,8.23,0,0,1,2.22-5.52c.71-.77,1.94-1.2,2.44-2.15,1-1.91.34-5.31.34-7.33v-9a2.54,2.54,0,0,0-2.5-2.5h-27.5a2.54,2.54,0,0,0-2.5,2.5v14a2.5,2.5,0,0,0,1.24,2.16c7,3.9,5.64,15.32-3.24,15.32a8,8,0,0,1-7-11.93c.86-1.51,2.63-2.11,3.43-3.49,1.13-2,.54-5.14.54-7.32v-8.76a2.54,2.54,0,0,0-2.5-2.5h-27.5a2.54,2.54,0,0,0-2.5,2.5v13.52a2.5,2.5,0,0,0,1.24,2.16c7,3.9,5.64,15.32-3.24,15.32a8,8,0,0,1-7-11.93c.86-1.51,2.63-2.1,3.43-3.49,1.11-1.93.54-5,.54-7.12v-8.46a2.54,2.54,0,0,0-2.5-2.5h-27.5a2.54,2.54,0,0,0-2.5,2.5v13a2.5,2.5,0,0,0,1.24,2.16c7.06,3.91,5.61,15.32-3.24,15.32a8.11,8.11,0,0,1-7.77-6.08,8.25,8.25,0,0,1,.8-5.85c.88-1.53,2.32-1.94,3.23-3.24,1.32-1.89.73-4.91.73-7.1v-8.23a2.54,2.54,0,0,0-2.5-2.5h-27.5a2.54,2.54,0,0,0-2.5,2.5v12.52a2.5,2.5,0,0,0,1.24,2.16c7.05,3.91,5.6,15.32-3.24,15.32a8,8,0,0,1-7.44-5.2c-1.77-4.72.86-6.56,3.45-9.76,1.48-1.84,1-4.26,1-6.57v-8.47a2.54,2.54,0,0,0-2.5-2.5h-32.5a2.54,2.54,0,0,0-2.5,2.42v280.17a2.54,2.54,0,0,0,2.5,2.41h300a2.54,2.54,0,0,0,2.5-2.5v-280a2.54,2.54,0,0,0-2.5-2.5Z"/></clipPath></defs><title>pen</title><g id="圖層_2" data-name="圖層 2"><rect class="cls-3" x="9.82" y="110.24" width="171.21" height="751.32"/><path class="cls-4" d="M174.34,851.91c-5.7-.48-15.54-.53-24.85-.61C156.66,851.76,164.28,852,174.34,851.91Z"/><path class="cls-4" d="M149.31,851.29h0Z"/><path class="cls-4" d="M192.36,854.66c0-2.33,0-5,0-7.66C192.31,849.56,192.31,852.18,192.36,854.66Z"/><path class="cls-4" d="M21.48,550.08l-.8-1.42c0-22.09.91-6.43.72-26.85-1.13-8,.12-33.92-.48-41a13.1,13.1,0,0,0,.06-1.46l.08-3.32c.06-2.4.16-4.74.34-4.43-.61-3.06-.14-10.29-.3-16.59-.17-2.29-.18,1.68-.37,3.39L20.5,444c.2-5.65.56-7,.63-.9.22-37.76.81-219,.5-259.7-.46,5.23-.15,17.78-.88,22.55-.41-10.75.14-15.83-.29-20.57,1.08-4.13.26-23.63,1.36-31.77l-.61-3.08.38-5.34-.27-19.26,0-2.69,0-1v0l0-.14c0-.14,0-.12.1-.32l.31.06.19,0,5.82,0c24.26-.09,35.79-.95,49.29-.63-2,0-7.36-.38-1.07-.54,1.07.54,16.73-.39,19.79.16,6.16-.07,26.1,0,19.35-.74,3.39.37,21.18.52,10.59.84,6,0,11.82.13,16.14,0l-7.71-.21c10.14-.05,18,.06,24.91.11,3.47,0,6.73,0,9.94,0h.29l.15,0,.32-.06.79-.2q-.43-.15-1-.29c.61,0,1.2,0,1.73,0a10,10,0,0,1-.14,1.77l0,.17,0,.08s0,0,0,.21l-.11,1.85c-.08,1.16-.19,2.17-.32,3l-.06-3.11,0-1.56v-.49l-.11-.61.09,19.07c.06,7.64.17,14.86.37,23.23l0-6c.73,21.35,1.33,133,2.24,152.68l.57-9.06.48,16.91c0-2-1.84-8.16-1.65-9.84.05,36.24.49,224.77.11,258.24-.31,13.5-.9,2.43-1,2.28.21,16.43.6,7.09.55,21.06-.1,3.81-.44-.79-.52-2.94.07,6.12-.13,11.8.14,12.27.21-7.66.91-4.42,1.36-7.66l-.06,18-.44-.8c0,4,1.21,10.16,1,27.82-.19,29.79,0,62.15-.14,92.1-.27-.47-.42-6.75-.58-13.06,0,4,.05,10.14-.14,13.84.47-7.23.31,12.57.51,6.91,1.08,21.94.09,50.33.83,69.69,1,1.69,16.75,41.47,17.91,41.47,0,6,0,12-.14,13.83.27-1.55.4-13.37.25-19.65l-.62-1.08c-.22-14.45.37-3.39.33-17.49.51-.75.62,12.23.67,23.66.06-10.29.43-20.55-.13-24.74.21-9.67.62,1.08.84-10.58-.15-8.3-.65-19.2-.35-28.74l.09.17c.52-23.18-.77-35.47-.25-56.65l.17,2.28c.29-7.49-.1-22.23.21-35.73-.1,3.85-.47,7.2-.53-.92.32-15.53,0-26.12.4-37.47l-.5-10.9c.1-54.06-.61-267.62-.69-321.93l.08,2.13c-.09-54-.24-143.48-.37-223.95l-78.39.2-56.33.32c-6.61-.24-14.48-.34-22.42-.39L2.33,100c7.2.1,9.56.24,8.79.35s-4.62.19-10,.18h-1c0,9.29,0,16.33,0,21.68l0,6.42a25.68,25.68,0,0,0,.14,3.57c.12.78.27,1.72.37,22.87C1.1,204,.58,391.41.16,434.87c.72,23.35.18,52.49.63,75.37l-.17-2.3C.9,532.5.23,671.56.48,700.11l.1-3.84C1,721.17.25,717.78,0,737.4c.81-2.58,1.27,18.76,1.33,26.89L1.15,764c.14,12.27.84,40.06.95,60.33l-.44-.79c.14,5,.22,11.18.27,17.81,0,9.2,0,19,.06,28.06h30.6c27.78.18,70.61,1,107.75.37l24,1.26,3.51-.13s38.64-15.26-10.41-18.51l.78-.44-9.7.06c-11.64-.22-17,.29-16.23-.15l15.94.05c-11.69-.13-3.53-.36.93-.61-4.88,0-9.62-.1-13.51-.23-2.3.17,1.69.18,3.51.28-6.29.16-15,.57-22.7.37-12,0-.76-.72-14.73-.77l-46.12-.23L32.7,850.6l-10.92-.06-.88-.06,0-.62,0-.29,0-3.83q0-7.91.07-15.84.05-15.85.1-31.76c0-21.22,0-42.57,0-64.18.18-1.69.18.32.26,2.47l-.32-62.8a84.52,84.52,0,0,1,.65-8.9c-.18,1.69-.28-26.52-.33-55.37,0-14.43,0-29,0-40.12S21.45,550.54,21.48,550.08Z"/><path class="cls-5" d="M181,110.24H9.82V44.77A33.93,33.93,0,0,1,43.75,10.84H147.1A33.93,33.93,0,0,1,181,44.77Z"/><path class="cls-6" d="M179.17,100.59a32.44,32.44,0,0,0-6.9-.61A27.24,27.24,0,0,0,179.17,100.59Z"/><path class="cls-6" d="M172.23,100h0Z"/><path class="cls-6" d="M192.36,108.33l0-2.13C192.31,106.91,192.31,107.64,192.36,108.33Z"/><path class="cls-6" d="M47.06,98.58l-.39.8c-6.13,0-1.78-.91-7.45-.72-2.22,1.13-9.41-.12-11.37.48,0-.09-2.73-.12-2.56-.48a3.41,3.41,0,0,1-2,.32l-1.3,0H21.8l0,0c-.06.17,0,.18.05.37a3.83,3.83,0,0,1-.44.22c-.11-.2.09-.56.2-.63l-.31-.12.1-.39.05-.17.05-4.1L21.64,75c.1-12.76.13-24.53,0-29.31-.46,1.45-.15,4.94-.88,6.26-.41-3,.14-4.39-.29-5.71A3,3,0,0,0,21,44.74a10.35,10.35,0,0,0,.25-1.64,6.35,6.35,0,0,1,.36-1.73,2.57,2.57,0,0,1,.75-1.3l-.45-.68.6-.85c.22-1,.51-1.83.65-2.48s.42-1.06.55-1.39a3.43,3.43,0,0,1,.47-1c.11-.15.22-.27.56-.75a25.91,25.91,0,0,1,2.2-2.76c.37-.41.7-.82,1-1.21s.66-.68,1-1a22.39,22.39,0,0,1,1.65-1.69A9.54,9.54,0,0,1,32.08,25a6.9,6.9,0,0,1,.79-.5c.29-.12.58-.24.88-.34-.33.15-1.44.25-.42-.4.22.22.87-.27,1.62-.66s1.57-.79,1.93-.62l1.2-.34a13,13,0,0,1,1.46-.4c.91-.21,1.53-.49.83-.75a3.34,3.34,0,0,0,.91.09l1.18.15c.7.09,1,.18,0,.4l.85,0h1a14.57,14.57,0,0,0,2.06-.09l-2.14-.21c5.63-.11,8.69.46,12.36-.2l-2.08-.29c3.36,0,6.18-.1,7.5.63l-3.45.22c5.58,0,8.94-.07,13.59-.46l-1.66,0c5.92-.73,36.91-1.33,42.37-2.24l-2.51-.57,4.69-.48c-.56,0-2.27,1.84-2.73,1.65l14.14-.09L137,19.38l5.68,0H147l1.11.06a23.79,23.79,0,0,1,8.36,1.72A26.81,26.81,0,0,1,163.22,25a24.47,24.47,0,0,1,6.33,8c.92,2.65-.6.83-.68.87a16,16,0,0,0,.88,1.41,2.93,2.93,0,0,0,.39.53,4,4,0,0,1,.82,1.77c.07.78-.42,0-.68-.41.42,1.15.47,2.3.77,2.32-.19-1.53.66-1.08.93-1.85l.45,1.84.25,1.88-.47-.11a2.18,2.18,0,0,0,.3.71,8.73,8.73,0,0,1,.45,1.07,10.59,10.59,0,0,1,.44,1.66,21.39,21.39,0,0,1,.06,3.11c-.19,8.27,0,17.25-.14,25.56-.27-.13-.42-1.87-.58-3.62a27.3,27.3,0,0,1-.14,3.84c.47-2,.31,3.49.51,1.92,1.08,6.09.09,14,.83,19.34,1,.47,16.75,11.51,17.91,11.51,0,1.67,0,3.33-.14,3.84a19.83,19.83,0,0,0,.25-5.45l-.62-.3c-.22-4,.37-.94.33-4.85.51-.21.62,3.39.67,6.57.06-2.86.43-5.7-.13-6.87.21-2.69.62.3.84-2.94-.15-2.3-.65-5.33-.35-8l.09,0c.52-6.43-.77-9.84-.25-15.72l.17.63c.29-2.08-.1-6.17.21-9.92-.1,1.07-.47,2-.53-.26.32-4.31,0-7.25.4-10.4l-.5-3c0-.94,0-2,0-3.31q0-.47,0-1c0-.36,0-.61,0-1.13l-.15-2.94a44.32,44.32,0,0,0-3.26-13.73A44.82,44.82,0,0,0,147,0L134.26.13,116,.28l.59-.08L70,.49,44.24.7c-.44,0-1.18,0-1.81.07L40.5.89a30.71,30.71,0,0,0-3.77.49L34.9,1.7l-1.77.47a30.79,30.79,0,0,0-3.41,1,41.84,41.84,0,0,0-11.25,6,27.72,27.72,0,0,0-3.19,2.14,40.46,40.46,0,0,0-3.15,2.79c-1,1-2,2.06-2.85,3.16s-1.7,2.15-2.4,3.17c.84-1.1,1.27-1.35,1.25-1.17a8.92,8.92,0,0,1-1,1.75A37.5,37.5,0,0,0,4,27c-.42.95-.4,1.1-.4,1.25a3.79,3.79,0,0,1-.29,1.32l-.71,2.26c-.28,1.05-.6,2.45-1,4.27a54.19,54.19,0,0,0-.71,7.42l0,1.14c0,.37,0,.64,0,1l0,2c0,1.36,0,2.79,0,4.29,0,6,0,13,0,20.25C.59,90.11.4,108.92.3,119.76l9.38.13c3-.18,6.11-.28,9.26-.34l6.66-.08c3.63,0,7.24,0,10.41-.22l-.64.17c6.82-.27,45.41.4,53.34.14l-1.06-.1c6.91-.45,6,.34,11.41.59-.72-.81,5.21-1.27,7.46-1.33l-.09.18c3.41-.14,11.12-.84,16.74-.95l-.22.44c4.69-.48,13.51-.28,16.88-.33,7.71.18,19.6,1,29.9.37l6.66,1.26,1-.13s10.72-15.26-2.89-18.51l.22-.44-2.69.06c-3.23-.22-4.72.3-4.5-.15l4.42.05c-3.24-.13-1-.36.26-.61-1.35,0-2.67-.1-3.75-.23-.64.17.47.18,1,.28a34.78,34.78,0,0,1-6.3.37c-3.32,0-.21-.72-4.09-.77-20.45-.34-40.26-.86-60.93-.76-.47-.18.09-.18.69-.26-6.23.19-11.76.12-17.43.32a7.31,7.31,0,0,1-2.47-.65c.47.18-7.36.28-15.37.33l-11.13,0C49.3,98.62,47.19,98.6,47.06,98.58Z"/><path class="cls-7" d="M86.52,971.83a10.84,10.84,0,0,0,17.8,0l23.35-33.56H63.18Z"/><path class="cls-8" d="M79.29,978.24a4.48,4.48,0,0,0,.88,1.74,17.34,17.34,0,0,0,1.65,1.79A22.76,22.76,0,0,0,79.29,978.24Z"/><path class="cls-8" d="M81.83,981.8h0l0,0Z"/><path class="cls-8" d="M95.46,964.85l-.42-.55A2.65,2.65,0,0,0,95.46,964.85Z"/><path class="cls-8" d="M129.69,955.79l-.7-.39c2.16-3.13,1.64-.76,3.49-3.76-.26-.62.6-1.8,1.56-3s2-2.43,2-2.88c.1,0,1.15-1.44,1.58-1.44-.55-.28.84-1.45,1.25-2.32,0-.27-.44.31-.87.61l1.1-2c.85-.88,1.55-1.26,1-.4,1.6-2.15,5.47-7.47,9.92-13.65-11.22-.19-25.23-.34-29.83-.15.62.46,3.09.15,3.33.88-2.17.41-2.64-.14-3.75.29,0-.54-1-.61-2.08-.67s-2.27-.14-2.77-.68l-.81.61-.81-.38c-4.34.32-4.78.4-5.15.38-.18,0-.32,0-.89-.09l-1.22-.06-1.77-.06c-2.2.09-3.24.95-4.47.63.18,0,.67.38.1.54-.1-.54-1.52.39-1.79-.16-.56.07-2.36,0-1.75.74-.31-.37-1.92-.52-1-.84a3.81,3.81,0,0,0-1.46,0l.7.21c-1.84.11-2.84-.46-4,.2l.68.29c-1.1,0-2,.1-2.45-.63l1.13-.22c-.91,0-1.64,0-2.33.09-.35,0-.68.07-1,.13l-.26,0a2.68,2.68,0,0,1-.36.05l-1,.13,1,0c-1.81.36-7.26.7-12.35,1.05s-9.83.73-10.78,1.19l2,.57-1.91.48c.27,0-1-1.84-.48-1.65l-15.55.18c5.86,8.25,12.29,17.39,13.76,19.9.82,1.73-.88.31-1,.27,1.78,2.19,1.37.92,2.59,2.75.23.51-.58,0-.87-.33.64.81,1,1.6,1.29,1.61-.48-1,.61-.72.84-1.19L64.94,955h-.54c.36.54,2.14,1,3.38,3.15.58.92,1.21,1.86,1.85,2.81L71,962.92c.81,1.16,1.62,2.31,2.36,3.45-.24.12-.7-.26-1.15-.64a3,3,0,0,1,.6,1.11c0-.81.91.76.78.22,2,1,2.68,3.69,4.29,4.71.89-.43,15.9-6.48,16.85-7.14a4.41,4.41,0,0,1,.6,1.11c.14-.27-.36-1.22-.81-1.6l-.57.27c-.93-1,.13-.46-.64-1.49.38-.35,1.14.56,1.77,1.38-.48-.8-.71-1.77-1.38-1.77-.33-.84.57-.27.14-1.27-.55-.53-1.52-1.06-1.77-1.94l.08,0c-.77-2-2.47-2.2-3.14-4.07l.26.07c-.15-.72-1.23-1.6-1.67-2.78.12.34,0,.8-.48.23a8.37,8.37,0,0,0-.91-1.61l-.22-.33-.1-.17c0-.06-.07-.12-.05-.11a.66.66,0,0,1,.14-.12,3.2,3.2,0,0,1-.46.2c0-.11-.22-.25-.54-.52s-.79-.69-1.21-1.09a6.1,6.1,0,0,1,.63-.18l.08.08a2.86,2.86,0,0,1,.68-.15l1.11-.14c5.75-.11,11.54-.27,15.41-.61a6.67,6.67,0,0,0,2,.39l1,.05a.42.42,0,0,1,.15.07c-.09-.2,0-.55.06-.53.74.06.07-.34,1-.55a10.41,10.41,0,0,1,4.07.06,14.13,14.13,0,0,1-1.65,1.64c.44,0,.33.23.19.45s-.32.44-.18.64l-.18,0a5.91,5.91,0,0,1-1.2,1.61L103.91,956c-.92,1.28-1.64,2.33-2,2.9l.28-.23c-.92,2.11-1.39,1.4-2.61,2.72.8.27.07,2.12-.3,2.76L99.2,964c-.26.5-.61,1.36-1,2.3a7.49,7.49,0,0,0-.45,1.11.81.81,0,0,1-.15.44l-.3-.33c.07.64-.75.89-1,1a2.76,2.76,0,0,1-1.22-.38,2,2,0,0,0-1.15-.35,3.88,3.88,0,0,1,.22-.62,4.28,4.28,0,0,1,.32-.57l-.12,0s-.73.6-1.95,1.45-3,1.91-4.78,3a23.81,23.81,0,0,0-5,3.68,5.69,5.69,0,0,0-1.34,2.4,4.56,4.56,0,0,0-.13,1.4,5,5,0,0,0,.42,1.47l-.4.22a15,15,0,0,0,1.26,1.08,7.64,7.64,0,0,0,1.76,1.31c.42.21.6.29.42.44a19.83,19.83,0,0,1-2.2-1.65c1.52,1.33.27.68-.52.37.65.57,1.29,1.13,1.79,1.63.44.08-.16-.31-.35-.59a16.47,16.47,0,0,0,1.78.75,14.65,14.65,0,0,1,1.86.9c.94.43.92.6.92.8s0,.44,1.24.83a21.74,21.74,0,0,0,19-2.53,23.81,23.81,0,0,0,2-1.53c.62-.56,1.24-1.14,1.82-1.75s1.07-1.27,1.58-1.93l.78-1.05c1-1.34,1.94-2.7,2.89-4.1.24,0,.13.13.09.33,1-1.78,2.09-3.22,3-4.85a1.63,1.63,0,0,1,1-.29c-.24,0,1.14-2.13,2.6-4.3l3.83-5.54C128.82,957,129.61,955.85,129.69,955.79Z"/><polygon class="cls-9" points="9.82 861.56 63.18 938.27 127.67 938.27 181.03 861.56 9.82 861.56"/><path class="cls-10" d="M2.77,868.33a22.28,22.28,0,0,0,2.75,5A18.68,18.68,0,0,0,2.77,868.33Z"/><path class="cls-10" d="M5.53,873.39l0,0,0-.06Z"/><path class="cls-10" d="M11.4,872.89l1.76,0A17,17,0,0,0,11.4,872.89Z"/><path class="cls-10" d="M80.29,949.93l.32-.8c5.06,0,1.47.91,6.15.72,1.83-1.13,7.77.12,9.39-.48,0,.09,2.25.12,2.11.48.7-.61,2.36-.14,3.8-.3.52-.17-.38-.18-.78-.37l3.31-.22c1.29.2,1.61.56.21.63l8.94.17,6.55.1,13.48.1,16-22.69c3.83-5.45,7-10,8.47-12.3-1.06.72-2.45,3.26-3.67,3.74,1.07-2.25,2.19-2.9,2.46-4,1.43-.16,3.3-4.29,5.27-5.2l-.1-.93,1-.79c5.66-9.26,1.16-2.21,6.76-10,3.1-4.62,3.9-7.27,5.93-9.63-.27.37-1.28,1.16-.58-.11.15,0,.34-.17.55-.49.11-.16.22-.34.34-.55l.18-.31c.07-.12.09-.17.25-.42a17.43,17.43,0,0,1,2.69-3.72c1.46-2.21,6.42-9.22,3.91-6.91,1.21-1.09,5.77-7.39,3.58-3.68,1.51-2.13,3.11-4.24,3.94-5.73L188.61,869c2.4-3.55,4.48-6.34,6.27-8.83a50,50,0,0,0,4.25-6.65l-2.33,2.84c1.17-1.71,2.24-3.3,3.28-4.73-2.35,0-4-.21-4.5-.63l5.79-.22c-8.76,0-14.2.07-21.75.46l2.53,0c-2.47.18-7.27.36-13.09.53l-9.34.26c-2,0-2.49.09-3.5.13l-2.83.13c-7.57.36-15.09.73-17.34,1.19l2.07.57-3.87.48c.46,0,1.87-1.84,2.25-1.65-8.3.05-51.48.49-59.15.11-3.09-.31-.56-.9-.52-1-3.76.21-1.62.6-4.82.55-.87-.1.18-.44.67-.52-1.4.07-2.7-.13-2.81.14,1.75.21,1,.91,1.75,1.36l-4.12-.06.18-.44c-.92,0-2.33,1.21-6.37,1-6.82-.19-14.23,0-21.09-.14.11-.27,1.55-.42,3-.58a18.69,18.69,0,0,1-3.17-.14c1.66.47-2.88.31-1.58.51-5,1.08-11.53.09-16,.83-.39,1-9.5,16.75-9.5,17.91a27.41,27.41,0,0,1-3.17-.14,13.57,13.57,0,0,0,4.5.25l.25-.62c3.31-.22.78.37,4,.33.17.51-2.8.62-5.42.67,2.36.06,4.71.43,5.67-.13,2.22.21-.25.62,2.42.84,1.9-.15,4.4-.65,6.58-.35l0,.09c5.31.52,8.12-.77,13-.25l-.52.17c1.71.29,5.09-.1,8.18.21-.88-.1-1.65-.47.21-.53,3.56.32,6,0,8.58.4l2.5-.5c12.38.1,61.29-.61,73.73-.69l-.49.08,21.88-.18,3.18,0,.45,0,.9,0,2-.11c-.36.62-.73,1.26-1.09,1.93l-.27.51-.13.26-.07.13,0,.07,0,0-.11.16-3.39,5.19c-2.13,2.21-4.42,5.7-6.34,8.22,1.17-1.33,1.11-.63.31.48-5.55,7.87-.09.73-5.48,8.84-1.91,3-5.73,8.57-10.24,15l-7.13,10.13-3.63,5.11-.89,1.14-.81,0-.38,0H121l-5.93-.11c-3.63-.08-6.55-.16-8.36-.23-5.35.72-12,.18-17.26.63l.53-.17c-1.66.08-5.61.08-10.52,0L71.52,929l-2.07,0L69,929,68,929l-.67-1.05-2.48-3.61c-1.72-2.48-3.1-4.45-3.91-5.51l.42.78c-3.62-4.42-2.53-4.24-4.9-8.07-.33.95-3.5-2.8-4.61-4.3l.19,0c-1.72-2.23-5.93-7.05-8.67-10.8l.47-.1c-2.6-2.91-6.59-9-8.22-11.25-3.48-5.33-8.45-13.82-13.79-20.47l-2.1-5.23-.56-.59S1.62,860.16,5.37,871.24l-.47.11,1.32,1.79c1.34,2.31,2.47,3,2,3.13l-2-3c1.42,2.27.16.87-.63.17a29.18,29.18,0,0,1,1.58,2.67c.44.34-.07-.42-.23-.82a23.78,23.78,0,0,1,3.27,4.06c1.53,2.27-.49.55,1.3,3.21,9.35,14,18.27,27.76,28.09,41.71.07.42-.19,0-.54-.32,3.09,4.11,5.64,7.9,8.48,11.62a5.26,5.26,0,0,1,.63,2c0-.17.59.6,1.58,2l7.36,10.39,17.37-.05C77.76,949.88,80.17,949.9,80.29,949.93Z"/><path class="cls-11" d="M42.93,151.28a76.65,76.65,0,0,0-.46,9.23A64.26,64.26,0,0,0,42.93,151.28Z"/><path class="cls-11" d="M42.47,160.57v.05s0-.08,0-.12Z"/><path class="cls-11" d="M58.67,831.32c0-.86,0-1.85,0-2.85C58.64,829.43,58.64,830.4,58.67,831.32Z"/><path class="cls-11" d="M41.43,328l.6.53c0,8.2-.69,2.39-.54,10,.85,3-.09,12.6.36,15.22-.07-.06-.09,3.65-.36,3.42.46,1.14.11,3.82.22,6.16.13.85.14-.62.28-1.26l.16,5.36c-.15,2.1-.42,2.61-.47.33-.17,14-.61,81.32-.38,96.43.35-1.94.11-6.6.66-8.37.31,4-.11,5.88.21,7.64-.81,1.53-.19,8.77-1,11.8l.46,1.15-.28,2c.48,17.56.23,4,.13,19.58.07,9,.71,13.29.47,18.3,0-.74.29-2.73.4-.4-.4.4.29,6.21-.12,7.35.05,2.29,0,9.69.55,7.19-.28,1.26-.39,7.86-.63,3.93,0,2.23-.1,4.39,0,6l.15-2.86c.08,7.53-.35,11.63.15,16.53l.22-2.78c0,4.5.08,8.26-.47,10l-.17-4.62c0,7.46.05,12,.34,18.19l0-2.22c.55,7.93,1,49.39,1.68,56.69l.42-3.36.36,6.28c0-.74-1.38-3-1.24-3.65,0,13.46.37,83.46.08,95.89-.24,5-.67.9-.74.85.16,6.1.45,2.63.41,7.82-.08,1.42-.33-.29-.39-1.09.05,2.27-.1,4.38.1,4.56.15-2.84.68-1.64,1-2.84l0,6.67-.33-.3c0,1.49.91,3.77.73,10.33-.14,11.06,0,23.07-.1,34.2a25.58,25.58,0,0,1-.43-4.85c0,1.49,0,3.76-.1,5.14.35-2.69.23,4.67.38,2.57.81,8.15.07,18.69.62,25.88.73.63,12.56,15.4,13.43,15.4,0,2.23,0,4.45-.1,5.14a47,47,0,0,0,.19-7.3l-.47-.4c-.16-5.37.28-1.26.25-6.5.38-.28.46,4.54.5,8.79,0-3.82.32-7.63-.1-9.19.16-3.59.47.4.63-3.93-.11-3.08-.49-7.13-.26-10.67l.07.06c.39-8.61-.58-13.17-.19-21l.13.85c.22-2.78-.08-8.25.16-13.27-.08,1.43-.35,2.67-.4-.34.24-5.77,0-9.7.3-13.91l-.37-4c.07-20.07-.46-99.37-.52-119.53l.06.79c-.19-30.73-.16-93.8-.67-125.55.37-4.91.28-11.69.38-16.81-.15,2.85-.41,1.87-.4-.35,0-15.61-.25-1.05-.41-16.84-.34-18.18,0-87.76.36-103.9-.54-8.67-.13-19.49-.47-28l.13.85c-.2-9.12.3-60.76.1-71.36l-.08,1.42c-.34-9.24.26-8,.44-15.27-.61,1-1-7-1-10l.13.11c-.1-4.56-.63-14.88-.71-22.4l.33.29c-.36-6.27-.21-18.07-.24-22.58.14-10.31.72-26.22.28-40l.95-8.91-.09-1.3s-11.45-14.35-13.89,3.87l-.33-.29,0,3.6c-.16,4.32.22,6.32-.11,6l0-5.92c-.1,4.34-.27,1.31-.46-.35,0,1.81-.07,3.57-.17,5,.13.86.14-.63.21-1.3a82.66,82.66,0,0,1,.28,8.43c0,4.45-.54.28-.57,5.47-.26,27.36-.64,53.86-.57,81.51-.14.63-.13-.12-.19-.92.14,8.33.09,15.73.24,23.32a16,16,0,0,1-.49,3.31C41.48,284.2,41.5,327.34,41.43,328Z"/><path class="cls-11" d="M91,151.28a76.64,76.64,0,0,0-.46,9.23A64.26,64.26,0,0,0,91,151.28Z"/><path class="cls-11" d="M90.51,160.57v.05s0-.08,0-.12Z"/><path class="cls-11" d="M106.71,831.32c0-.86,0-1.85,0-2.85C106.68,829.43,106.68,830.4,106.71,831.32Z"/><path class="cls-11" d="M89.47,328l.6.53c0,8.2-.69,2.39-.54,10,.85,3-.09,12.6.36,15.22-.07-.06-.09,3.65-.36,3.42.46,1.14.11,3.82.22,6.16.13.85.14-.62.28-1.26l.16,5.36c-.15,2.1-.42,2.61-.47.33-.16,14-.61,81.32-.38,96.43.35-1.94.11-6.6.66-8.37.31,4-.11,5.88.21,7.64-.81,1.53-.19,8.77-1,11.8l.46,1.15-.28,2c.48,17.56.23,4,.13,19.58.07,9,.71,13.29.47,18.3,0-.74.29-2.73.4-.4-.4.4.29,6.21-.12,7.35.05,2.29,0,9.69.55,7.19-.28,1.26-.39,7.86-.63,3.93,0,2.23-.1,4.39,0,6l.15-2.86c.08,7.53-.35,11.63.15,16.53l.22-2.78c0,4.5.08,8.26-.47,10l-.17-4.62c0,7.46.05,12,.34,18.19l0-2.22c.55,7.93,1,49.39,1.68,56.69l.42-3.36.36,6.28c0-.74-1.38-3-1.24-3.65,0,13.46.37,83.46.08,95.89-.24,5-.67.9-.74.85.16,6.1.45,2.63.41,7.82-.08,1.42-.33-.29-.39-1.09.05,2.27-.1,4.38.1,4.56.15-2.84.68-1.64,1-2.84l0,6.67-.33-.3c0,1.49.91,3.77.73,10.33-.14,11.06,0,23.07-.1,34.2a25.58,25.58,0,0,1-.43-4.85c0,1.49,0,3.76-.1,5.14.35-2.69.23,4.67.38,2.57.81,8.15.07,18.69.62,25.88.73.63,12.56,15.4,13.43,15.4,0,2.23,0,4.45-.1,5.14a47,47,0,0,0,.19-7.3l-.47-.4c-.16-5.37.28-1.26.25-6.5.38-.28.46,4.54.5,8.79,0-3.82.32-7.63-.1-9.19.16-3.59.47.4.63-3.93-.11-3.08-.49-7.13-.26-10.67l.07.06c.39-8.61-.58-13.17-.19-21l.13.85c.22-2.78-.08-8.25.16-13.27-.08,1.43-.35,2.67-.4-.34.24-5.77,0-9.7.3-13.91l-.37-4c.07-20.07-.46-99.37-.52-119.53l.06.79c-.19-30.73-.16-93.8-.67-125.55.37-4.91.28-11.69.38-16.81-.15,2.85-.41,1.87-.4-.35,0-15.61-.25-1.05-.41-16.84-.34-18.18,0-87.76.36-103.9-.54-8.67-.13-19.49-.47-28l.13.85c-.2-9.12.3-60.76.1-71.36l-.08,1.42c-.34-9.24.26-8,.44-15.27-.61,1-1-7-1-10l.13.11c-.1-4.56-.63-14.88-.71-22.4l.33.29c-.36-6.27-.21-18.07-.24-22.58.14-10.31.72-26.22.28-40l.95-8.91-.09-1.3s-11.45-14.35-13.89,3.87l-.33-.29,0,3.6c-.16,4.32.22,6.32-.11,6L91,161c-.1,4.34-.27,1.31-.46-.35,0,1.81-.07,3.57-.17,5,.13.86.14-.63.21-1.3a82.66,82.66,0,0,1,.28,8.43c0,4.45-.54.28-.57,5.47-.26,27.36-.64,53.86-.57,81.51-.14.63-.13-.12-.19-.92.14,8.33.09,15.73.24,23.32a16,16,0,0,1-.49,3.31C89.52,284.2,89.54,327.34,89.47,328Z"/><path class="cls-11" d="M139,151.28a76.62,76.62,0,0,0-.46,9.23A64.26,64.26,0,0,0,139,151.28Z"/><path class="cls-11" d="M138.55,160.57v.05s0-.08,0-.12Z"/><path class="cls-11" d="M154.75,831.32c0-.86,0-1.85,0-2.85C154.72,829.43,154.72,830.4,154.75,831.32Z"/><path class="cls-11" d="M137.51,328l.6.53c0,8.2-.69,2.39-.54,10,.85,3-.09,12.6.36,15.22-.07-.06-.09,3.65-.36,3.42.46,1.14.11,3.82.22,6.16.13.85.14-.62.28-1.26l.16,5.36c-.15,2.1-.42,2.61-.47.33-.17,14-.61,81.32-.38,96.43.35-1.94.11-6.6.66-8.37.31,4-.11,5.88.21,7.64-.81,1.53-.19,8.77-1,11.8l.46,1.15-.28,2c.48,17.56.23,4,.13,19.58.07,9,.71,13.29.47,18.3,0-.74.29-2.73.4-.4-.4.4.29,6.21-.12,7.35.05,2.29,0,9.69.55,7.19-.28,1.26-.39,7.86-.63,3.93,0,2.23-.1,4.39,0,6l.15-2.86c.08,7.53-.35,11.63.15,16.53l.22-2.78c0,4.5.08,8.26-.47,10l-.17-4.62c0,7.46,0,12,.34,18.19l0-2.22c.55,7.93,1,49.39,1.68,56.69l.42-3.36.36,6.28c0-.74-1.38-3-1.24-3.65,0,13.46.37,83.46.08,95.89-.24,5-.67.9-.74.85.16,6.1.45,2.63.41,7.82-.08,1.42-.33-.29-.39-1.09.05,2.27-.1,4.38.1,4.56.15-2.84.68-1.64,1-2.84l0,6.67-.33-.3c0,1.49.91,3.77.73,10.33-.14,11.06,0,23.07-.1,34.2a25.6,25.6,0,0,1-.43-4.85c0,1.49,0,3.76-.1,5.14.35-2.69.23,4.67.38,2.57.81,8.15.07,18.69.62,25.88.73.63,12.56,15.4,13.43,15.4,0,2.23,0,4.45-.1,5.14a47,47,0,0,0,.19-7.3l-.47-.4c-.16-5.37.28-1.26.25-6.5.38-.28.46,4.54.5,8.79,0-3.82.32-7.63-.1-9.19.16-3.59.47.4.63-3.93-.11-3.08-.49-7.13-.26-10.67l.07.06c.39-8.61-.58-13.17-.19-21l.13.85c.22-2.78-.08-8.25.16-13.27-.08,1.43-.35,2.67-.4-.34.24-5.77,0-9.7.3-13.91l-.37-4c.07-20.07-.46-99.37-.52-119.53l.06.79c-.19-30.73-.16-93.8-.67-125.55.37-4.91.28-11.69.38-16.81-.15,2.85-.41,1.87-.4-.35,0-15.61-.25-1.05-.41-16.84-.34-18.18,0-87.76.36-103.9-.54-8.67-.13-19.49-.47-28l.13.85c-.2-9.12.3-60.76.1-71.36l-.08,1.42c-.34-9.24.26-8,.44-15.27-.61,1-1-7-1-10l.13.11c-.1-4.56-.63-14.88-.71-22.4l.33.29c-.36-6.27-.21-18.07-.24-22.58.14-10.31.72-26.22.28-40l.95-8.91-.09-1.3s-11.45-14.35-13.89,3.87l-.33-.29,0,3.6c-.16,4.32.22,6.32-.11,6l0-5.92c-.1,4.34-.27,1.31-.46-.35,0,1.81-.07,3.57-.17,5,.13.86.14-.63.21-1.3a82.63,82.63,0,0,1,.28,8.43c0,4.45-.54.28-.57,5.47-.26,27.36-.64,53.86-.57,81.51-.14.63-.13-.12-.19-.92.14,8.33.09,15.73.24,23.32a16,16,0,0,1-.49,3.31C137.56,284.2,137.58,327.34,137.51,328Z"/></g></svg>