<svg xmlns="http://www.w3.org/2000/svg" viewBox="0 0 259.31 170.27"><defs><style>.cls-1{fill:#e3d7c7;}</style></defs><title>mountain</title><g id="圖層_2" data-name="圖層 2"><path class="cls-1" d="M243.94,48.44c-4.62-22.08-27.39-37.17-49.79-29.32a39.12,39.12,0,0,0-14.5,9,42.46,42.46,0,0,0-4.79,5.37A17,17,0,0,0,165.94,30c-2.57-.22-5.19-.07-7.76-.07h-76a60.66,60.66,0,0,0-8.41.21C66.26,31.2,61.17,36.6,59.12,43.63S54.91,58,52.55,65.06q-1.11,3.33-2.25,6.64c-.57,1.66-1.81,3.8-2,5.67q-2.65,7.4-5.47,14.75a29.27,29.27,0,0,0-5.25.15C24.38,93.85,14.67,103.56,11.81,116A15.17,15.17,0,0,0,.38,127.14c-1.33,5.35.75,14.89,7.28,15.5a113,113,0,0,0,13.83.13c-1.17,2.57-2.33,5.14-3.52,7.7-1.74,3.73-4.85,8.06-4.15,12.38.73,4.5,4.49,7.05,8.83,7.29,5.21.29,10.52,0,15.74,0H152.45a4,4,0,0,0,1.67,0h58.12c2,0,3.95.11,5.9,0,6.19-.36,10.2-5.74,8.24-11.75a4.16,4.16,0,0,0-.31-.71c0-.06,0-.12-.06-.18-11.81-24.93-22.74-50.28-32.2-76.2h44.31c3.89,0,7.81.12,11.7,0,4.18-.13,6.4-3.41,8-7.12C262.67,62.68,255.2,51,243.94,48.44ZM64.2,53.11c2.07-6.91,3.11-15.12,12-15.66,7.79-.47,15.75,0,23.56,0h61.36c4.65,0,9,.65,11.56,4.33.75,2.56,2.05,5.2,2.82,7.83.21.73.44,1.45.65,2.17l.7,2.35c.26.87.51,1.73.78,2.6,2.09,6.78,4.35,13.5,6.7,20.19a15.31,15.31,0,0,1-3.82,1.15h0l-.82.1-.19,0-.75,0h-.25l-.72,0-.26,0-.72-.08-.16,0a13.11,13.11,0,0,1-1.42-.31l-.32-.09-.54-.18-.48-.17-.5-.21-.53-.24-.47-.23-.58-.31-.43-.24-.66-.41-.36-.23c-.34-.23-.68-.47-1-.72h0a54.06,54.06,0,0,1-6.65-6.36c-.43-.45-.86-.91-1.3-1.35h0a25,25,0,0,0-6.73-5.17,11.76,11.76,0,0,0-3.26-1.06,9.92,9.92,0,0,0-1.54-.13c-4.68,0-8.61,3.29-12.09,6.89l-1.35,1.42-.05.06c-.9,1-1.78,1.93-2.63,2.82-3.44,3.59-7.74,7.35-13.11,6.76a8.14,8.14,0,0,1-2.51-.72h0c-3.43-1.59-6.1-5.27-8.9-7.54a25.16,25.16,0,0,0-9.93-5.19c-.49-.11-1-.2-1.48-.26a13.15,13.15,0,0,0-2.95-.05c-.28,0-.56.07-.84.12a11.54,11.54,0,0,0-1.17.27l-.32.1a12.76,12.76,0,0,0-5.84,4c-.75.86-1.46,1.75-2.16,2.64a55.39,55.39,0,0,1-5.23,6.05l-.19.16a20.82,20.82,0,0,1-2.84,2.23c-2.61,1.69-5.67,3.14-8.79,3.23a9.73,9.73,0,0,1-3.13-.41,11.64,11.64,0,0,1-1.33-.51l-.42-.2c-.29-.14-.57-.29-.85-.45l-.47-.28c-.25-.16-.49-.33-.73-.5L60,80.88c-.25-.19-.48-.39-.72-.59s-.6-.53-.89-.8l-.41-.39-.68-.7L57,78.13l-.74-.82h0C59.08,69.29,61.76,61.24,64.2,53.11Zm-42,108.44c-.27-3.55,5.19-14.23,7.54-18.92H41.08Zm50.21-50.21a16.09,16.09,0,0,0-3.71-.64c-.13-.31-.26-.61-.4-.91s-.28-.58-.43-.87l-.25-.5A30.41,30.41,0,0,0,53.63,94.93l-1-.46-.49-.21q-.86-.35-1.74-.66h0l-.12,0q1.59-4.18,3.14-8.39c.66.54,1.29,1,1.83,1.45l.17.13a19.42,19.42,0,0,0,10.48,4.31c6.25.45,12.53-2.75,17.24-6.62a31.35,31.35,0,0,0,4.51-4.77c.95-1,1.85-2.11,2.7-3.2,3.74-4.8,6.2-5.62,11.83-2a28.73,28.73,0,0,1,3.93,3.15ZM8.92,135.13A7.75,7.75,0,0,1,15,123a3.9,3.9,0,0,0,3.75-3.75A22.72,22.72,0,0,1,38.94,99.63a22.16,22.16,0,0,1,7,.49A24,24,0,0,1,55.57,105l.17.15q.46.4.89.82A23.31,23.31,0,0,1,60,110.19l.06.09c.3.48.58,1,.84,1.46L61,112c.23.44.43.89.63,1.35l.17.4c.24.57.45,1.15.65,1.74a4.42,4.42,0,0,0,1.59,2.14,3,3,0,0,0,2,.61,9.66,9.66,0,0,1,5.15.81,4.9,4.9,0,0,0,2,1.15,10.53,10.53,0,0,1,2.74,3,11,11,0,0,1-.5,12H8.92ZM33.8,162.64,51.74,144.7A4.41,4.41,0,0,0,53,142.63h3.26c6.82,0,14,.74,20.79,0,4.46-.49,6.9-5.19,7.8-10a17.41,17.41,0,0,0,.38-3.23,17.9,17.9,0,0,0-.29-4.4,17.42,17.42,0,0,0-4.71-8.75l32.48-32.48.23-.26a15.51,15.51,0,0,0,3.22,1.66,15.9,15.9,0,0,0,7.91.72l.85-.14h0a21.18,21.18,0,0,0,6-2.08,31.7,31.7,0,0,0,8-6.45l.44-.46,1.29-1.38,1.79-1.94.17-.19c2.86-3.07,5.9-6.8,10.11-3.9a20,20,0,0,1,1.8,1.42c.31.31.62.64.92,1l-.17.16L76.59,150.45l-11.1,11.1a4.8,4.8,0,0,0-.83,1.09H33.8Zm43.32,0,73.28-73.28,11.1-11.1.12-.14A39.07,39.07,0,0,0,168.31,83c.55.31,1.1.58,1.64.84q.59.29,1.2.54a19,19,0,0,0,13.78.34l-67.07,67.07-9.71,9.71a4.8,4.8,0,0,0-.83,1.09Zm42.67,0,62.57-62.56L190,92.45q4.17,11,8.66,21.84a4.63,4.63,0,0,0-1.46,1l-47.25,47.25-.09.09H119.8Zm88.74,0h-46l39.7-39.7q8.08,19,16.93,37.62C220,164.08,209.93,162.64,208.53,162.64Zm40.8-88.85H191.13l-.9-2.58q-.61-1.77-1.21-3.54-1-3.09-2.06-6.2l-.54-1.66q-1.09-3.38-2.11-6.79c-1.27-4.39-2.23-9.19-4.22-13.33C187,28.61,199.87,22.36,213,25.28a31.09,31.09,0,0,1,24,26.45,4,4,0,0,0,.58,1.64,3.65,3.65,0,0,0,3.17,2.11A11.43,11.43,0,0,1,249.34,73.79Z"/><path class="cls-1" d="M50.82,70.16c.58-1.7,1.16-3.39,1.73-5.1C54.91,58,57,50.81,59.12,43.63S66.26,31.2,73.74,30.15a60.66,60.66,0,0,1,8.41-.21h22.58A37.24,37.24,0,1,0,50.82,70.16Z"/></g></svg>