<?xml version="1.0" encoding="utf-8"?>
<!-- Generator: Adobe Illustrator 21.0.0, SVG Export Plug-In . SVG Version: 6.00 Build 0)  -->
<!DOCTYPE svg PUBLIC "-//W3C//DTD SVG 1.1//EN" "http://www.w3.org/Graphics/SVG/1.1/DTD/svg11.dtd">
<svg version="1.1" id="Layer_1" xmlns="http://www.w3.org/2000/svg" xmlns:xlink="http://www.w3.org/1999/xlink" x="0px" y="0px"
	 viewBox="0 0 40 40" style="enable-background:new 0 0 40 40;" xml:space="preserve">
<style type="text/css">
	.st0{opacity:0.55;}
	.st1{fill:#FF5252;}
</style>
<path id="path-1_1_" class="st0" d="M20,40c11,0,20-9,20-20S31,0,20,0S0,9,0,20S9,40,20,40z"/>
<path id="Star" class="st1" d="M20.7,26.1c-0.4-0.2-1.1-0.2-1.5,0l-4.7,2.5c-0.4,0.2-0.7,0-0.6-0.4l0.9-5.2c0.1-0.5-0.1-1.1-0.5-1.4
	l-3.8-3.7c-0.3-0.3-0.2-0.6,0.2-0.7l5.2-0.8c0.5-0.1,1-0.5,1.2-0.9l2.3-4.7c0.2-0.4,0.5-0.4,0.7,0l2.3,4.7c0.2,0.4,0.7,0.8,1.2,0.9
	l5.2,0.8c0.5,0.1,0.6,0.4,0.2,0.7l-3.8,3.7c-0.3,0.3-0.5,1-0.5,1.4l0.9,5.2c0.1,0.5-0.2,0.7-0.6,0.4L20.7,26.1z"/>
</svg>
