<?xml version="1.0" encoding="UTF-8" standalone="no"?>
<svg width="15px" height="18px" viewBox="0 0 15 18" version="1.1" xmlns="http://www.w3.org/2000/svg" xmlns:xlink="http://www.w3.org/1999/xlink">
    <!-- Generator: Sketch 39.1 (31720) - http://www.bohemiancoding.com/sketch -->
    <title>placeholder</title>
    <desc>Created with Sketch.</desc>
    <defs></defs>
    <g id="Page" stroke="none" stroke-width="1" fill="none" fill-rule="evenodd">
        <g id="餐廳資訊v" transform="translate(-20.000000, -1440.000000)">
            <path d="M27.2077558,1440 C23.2380415,1440 20,1443.22481 20,1447.1938 C20,1447.67442 20.0467025,1448.15504 20.1401076,1448.62016 C20.1401076,1448.65116 20.1556751,1448.68217 20.1556751,1448.72868 C20.9496179,1452.27907 26.538353,1457.6124 26.7718656,1457.82946 C26.8964057,1457.95349 27.0520807,1458 27.2077558,1458 C27.3634309,1458 27.5191059,1457.93798 27.643646,1457.82946 C27.8771586,1457.5969 33.4347587,1452.27907 34.2287015,1448.8062 C34.2287015,1448.77519 34.244269,1448.74419 34.244269,1448.71318 C34.3532416,1448.21705 34.3999441,1447.70543 34.3999441,1447.1938 C34.4155116,1443.22481 31.1774701,1440 27.2077558,1440 L27.2077558,1440 Z M32.9988685,1448.48062 L32.9988685,1448.52713 C32.4073032,1451.10078 28.5309939,1455.16279 27.2077558,1456.48062 C25.8845177,1455.16279 21.9926409,1451.10078 21.4010756,1448.46512 C21.4010756,1448.43411 21.4010756,1448.4186 21.3855081,1448.3876 C21.3076706,1447.9845 21.2609681,1447.5814 21.2609681,1447.17829 C21.2609681,1443.92248 23.9230118,1441.25581 27.1921883,1441.25581 C30.4613648,1441.25581 33.138976,1443.90698 33.138976,1447.17829 C33.138976,1447.62791 33.0922735,1448.06202 32.9988685,1448.48062 L32.9988685,1448.48062 Z M27.2077558,1444.04651 C25.8689502,1444.04651 24.7947922,1445.13178 24.7947922,1446.44961 C24.7947922,1447.76744 25.8845177,1448.85271 27.2077558,1448.85271 C28.5309939,1448.85271 29.6207194,1447.78295 29.6207194,1446.44961 C29.6207194,1445.11628 28.5465614,1444.04651 27.2077558,1444.04651 Z M27.2077558,1447.5969 C26.569488,1447.5969 26.0557603,1447.08527 26.0557603,1446.44961 C26.0557603,1445.81395 26.569488,1445.30233 27.2077558,1445.30233 C27.8460236,1445.30233 28.3597513,1445.81395 28.3597513,1446.44961 C28.3597513,1447.08527 27.8460236,1447.5969 27.2077558,1447.5969 Z" id="placeholder"></path>
        </g>
    </g>
</svg>