<?xml version="1.0" encoding="UTF-8" standalone="no"?>
<svg width="40px" height="40px" viewBox="0 0 40 40" version="1.1" xmlns="http://www.w3.org/2000/svg" xmlns:xlink="http://www.w3.org/1999/xlink">
    <!-- Generator: Sketch 41.2 (35397) - http://www.bohemiancoding.com/sketch -->
    <title>love</title>
    <desc>Created with Sketch.</desc>
    <defs>
        <path d="M20,40 C31.045695,40 40,31.045695 40,20 C40,8.954305 31.045695,0 20,0 C8.954305,0 0,8.954305 0,20 C0,31.045695 8.954305,40 20,40 Z" id="path-1"></path>
        <mask id="mask-2" maskContentUnits="userSpaceOnUse" maskUnits="objectBoundingBox" x="0" y="0" width="40" height="40" fill="white">
            <use xlink:href="#path-1"></use>
        </mask>
    </defs>
    <g id="Page-1" stroke="none" stroke-width="1" fill="none" fill-rule="evenodd">
        <g id="餐廳頁面" transform="translate(-270.000000, -519.000000)">
            <g id="icon_fav" transform="translate(270.000000, 519.000000)">
                <use id="Oval-4" stroke="#DBDBE2" mask="url(#mask-2)" stroke-width="2" fill="#FFFFFF" xlink:href="#path-1"></use>
                <path d="M20.7454934,26.1459062 C20.3337688,25.9296902 19.6677181,25.9289094 19.2545066,26.1459062 L14.5651535,28.6085063 C14.1534289,28.8247223 13.8831203,28.6304097 13.9620367,28.1708031 L14.8576234,22.9549323 C14.9362558,22.4969795 14.7311783,21.8639901 14.3968832,21.5384949 L10.6031168,17.8445947 C10.2700246,17.5202708 10.3715025,17.2034317 10.833487,17.136376 L16.0763431,16.3753907 C16.5366652,16.3085763 17.075971,15.9181481 17.2825768,15.4999842 L19.6272533,10.7544283 C19.8331156,10.337769 20.166141,10.3362644 20.3727467,10.7544283 L22.7174232,15.4999842 C22.9232856,15.9166435 23.4616724,16.308335 23.9236569,16.3753907 L29.166513,17.136376 C29.6268352,17.2031904 29.7311783,17.5190995 29.3968832,17.8445947 L25.6031168,21.5384949 C25.2700246,21.8628189 25.0634602,22.4953257 25.1423766,22.9549323 L26.0379633,28.1708031 C26.1165957,28.6287559 25.848058,28.8255031 25.4348465,28.6085063 L20.7454934,26.1459062 Z" id="Star" fill="#DADBE1"></path>
            </g>
        </g>
    </g>
</svg>