<?xml version="1.0" encoding="UTF-8"?>
<svg width="173px" height="174px" viewBox="0 0 173 174" version="1.1" xmlns="http://www.w3.org/2000/svg" xmlns:xlink="http://www.w3.org/1999/xlink">
    <!-- Generator: Sketch 49.3 (51167) - http://www.bohemiancoding.com/sketch -->
    <title>icon-circle-crown</title>
    <desc>Created with Sketch.</desc>
    <defs>
        <polygon id="path-1" points="0.783352193 0.923 7.10920426 0.923 7.10920426 13.4451306 0.783352193 13.4451306"></polygon>
        <polygon id="path-3" points="0.641178469 0.371038843 13.075 0.371038843 13.075 6.95010682 0.641178469 6.95010682"></polygon>
    </defs>
    <g id="icon-circle-crown" stroke="none" stroke-width="1" fill="none" fill-rule="evenodd">
        <g id="Page-1">
            <path d="M171.0713,94.5087 C171.3983,94.7377 171.8303,94.4597 171.7633,94.0457 C171.6193,93.2047 171.3373,91.9327 170.4903,90.8667 C169.6423,89.7967 168.3243,88.9537 166.2753,88.8907 C160.8613,88.7047 161.5213,87.7367 160.6133,87.1067 C160.2813,86.8797 159.8233,87.1747 159.9193,87.5457 C160.1393,88.4097 160.6423,89.5007 161.3843,90.4037 C162.1343,91.3037 163.0423,92.0177 164.2373,92.0557 C169.0323,92.1857 169.3123,93.2867 171.0713,94.5087" id="Fill-1" fill="#A49384"></path>
            <path d="M170.082,101.9984 C170.385,102.2544 170.844,102.0164 170.818,101.5994 C170.794,101.1754 170.734,100.6394 170.595,100.0684 C170.432,99.4944 170.184,98.8844 169.815,98.3164 C169.078,97.1764 167.85,96.2224 165.813,95.9804 C160.446,95.3224 161.192,94.4164 160.301,93.7064 C159.981,93.4504 159.511,93.7054 159.588,94.0844 C159.91,95.8264 161.157,98.6484 163.514,98.9554 C168.281,99.5084 168.45,100.6274 170.082,101.9984" id="Fill-3" fill="#A49384"></path>
            <path d="M168.4414,109.3764 C168.7184,109.6584 169.1994,109.4624 169.2164,109.0454 C169.2584,107.3284 168.7574,103.8184 164.7284,103.0024 C159.4294,101.8704 160.2234,101.0284 159.4224,100.2474 C159.1294,99.9654 158.6344,100.1764 158.6734,100.5594 C158.7184,101.0064 158.8244,101.5204 158.9924,102.0514 C159.1344,102.5764 159.3414,103.1194 159.6164,103.6254 C160.1674,104.6364 160.9904,105.5114 162.1464,105.7564 C166.8344,106.7274 166.9704,107.8744 168.4414,109.3764" id="Fill-5" fill="#A49384"></path>
            <path d="M166.1572,116.5834 C166.4032,116.8864 166.9162,116.7404 166.9492,116.3194 C167.0302,115.4684 167.0422,114.1494 166.5372,112.9064 C166.0532,111.6664 164.9492,110.4904 163.0002,109.8954 C157.8232,108.2954 158.7002,107.5314 157.9792,106.6844 C157.7152,106.3774 157.2002,106.5424 157.2012,106.9274 C157.2522,108.7104 157.9392,111.6934 160.1912,112.4094 C164.7762,113.7944 164.7862,114.9414 166.1572,116.5834" id="Fill-7" fill="#A49384"></path>
            <path d="M163.2217,123.5497 C163.4507,123.8787 163.9497,123.7677 164.0297,123.3557 C164.1927,122.5177 164.3317,121.2097 163.9467,119.9307 C163.5207,118.6297 162.5747,117.3797 160.6737,116.6087 C155.6597,114.5537 156.6117,113.8757 155.9757,112.9687 C155.7417,112.6417 155.2107,112.7587 155.1737,113.1397 C155.0857,114.0277 155.1837,115.2247 155.5697,116.3297 C155.9227,117.4177 156.5607,118.4177 157.6587,118.8647 C162.1067,120.6557 161.9927,121.7887 163.2217,123.5497" id="Fill-9" fill="#A49384"></path>
            <path d="M159.6787,130.225 C159.8747,130.572 160.3847,130.507 160.5037,130.105 C160.7327,129.282 161.0387,128.019 160.7167,126.683 C160.4147,125.354 159.5897,124.028 157.7657,123.091 C152.9487,120.596 153.9887,120.019 153.4067,119.047 C153.1927,118.695 152.6707,118.773 152.6057,119.152 C152.2727,120.883 152.5077,123.987 154.5667,125.074 C158.8397,127.252 158.6177,128.366 159.6787,130.225" id="Fill-11" fill="#A49384"></path>
            <path d="M155.5645,136.5615 C155.7295,136.9235 156.2445,136.9055 156.4005,136.5185 C157.0925,134.9595 157.7645,131.4445 154.2985,129.2925 C149.7365,126.3905 150.7975,125.8935 150.2995,124.8695 C150.1215,124.5015 149.5865,124.5285 149.4945,124.9035 C149.0335,126.6125 148.9565,129.7045 150.9395,130.9875 C155.0035,133.5365 154.6785,134.6215 155.5645,136.5615" id="Fill-13" fill="#A49384"></path>
            <path d="M150.9131,142.5126 C151.0441,142.8866 151.5601,142.9156 151.7521,142.5446 C152.5571,141.0366 153.5641,137.6166 150.3001,135.1666 C146.0111,131.8726 147.0811,131.4486 146.6951,130.3986 C146.5511,130.0166 146.0151,129.9956 145.8851,130.3596 C145.6011,131.2186 145.3531,132.3796 145.4141,133.5316 C145.4801,134.6836 145.8511,135.8296 146.7901,136.5476 C150.6191,139.4486 150.2191,140.5156 150.9131,142.5126" id="Fill-15" fill="#A49384"></path>
            <path d="M145.7598,148.0341 C145.8568,148.4171 146.3688,148.4921 146.5958,148.1431 C147.4888,146.6721 148.8638,143.4221 145.7838,140.6541 C141.7938,136.9891 142.9098,136.6701 142.6188,135.5921 C142.5108,135.2011 141.9768,135.1301 141.8138,135.4791 C141.1058,137.1241 140.4218,140.0941 142.1658,141.7201 C145.7098,144.9301 145.2538,145.9951 145.7598,148.0341" id="Fill-17" fill="#A49384"></path>
            <path d="M140.1436,153.0854 C140.2016,153.4704 140.7186,153.6064 140.9606,153.2604 C141.4606,152.5674 142.1376,151.4374 142.3316,150.1104 C142.5396,148.7944 142.1826,147.2214 140.8046,145.7224 C137.1516,141.7204 138.2966,141.5064 138.1056,140.4104 C138.0336,140.0124 137.5056,139.8944 137.3106,140.2254 C136.8466,140.9864 136.4566,142.1494 136.2986,143.2754 C136.1536,144.4114 136.3106,145.5974 137.1096,146.4684 C140.3636,149.9834 139.7926,150.9794 140.1436,153.0854" id="Fill-19" fill="#A49384"></path>
            <path d="M134.0957,157.6137 C134.1267,158.0127 134.6137,158.1687 134.8907,157.8537 C135.4527,157.2127 136.2327,156.1527 136.5457,154.8537 C136.8387,153.5217 136.6507,151.9597 135.4017,150.3357 C132.1157,146.0287 133.2797,145.9227 133.1877,144.8187 C133.1527,144.4167 132.6357,144.2497 132.4097,144.5607 C131.8847,145.2827 131.3647,146.3667 131.1387,147.5157 C130.8887,148.6287 130.9377,149.8187 131.6577,150.7577 C134.5927,154.5507 133.9237,155.4717 134.0957,157.6137" id="Fill-21" fill="#A49384"></path>
            <path d="M127.668,161.5849 C127.662,161.9839 128.135,162.1849 128.439,161.8979 C129.054,161.3039 129.948,160.3559 130.352,159.0529 C130.762,157.7519 130.718,156.1889 129.616,154.4599 C126.72,149.8759 127.902,149.8929 127.898,148.7709 C127.89,148.3549 127.406,148.1679 127.15,148.4519 C126.561,149.1189 125.941,150.1449 125.611,151.2639 C125.292,152.3939 125.211,153.5429 125.853,154.5539 C128.441,158.5909 127.689,159.4429 127.668,161.5849" id="Fill-23" fill="#A49384"></path>
            <path d="M120.9141,164.9765 C120.8731,165.3725 121.3261,165.6165 121.6571,165.3595 C123.0421,164.3615 125.4001,161.6735 123.4921,158.0605 C121.0161,153.2455 122.1891,153.3655 122.2751,152.2275 C122.3071,151.8195 121.8321,151.5735 121.5621,151.8515 C120.2961,153.0805 118.6811,155.7335 119.7361,157.8265 C121.9581,162.0785 121.1291,162.8525 120.9141,164.9765" id="Fill-25" fill="#A49384"></path>
            <path d="M113.8867,167.7602 C113.8107,168.1492 114.2407,168.4352 114.5947,168.2132 C116.0547,167.3232 118.6527,164.8732 117.0747,161.1112 C115.0407,156.1102 116.1757,156.2762 116.3727,155.1772 C116.4417,154.7742 115.9897,154.4852 115.6947,154.7342 C115.0177,155.3342 114.2127,156.2022 113.6867,157.2322 C113.1617,158.2602 112.9017,159.4362 113.3487,160.5312 C115.1857,164.9692 114.2977,165.6852 113.8867,167.7602" id="Fill-27" fill="#A49384"></path>
            <path d="M106.6416,169.915 C106.5296,170.294 106.9346,170.62 107.3066,170.434 C108.8216,169.606 111.6606,167.516 110.4036,163.561 C108.8186,158.38 109.9416,158.67 110.2356,157.594 C110.3396,157.202 109.9146,156.871 109.5976,157.089 C108.1576,158.149 106.0646,160.361 106.7446,162.646 C108.1716,167.207 107.2396,167.899 106.6416,169.915" id="Fill-29" fill="#A49384"></path>
            <path d="M99.2324,171.4164 C99.0884,171.7914 99.4614,172.1404 99.8464,171.9734 C100.6304,171.6344 101.7904,171.0084 102.6304,169.9674 C103.4734,168.9174 103.9694,167.4004 103.5414,165.4034 C102.4234,160.1024 103.5184,160.5014 103.9094,159.4624 C104.0484,159.0834 103.6544,158.7124 103.3184,158.8974 C102.5344,159.3214 101.6054,160.1054 100.9024,161.0184 C100.2004,161.9184 99.7324,163.0164 99.9794,164.1734 C100.9984,168.8584 99.9984,169.4064 99.2324,171.4164" id="Fill-31" fill="#A49384"></path>
            <path d="M91.7217,172.2304 C91.5457,172.5884 91.8857,172.9734 92.2847,172.8454 C93.0937,172.5734 94.3087,172.1074 95.2337,171.1014 C96.1617,170.1024 96.7947,168.6724 96.5447,166.6364 C95.9017,161.2564 96.9587,161.7684 97.4417,160.7684 C97.6127,160.3934 97.2547,160.0074 96.9027,160.1514 C96.0817,160.5014 95.0817,161.1614 94.3037,162.0314 C93.5297,162.9174 92.9607,163.9164 93.1067,165.1054 C93.7067,169.8634 92.6617,170.3084 91.7217,172.2304" id="Fill-33" fill="#A49384"></path>
            <path d="M84.1758,172.3969 C83.9688,172.7349 84.2748,173.1519 84.6818,173.0649 C85.5118,172.9079 86.7598,172.4819 87.7698,171.5689 C88.7818,170.6679 89.5378,169.3089 89.4668,167.2599 C89.2998,161.8589 90.3088,162.4509 90.8748,161.4639 C91.0788,161.1089 90.7558,160.6829 90.3928,160.8159 C88.7198,161.4059 86.1168,163.0589 86.1748,165.4359 C86.3588,170.2389 85.2788,170.5799 84.1758,172.3969" id="Fill-35" fill="#A49384"></path>
            <path d="M76.6396,171.9208 C76.4046,172.2378 76.6716,172.6838 77.0856,172.6378 C78.7906,172.3758 82.1736,171.3998 82.3616,167.2558 C82.6646,161.8458 83.6196,162.5038 84.2696,161.5948 C84.5036,161.2628 84.2196,160.8058 83.8456,160.9018 C82.1226,161.4028 79.3946,162.7488 79.2436,165.1308 C79.0086,169.9048 77.8956,170.2278 76.6396,171.9208" id="Fill-37" fill="#A49384"></path>
            <path d="M69.1699,170.7739 C68.9059,171.0759 69.1349,171.5319 69.5539,171.5089 C70.4059,171.4609 71.7099,171.2749 72.8579,170.5899 C74.0129,169.8829 74.9989,168.6399 75.2849,166.6149 C76.0639,161.2529 76.9539,162.0069 77.6799,161.1669 C77.9409,160.8599 77.6979,160.3749 77.3179,160.4329 C76.4369,160.5619 75.2949,160.9659 74.3179,161.5929 C73.3499,162.1939 72.5329,163.0629 72.3649,164.2339 C71.7079,168.9839 70.5799,169.1519 69.1699,170.7739" id="Fill-39" fill="#A49384"></path>
            <path d="M61.833,168.9506 C61.544,169.2256 61.73,169.7046 62.149,169.7226 C63.004,169.7456 64.305,169.7326 65.521,169.1006 C66.739,168.4846 67.826,167.3616 68.292,165.3646 C69.543,160.0886 70.357,160.9456 71.156,160.1596 C71.447,159.8616 71.242,159.3876 70.861,159.4016 C69.102,159.5036 66.147,160.4826 65.593,162.7416 C64.516,167.4156 63.38,167.4716 61.833,168.9506" id="Fill-41" fill="#A49384"></path>
            <path d="M54.6855,166.4907 C54.3735,166.7377 54.5165,167.2337 54.9305,167.2917 C55.3515,167.3517 55.8885,167.3987 56.4765,167.3747 C57.0695,167.3367 57.7185,167.2097 58.3475,166.9637 C59.6125,166.4677 60.7915,165.4527 61.4335,163.5057 C63.1455,158.3777 63.8845,159.2857 64.7565,158.5537 C65.0715,158.2917 64.9155,157.7807 64.5285,157.7807 C62.7595,157.7507 59.7455,158.4157 58.9765,160.6577 C57.4865,165.2197 56.3555,165.1637 54.6855,166.4907" id="Fill-43" fill="#A49384"></path>
            <path d="M47.7842,163.4111 C47.4522,163.6271 47.5492,164.1361 47.9542,164.2341 C49.6192,164.6401 53.1742,164.8121 54.7662,161.0471 C56.9322,156.0801 57.5992,157.0241 58.5242,156.3941 C58.8592,156.1631 58.7522,155.6371 58.3672,155.5991 C57.4672,155.5291 56.2762,155.5791 55.1772,155.9101 C54.0752,156.2501 53.0532,156.8841 52.5822,157.9691 C50.6932,162.3791 49.5532,162.2621 47.7842,163.4111" id="Fill-45" fill="#A49384"></path>
            <path d="M41.1816,159.7358 C40.8316,159.9208 40.8816,160.4388 41.2756,160.5748 C42.9246,161.0788 46.4066,161.6428 48.3556,157.9808 C50.9536,153.2268 51.5306,154.2348 52.5056,153.6948 C52.8596,153.4958 52.7986,152.9598 52.4216,152.8848 C50.6596,152.5888 47.6076,152.6498 46.4516,154.7268 C44.1866,158.9368 43.0446,158.7458 41.1816,159.7358" id="Fill-47" fill="#A49384"></path>
            <path d="M34.9277,155.4941 C34.5607,155.6521 34.5707,156.1641 34.9597,156.3221 C35.7507,156.6431 37.0097,157.0331 38.3417,156.9051 C39.6807,156.7741 41.1127,156.0671 42.2397,154.3651 C45.2477,149.8591 45.7287,150.9221 46.7447,150.4751 C47.1137,150.3101 47.1027,149.7681 46.7347,149.6571 C45.8837,149.3921 44.6727,149.2761 43.5297,149.4111 C42.3947,149.5381 41.2817,149.9731 40.6277,150.9591 C37.9917,154.9641 36.9007,154.6331 34.9277,155.4941" id="Fill-49" fill="#A49384"></path>
            <path d="M29.0879,150.7016 C28.7089,150.8266 28.6729,151.3376 29.0449,151.5316 C29.8029,151.9226 31.0079,152.4376 32.3539,152.4196 C33.7189,152.3816 35.1859,151.8306 36.4639,150.2276 C39.8579,146.0046 40.2369,147.1126 41.2869,146.7606 C41.6669,146.6306 41.7049,146.0876 41.3509,145.9426 C40.5259,145.6036 39.3519,145.3546 38.1829,145.4086 C37.0289,145.4496 35.8989,145.7676 35.1549,146.6966 C32.1769,150.4546 31.1239,150.0236 29.0879,150.7016" id="Fill-51" fill="#A49384"></path>
            <path d="M23.6904,145.4184 C23.3024,145.5094 23.2204,146.0164 23.5714,146.2444 C24.9744,147.2174 28.2614,148.5924 31.0724,145.6014 C34.8314,141.6854 35.0844,142.8534 36.1874,142.5644 C36.5854,142.4604 36.6624,141.9334 36.3104,141.7694 C34.7474,140.9564 31.6994,140.3044 30.0764,141.9714 C26.7774,145.4544 25.7724,144.9264 23.6904,145.4184" id="Fill-53" fill="#A49384"></path>
            <path d="M18.7744,139.6845 C18.3804,139.7395 18.2534,140.2395 18.5804,140.4985 C19.8784,141.6025 23.0624,143.2385 26.1044,140.5215 C30.1754,136.9665 30.3564,138.1225 31.4784,137.9355 C31.8814,137.8685 32.0064,137.3485 31.6734,137.1515 C30.1604,136.2295 27.2204,135.2765 25.4274,136.8205 C21.8354,140.0015 20.8854,139.3825 18.7744,139.6845" id="Fill-55" fill="#A49384"></path>
            <path d="M14.3779,133.5419 C13.9819,133.5619 13.8089,134.0489 14.1099,134.3379 C15.3319,135.5339 18.3259,137.4679 21.5979,135.0279 C25.9719,131.8399 26.0739,132.9889 27.1909,132.9149 C27.5979,132.8839 27.7699,132.3749 27.4569,132.1489 C26.7139,131.6329 25.6669,131.0699 24.5459,130.8019 C23.4229,130.5399 22.2189,130.5709 21.2659,131.2699 C17.4019,134.1249 16.4879,133.4399 14.3779,133.5419" id="Fill-57" fill="#A49384"></path>
            <path d="M10.5352,127.0361 C10.1402,127.0191 9.9232,127.4911 10.1942,127.8071 C11.3582,129.0781 14.0802,131.3211 17.6102,129.1461 C22.2542,126.3531 22.2442,127.5141 23.3592,127.5391 C23.7652,127.5461 23.9832,127.0531 23.6952,126.7981 C22.3182,125.6541 19.6622,124.1621 17.6102,125.3741 C13.5332,127.8641 12.6332,127.1291 10.5352,127.0361" id="Fill-59" fill="#A49384"></path>
            <path d="M7.2773,120.2153 C6.8863,120.1643 6.6233,120.6153 6.8843,120.9463 C7.4063,121.6233 8.2983,122.5953 9.5133,123.1573 C10.7243,123.7273 12.3283,123.8343 14.1583,122.9353 C19.0293,120.5653 18.9093,121.7243 20.0133,121.8503 C20.4163,121.8943 20.6783,121.4213 20.4173,121.1403 C19.8183,120.4823 18.8203,119.7763 17.7773,119.3093 C16.7303,118.8473 15.5503,118.6613 14.4883,119.1813 C10.1913,121.3053 9.4113,120.4713 7.2773,120.2153" id="Fill-61" fill="#A49384"></path>
            <path d="M4.6631,113.1215 C4.2711,113.0375 3.9821,113.4595 4.2051,113.8155 C4.6611,114.5375 5.4421,115.5925 6.6081,116.2585 C7.8081,116.9165 9.3511,117.1835 11.2661,116.4465 C16.3281,114.5185 16.0971,115.6645 17.1801,115.8915 C17.5741,115.9715 17.8811,115.5225 17.6481,115.2185 C17.1071,114.5105 16.2201,113.7025 15.1841,113.1595 C14.1721,112.6105 13.0321,112.3135 11.9231,112.7385 C7.4521,114.4735 6.7621,113.5675 4.6631,113.1215" id="Fill-63" fill="#A49384"></path>
            <path d="M2.6875,105.8246 C2.3075,105.7056 1.9785,106.1016 2.1655,106.4766 C2.8735,108.0306 5.0245,110.8816 8.9555,109.7276 C14.1815,108.2546 13.8015,109.3906 14.9055,109.6986 C15.3005,109.8096 15.6335,109.3946 15.4145,109.0756 C14.4825,107.5836 12.1765,105.4816 9.9345,106.0946 C5.3255,107.4246 4.7285,106.4586 2.6875,105.8246" id="Fill-65" fill="#A49384"></path>
            <path d="M1.3613,98.3857 C0.9953,98.2327 0.6293,98.5987 0.7773,98.9887 C1.0563,99.7857 1.6833,100.9537 2.7303,101.8137 C3.7743,102.6777 5.2303,103.2167 7.2443,102.8307 C12.5523,101.8357 12.1473,102.9167 13.1953,103.3267 C13.5763,103.4737 13.9493,103.0897 13.7623,102.7507 C12.9023,101.1957 10.8963,98.8757 8.5493,99.2977 C3.8333,100.2137 3.3163,99.1997 1.3613,98.3857" id="Fill-67" fill="#A49384"></path>
            <path d="M0.6836,90.8627 C0.3346,90.6787 -0.0654,91.0107 0.0416,91.4117 C0.5666,93.0577 2.0376,96.2527 6.1676,95.8067 C11.5606,95.2827 11.0536,96.3257 12.0506,96.8287 C12.4136,97.0097 12.8236,96.6587 12.6716,96.3047 C11.9176,94.6807 10.1656,92.1887 7.7916,92.4017 C3.0376,92.8977 2.5546,91.8447 0.6836,90.8627" id="Fill-69" fill="#A49384"></path>
            <path d="M0.6807,83.3139 C0.3417,83.0999 -0.0743,83.3959 0.0117,83.8059 C0.1877,84.6399 0.5687,85.8969 1.4187,86.9259 C2.3087,87.9579 3.6747,88.7419 5.7237,88.7159 C11.1407,88.6659 10.5307,89.6629 11.4707,90.2519 C11.8137,90.4639 12.2557,90.1499 12.1417,89.7829 C11.8767,88.9299 11.3177,87.8619 10.5337,86.9919 C9.7927,86.1259 8.8117,85.4509 7.6277,85.4659 C2.8327,85.5439 2.4967,84.4569 0.6807,83.3139" id="Fill-71" fill="#A49384"></path>
            <path d="M1.3457,75.7904 C1.0297,75.5474 0.5837,75.8054 0.6287,76.2214 C0.7547,77.9234 1.7977,81.3384 5.8827,81.6134 C11.2937,82.0364 10.5487,82.9724 11.4747,83.6434 C11.8067,83.8844 12.2627,83.6094 12.1657,83.2334 C11.8167,81.5094 10.3667,78.7384 8.0527,78.5404 C3.2667,78.1994 3.0407,77.0874 1.3457,75.7904" id="Fill-73" fill="#A49384"></path>
            <path d="M2.6602,68.349 C2.3692,68.079 1.8992,68.297 1.9032,68.714 C1.8982,70.425 2.6192,73.919 6.6502,74.55 C11.9742,75.443 11.2342,76.322 12.0702,77.067 C12.3772,77.336 12.8602,77.103 12.8022,76.722 C12.6442,75.829 12.3322,74.69 11.7302,73.701 C11.1312,72.715 10.2652,71.876 9.0982,71.683 C4.3562,70.918 4.2082,69.786 2.6602,68.349" id="Fill-75" fill="#A49384"></path>
            <path d="M4.624,61.0492 C4.359,60.7552 3.87,60.9292 3.832,61.3432 C3.747,63.0692 4.036,66.5812 8.063,67.5862 C13.307,68.9532 12.47,69.7572 13.231,70.5722 C13.51,70.8672 14.016,70.6782 13.996,70.2942 C13.852,68.5112 13.059,65.5692 10.761,64.9492 C6.128,63.7732 6.035,62.6182 4.624,61.0492" id="Fill-77" fill="#A49384"></path>
            <path d="M7.2324,53.953 C6.9894,53.634 6.4964,53.768 6.4354,54.183 C6.3144,55.029 6.2384,56.345 6.6824,57.607 C7.1394,58.877 8.1674,60.093 10.0924,60.776 C15.1924,62.605 14.2774,63.328 14.9564,64.205 C15.2054,64.523 15.7284,64.381 15.7474,63.998 C15.7974,63.109 15.6234,61.908 15.2094,60.829 C14.8114,59.76 14.1224,58.786 13.0074,58.389 C8.4844,56.799 8.5434,55.66 7.2324,53.953" id="Fill-79" fill="#A49384"></path>
            <path d="M10.4795,47.1274 C10.2665,46.7894 9.7615,46.8774 9.6625,47.2844 C9.4665,48.1154 9.2425,49.4034 9.5975,50.7114 C9.9605,52.0274 10.8475,53.3174 12.7115,54.1714 C17.6285,56.4474 16.6425,57.0814 17.2385,58.0144 C17.4655,58.3564 17.9855,58.2564 18.0465,57.8794 C18.1775,56.9994 18.1385,55.8004 17.8055,54.6804 C17.4735,53.5644 16.9065,52.5494 15.8225,52.0504 C11.4575,50.0644 11.6255,48.9394 10.4795,47.1274" id="Fill-81" fill="#A49384"></path>
            <path d="M14.3125,40.6157 C14.1305,40.2607 13.6185,40.3027 13.4805,40.6977 C12.8655,42.2897 12.3335,45.8207 15.9025,47.8237 C20.6015,50.5287 19.5375,51.0587 20.0855,52.0617 C20.2815,52.4227 20.8125,52.3707 20.8885,51.9907 C21.2955,50.2767 21.1955,47.1607 19.1855,45.9837 C15.0115,43.6177 15.2865,42.5167 14.3125,40.6157" id="Fill-83" fill="#A49384"></path>
            <path d="M18.6992,34.4657 C18.5512,34.0977 18.0352,34.0917 17.8602,34.4717 C17.4912,35.2327 17.0822,36.4867 17.2072,37.8417 C17.3202,39.1927 17.9552,40.6107 19.6382,41.7797 C24.0642,44.8787 23.0052,45.3437 23.4452,46.3807 C23.6062,46.7567 24.1422,46.7537 24.2542,46.3827 C24.7672,44.6807 25.0162,41.6197 23.0742,40.2387 C19.1192,37.5087 19.4942,36.4407 18.6992,34.4657" id="Fill-85" fill="#A49384"></path>
            <path d="M23.6055,28.7245 C23.4925,28.3455 22.9765,28.2935 22.7675,28.6535 C21.9185,30.1425 20.7265,33.4845 23.8985,36.0925 C28.0465,39.5785 26.9495,39.9495 27.2895,41.0145 C27.4155,41.4015 27.9515,41.4475 28.0975,41.0905 C28.2685,40.6755 28.4165,40.1705 28.5185,39.6245 C28.6385,39.0925 28.7105,38.5165 28.7055,37.9395 C28.6925,36.7875 28.3755,35.6275 27.4685,34.8695 C23.7785,31.8105 24.2075,30.7445 23.6055,28.7245" id="Fill-87" fill="#A49384"></path>
            <path d="M28.9961,23.433 C28.9171,23.046 28.4061,22.948 28.1651,23.287 C27.2151,24.725 25.6931,27.906 28.6531,30.811 C32.4781,34.649 31.3481,34.915 31.5881,36.003 C31.6781,36.399 32.2101,36.493 32.3901,36.152 C33.1771,34.548 33.9751,31.597 32.3131,29.904 C28.9141,26.541 29.4231,25.504 28.9961,23.433" id="Fill-89" fill="#A49384"></path>
            <path d="M34.8301,18.6337 C34.7811,18.2357 34.2891,18.1017 34.0271,18.4307 C33.4951,19.0977 32.7671,20.1957 32.5131,21.5087 C32.2631,22.8327 32.5351,24.4037 33.8501,25.9667 C37.3221,30.1247 36.1671,30.2847 36.3091,31.3857 C36.3621,31.7857 36.8851,31.9287 37.0961,31.6077 C37.5901,30.8657 38.0471,29.7387 38.2381,28.6017 C38.4351,27.4767 38.3331,26.2867 37.5721,25.3817 C34.4741,21.7217 35.1001,20.7687 34.8301,18.6337" id="Fill-91" fill="#A49384"></path>
            <path d="M41.0781,14.3842 C41.0641,13.9842 40.5851,13.8062 40.2931,14.1082 C39.7041,14.7252 38.8671,15.7332 38.5071,17.0312 C38.1581,18.3522 38.2711,19.9142 39.4491,21.5932 C42.5421,26.0412 41.3731,26.0922 41.4131,27.1972 C41.4321,27.6012 41.9391,27.7882 42.1811,27.4902 C42.7381,26.7952 43.3091,25.7382 43.5871,24.6032 C43.8711,23.4822 43.8881,22.3102 43.2061,21.3352 C40.4411,17.4162 41.1531,16.5282 41.0781,14.3842" id="Fill-93" fill="#A49384"></path>
            <path d="M47.6748,10.6991 C47.6978,10.3011 47.2348,10.0781 46.9158,10.3501 C45.5818,11.4181 43.3358,14.1891 45.4088,17.7271 C48.1038,22.4391 46.9098,22.3481 46.8788,23.4931 C46.8648,23.9031 47.3498,24.1271 47.6068,23.8361 C48.8268,22.5661 50.3128,19.8261 49.1718,17.7971 C46.7648,13.6481 47.5558,12.8341 47.6748,10.6991" id="Fill-95" fill="#A49384"></path>
            <path d="M54.5723,7.6083 C54.6313,7.2153 54.1873,6.9503 53.8453,7.1903 C53.4973,7.4343 53.0723,7.7643 52.6603,8.1853 C52.2573,8.6273 51.8673,9.1563 51.5763,9.7673 C50.9923,10.9913 50.8243,12.5373 51.6863,14.3973 C53.9413,19.3073 52.7873,19.1633 52.6463,20.2873 C52.5963,20.6923 53.0603,20.9603 53.3433,20.6963 C54.6503,19.4963 56.4043,16.9693 55.4273,14.7983 C53.3943,10.4453 54.2603,9.7173 54.5723,7.6083" id="Fill-97" fill="#A49384"></path>
            <path d="M61.7148,5.1366 C61.8098,4.7526 61.3908,4.4466 61.0278,4.6506 C59.5398,5.5076 56.8188,7.7876 58.2358,11.6386 C60.0508,16.7446 58.9178,16.5096 58.6728,17.6016 C58.5858,17.9986 59.0258,18.3096 59.3308,18.0746 C59.6888,17.8036 60.0688,17.4406 60.4348,17.0246 C60.8068,16.6266 61.1598,16.1656 61.4468,15.6656 C62.0188,14.6666 62.3318,13.5056 61.9338,12.3926 C60.3008,7.8886 61.2088,7.1796 61.7148,5.1366" id="Fill-99" fill="#A49384"></path>
            <path d="M69.0488,3.3022 C69.1778,2.9352 68.7848,2.5732 68.4078,2.7632 C66.8578,3.5162 63.9318,5.4892 65.0108,9.4952 C66.3628,14.7422 65.2528,14.3972 64.9098,15.4562 C64.7878,15.8432 65.1978,16.1942 65.5258,15.9912 C67.0158,15.0092 69.1968,12.8662 68.6248,10.5702 C67.3998,5.9412 68.3698,5.3262 69.0488,3.3022" id="Fill-101" fill="#A49384"></path>
            <path d="M76.5176,2.1489 C76.6776,1.7819 76.3216,1.4149 75.9286,1.5619 C75.1306,1.8639 73.9436,2.4259 73.0576,3.4279 C72.1736,4.4739 71.6066,5.9349 71.9476,7.9579 C72.8286,13.3029 71.7496,12.8499 71.3126,13.8669 C71.1566,14.2379 71.5346,14.6279 71.8786,14.4599 C72.6806,14.0689 73.6496,13.3579 74.3876,12.4489 C75.1276,11.5739 75.6456,10.5109 75.4506,9.3409 C74.6396,4.6139 75.6636,4.1179 76.5176,2.1489" id="Fill-103" fill="#A49384"></path>
            <g id="Group-107" transform="translate(77.000000, 0.077000)">
                <mask id="mask-2" fill="white">
                    <use xlink:href="#path-1"></use>
                </mask>
                <g id="Clip-106"></g>
                <path d="M7.0527,1.5836 C7.2437,1.2346 6.9217,0.8336 6.5177,0.9406 C4.8577,1.3216 1.6407,2.8776 1.9907,6.9526 C2.3967,12.3656 1.3577,11.7686 0.8367,12.7906 C0.6487,13.1546 0.9907,13.5646 1.3467,13.4126 C2.9957,12.8006 5.5157,10.9486 5.3587,8.6286 C4.9667,3.8466 6.0307,3.4566 7.0527,1.5836" id="Fill-105" fill="#A49384" mask="url(#mask-2)"></path>
            </g>
            <path d="M91.5996,1.8144 C91.8206,1.4864 91.5346,1.0544 91.1226,1.1214 C89.4336,1.4024 86.0956,2.6224 86.0886,6.7084 C86.0216,12.1184 85.0386,11.5154 84.4286,12.4554 C84.2086,12.7984 84.5136,13.2414 84.8826,13.1264 C85.7426,12.8364 86.8216,12.3394 87.7066,11.6034 C88.5906,10.8614 89.2866,9.8794 89.2976,8.6974 C89.3236,3.9044 90.4186,3.5574 91.5996,1.8144" id="Fill-108" fill="#A49384"></path>
            <path d="M99.1113,2.6161 C99.3603,2.3111 99.1143,1.8461 98.6953,1.8961 C96.9803,2.0621 93.5563,2.9101 93.1863,7.0431 C92.6463,12.4341 91.7223,11.7271 91.0343,12.6021 C90.7853,12.9221 91.0493,13.3941 91.4263,13.3171 C93.1683,12.9101 95.9553,11.6461 96.2093,9.2971 C96.6543,4.5261 97.7753,4.2951 99.1113,2.6161" id="Fill-110" fill="#A49384"></path>
            <path d="M106.5215,4.1113 C106.7985,3.8223 106.5895,3.3543 106.1705,3.3573 C105.3175,3.3663 104.0105,3.4733 102.8305,4.1223 C101.6415,4.7973 100.6055,5.9723 100.2285,7.9883 C99.2125,13.3093 98.3585,12.5113 97.5975,13.3143 C97.3225,13.6083 97.5425,14.1053 97.9245,14.0663 C98.8115,13.9783 99.9645,13.6453 100.9715,13.0483 C101.9705,12.4693 102.8205,11.6603 103.0415,10.4913 C103.9085,5.7753 105.0415,5.6633 106.5215,4.1113" id="Fill-112" fill="#A49384"></path>
            <path d="M113.7705,6.2543 C114.0715,5.9933 113.9065,5.5053 113.4905,5.4673 C111.7955,5.2523 108.2385,5.5953 107.1605,9.5433 C105.6745,14.7603 104.9045,13.8503 104.0645,14.6273 C103.7615,14.9043 103.9405,15.4073 104.3285,15.3873 C106.0865,15.3743 109.0855,14.5133 109.7415,12.2813 C111.0265,7.6593 112.1615,7.6593 113.7705,6.2543" id="Fill-114" fill="#A49384"></path>
            <path d="M120.8027,9.0273 C121.1237,8.7953 121.0047,8.2923 120.5947,8.2143 C119.7687,8.0353 118.4467,7.9523 117.1637,8.3943 C115.8807,8.8293 114.6577,9.7863 113.9297,11.7033 C111.9937,16.7443 111.2827,15.8363 110.3857,16.5113 C110.0607,16.7583 110.1937,17.2773 110.5787,17.2973 C112.3557,17.3773 115.3807,16.8893 116.2537,14.6693 C117.9487,10.1723 119.0797,10.2673 120.8027,9.0273" id="Fill-116" fill="#A49384"></path>
            <path d="M127.5605,12.4081 C127.9015,12.2071 127.8285,11.6941 127.4285,11.5761 C125.7685,11.1271 122.2515,10.7421 120.4755,14.4701 C118.0905,19.3351 117.4685,18.3581 116.5175,18.9431 C116.1725,19.1581 116.2565,19.6901 116.6385,19.7461 C118.4155,19.9531 121.4535,19.7781 122.5215,17.6391 C124.5985,13.3291 125.7475,13.4711 127.5605,12.4081" id="Fill-118" fill="#A49384"></path>
            <path d="M133.9961,16.3696 C134.3501,16.2046 134.3321,15.6726 133.9341,15.5346 C132.3131,14.9486 128.8541,14.2446 126.7451,17.8136 C123.9381,22.4486 123.4101,21.4116 122.4131,21.9056 C122.0521,22.0876 122.0871,22.6276 122.4601,22.7206 C124.2021,23.1046 127.2661,23.1596 128.5051,21.1476 C130.9571,17.0356 132.0751,17.2986 133.9961,16.3696" id="Fill-120" fill="#A49384"></path>
            <path d="M140.0469,20.8925 C140.4219,20.7495 140.4339,20.2395 140.0539,20.0625 C139.2789,19.7045 138.0419,19.2565 136.7069,19.3225 C135.3489,19.4145 133.9019,20.0385 132.6959,21.6945 C129.4919,26.0625 129.0619,24.9765 128.0269,25.3765 C127.6519,25.5235 127.6389,26.0665 128.0009,26.1945 C128.8409,26.4955 130.0299,26.6855 131.1929,26.5805 C132.3319,26.5055 133.4609,26.1225 134.1579,25.1665 C136.9679,21.2815 138.0409,21.6625 140.0469,20.8925" id="Fill-122" fill="#A49384"></path>
            <path d="M145.6719,25.935 C146.0559,25.827 146.1139,25.317 145.7529,25.106 C145.0099,24.685 143.8459,24.099 142.4839,24.077 C141.1199,24.052 139.6339,24.536 138.2849,26.081 C134.7069,30.153 134.3869,29.017 133.3139,29.334 C132.9159,29.46 132.8749,29.975 133.2179,30.143 C134.0249,30.52 135.1849,30.825 136.3519,30.824 C137.5239,30.815 138.6519,30.564 139.4389,29.665 C142.5799,26.04 143.6109,26.52 145.6719,25.935" id="Fill-124" fill="#A49384"></path>
            <path d="M150.833,31.4487 C151.225,31.3757 151.329,30.8717 150.99,30.6277 C149.637,29.5877 146.399,28.0817 143.471,30.9377 C139.55,34.6777 139.337,33.5127 138.221,33.7527 C137.819,33.8387 137.719,34.3627 138.062,34.5437 C139.594,35.4177 142.609,36.2047 144.308,34.6077 C147.756,31.2717 148.734,31.8457 150.833,31.4487" id="Fill-126" fill="#A49384"></path>
            <path d="M155.4941,37.3925 C155.8891,37.3545 156.0391,36.8615 155.7241,36.5865 C155.0991,36.0175 154.0101,35.2715 152.6761,35.0085 C151.3481,34.7365 149.8091,34.9445 148.2121,36.2295 C143.9911,39.6005 143.8411,38.4545 142.7231,38.5825 C142.3181,38.6305 142.1691,39.1455 142.4921,39.3575 C143.9821,40.3305 146.8461,41.4355 148.7201,39.9615 C152.4551,36.9375 153.3771,37.5975 155.4941,37.3925" id="Fill-128" fill="#A49384"></path>
            <path d="M159.6172,43.7226 C160.0132,43.7216 160.2092,43.2416 159.9222,42.9376 C158.7292,41.7046 155.8662,39.6126 152.4652,41.9226 C147.9492,44.9176 147.9042,43.7606 146.7872,43.7856 C146.3802,43.7966 146.1842,44.2986 146.4862,44.5396 C146.8362,44.8206 147.2762,45.1056 147.7732,45.3566 C148.2512,45.6206 148.7822,45.8536 149.3372,46.0116 C150.4452,46.3246 151.6462,46.3476 152.6312,45.6916 C156.6042,43.0176 157.5122,43.7266 159.6172,43.7226" id="Fill-130" fill="#A49384"></path>
            <path d="M163.1709,50.3925 C163.5629,50.4275 163.8069,49.9635 163.5449,49.6375 C162.4339,48.3175 159.8129,45.9575 156.1879,47.9755 C151.4259,50.5595 151.4899,49.3985 150.3789,49.3225 C149.9749,49.2975 149.7329,49.7805 150.0099,50.0485 C151.3239,51.2575 153.9309,52.8555 156.0229,51.7425 C160.2129,49.4325 161.0559,50.2185 163.1709,50.3925" id="Fill-132" fill="#A49384"></path>
            <path d="M166.1123,57.3564 C166.5083,57.4224 166.7763,56.9884 166.5373,56.6434 C166.0493,55.9424 165.2073,54.9304 164.0213,54.3124 C162.8093,53.7014 161.2383,53.5124 159.3633,54.3314 C154.3903,56.4824 154.5663,55.3284 153.4713,55.1514 C153.0733,55.0904 152.7873,55.5514 153.0353,55.8444 C153.6073,56.5274 154.5463,57.2884 155.5953,57.7894 C156.6153,58.2984 157.7833,58.5384 158.8683,58.0654 C163.2573,56.1344 163.9913,57.0054 166.1123,57.3564" id="Fill-134" fill="#A49384"></path>
            <path d="M168.4082,64.5595 C168.7952,64.6615 169.1032,64.2515 168.8982,63.8855 C168.4712,63.1455 167.7692,62.0475 166.6022,61.3395 C165.4382,60.6265 163.9112,60.2905 161.9672,60.9415 C156.8192,62.6425 157.1172,61.5025 156.0332,61.2325 C155.6292,61.1405 155.3302,61.5645 155.5412,61.8815 C156.0452,62.6155 156.8902,63.4635 157.8982,64.0535 C158.9172,64.6365 160.0122,64.9935 161.1472,64.6155 C165.6912,63.0815 166.3362,64.0185 168.4082,64.5595" id="Fill-136" fill="#A49384"></path>
            <path d="M170.0605,71.935 C170.4335,72.071 170.7815,71.69 170.6145,71.307 C169.9895,69.721 167.9385,66.782 163.9785,67.756 C158.7095,68.99 159.1055,67.881 158.0235,67.523 C157.6345,67.393 157.2815,67.794 157.4845,68.123 C158.3785,69.647 160.5395,71.862 162.8435,71.341 C167.5075,70.218 168.0545,71.21 170.0605,71.935" id="Fill-138" fill="#A49384"></path>
            <path d="M171.0615,79.4233 C171.4195,79.5913 171.8025,79.2423 171.6745,78.8463 C171.1315,77.2193 169.4315,74.1013 165.3835,74.7213 C160.0185,75.4843 160.4725,74.4203 159.4515,73.9633 C159.0785,73.7993 158.6875,74.1673 158.8565,74.5143 C159.2695,75.3183 159.9405,76.3043 160.7945,77.0693 C161.6615,77.8273 162.7365,78.3653 163.9065,78.1963 C168.6445,77.4913 169.1615,78.5223 171.0615,79.4233" id="Fill-140" fill="#A49384"></path>
            <g id="Group-144" transform="translate(159.000000, 80.077000)">
                <mask id="mask-4" fill="white">
                    <use xlink:href="#path-3"></use>
                </mask>
                <g id="Clip-143"></g>
                <path d="M12.4141,6.8887 C12.7631,7.0877 13.1641,6.7737 13.0581,6.3677 C12.8401,5.5427 12.3961,4.3027 11.4951,3.3127 C10.6131,2.3187 9.1661,1.5957 7.1341,1.7107 C1.7231,1.9967 2.2821,0.9767 1.3121,0.4297 C0.9591,0.2327 0.5331,0.5657 0.6661,0.9267 C0.9611,1.7677 1.6171,2.8057 2.3861,3.6437 C3.1701,4.4767 4.1851,5.1077 5.3661,5.0417 C10.1521,4.7537 10.5431,5.8267 12.4141,6.8887" id="Fill-142" fill="#A49384" mask="url(#mask-4)"></path>
            </g>
            <path d="M101.0596,85.0634 L88.2256,66.5064 C87.1506,64.9514 84.8526,64.9514 83.7776,66.5064 L70.9436,85.0634 L54.1706,74.0714 C52.3726,72.8934 49.9856,74.1834 49.9856,76.3334 L49.9856,102.7764 C49.9856,105.7394 52.3866,108.1414 55.3496,108.1414 L86.0016,108.1414 L116.6536,108.1414 C119.6166,108.1414 122.0176,105.7394 122.0176,102.7764 L122.0176,76.3334 C122.0176,74.1834 119.6296,72.8934 117.8316,74.0714 L101.0596,85.0634 Z" id="Fill-145" fill="#998675"></path>
            <path d="M90.5967,55.932 C90.5967,58.47 88.5387,60.527 86.0017,60.527 C83.4637,60.527 81.4067,58.47 81.4067,55.932 C81.4067,53.394 83.4637,51.337 86.0017,51.337 C88.5387,51.337 90.5967,53.394 90.5967,55.932" id="Fill-147" fill="#998675"></path>
            <path d="M54.5801,63.3544 C54.5801,65.8924 52.5221,67.9494 49.9851,67.9494 C47.4471,67.9494 45.3901,65.8924 45.3901,63.3544 C45.3901,60.8164 47.4471,58.7594 49.9851,58.7594 C52.5221,58.7594 54.5801,60.8164 54.5801,63.3544" id="Fill-149" fill="#998675"></path>
            <path d="M117.4229,63.3544 C117.4229,65.8924 119.4809,67.9494 122.0179,67.9494 C124.5559,67.9494 126.6129,65.8924 126.6129,63.3544 C126.6129,60.8164 124.5559,58.7594 122.0179,58.7594 C119.4809,58.7594 117.4229,60.8164 117.4229,63.3544" id="Fill-151" fill="#998675"></path>
            <path d="M119.166,118.8981 L52.837,118.8981 C51.262,118.8981 49.985,117.6211 49.985,116.0461 C49.985,114.4711 51.262,113.1941 52.837,113.1941 L119.166,113.1941 C120.741,113.1941 122.018,114.4711 122.018,116.0461 C122.018,117.6211 120.741,118.8981 119.166,118.8981" id="Fill-153" fill="#998675"></path>
        </g>
    </g>
</svg>