<?xml version="1.0" encoding="UTF-8"?>
<svg width="42px" height="42px" viewBox="0 0 42 42" version="1.1" xmlns="http://www.w3.org/2000/svg" xmlns:xlink="http://www.w3.org/1999/xlink">
    <!-- Generator: Sketch 49.3 (51167) - http://www.bohemiancoding.com/sketch -->
    <title>icon-dining</title>
    <desc>Created with Sketch.</desc>
    <defs>
        <path d="M6.19777778,1.071 C6.15888889,1.069875 6.12111111,1.074375 6.08777778,1.08 C2.40222222,1.312875 0.818888889,5.9175 0.294444444,9.02025 C0.0111111111,10.693125 -0.183333333,12.457125 0.893333333,13.885875 C1.76111111,15.035625 3.15222222,15.742125 4.57888889,16.047 C4.57,18.999 4.50888889,21.9195 4.14888889,24.885 C3.96888889,26.308125 3.77777778,27.736875 3.46777778,29.138625 C3.25111111,30.112875 3.00555556,31.08825 3.17777778,32.092875 C3.42,33.510375 4.69444444,34.821 6.19777778,34.821 C7.66555556,34.821 8.95555556,33.54525 9.21,32.153625 C9.38222222,31.199625 9.18222222,30.25125 8.97111111,29.323125 C8.63333333,27.83025 8.42555556,26.31375 8.23444444,24.79725 C7.88111111,21.864375 7.82333333,18.96975 7.81666667,16.047 C9.24222222,15.74325 10.6344444,15.035625 11.5011111,13.885875 C12.5755556,12.4605 12.3833333,10.68975 12.1,9.02025 C11.5755556,5.9175 9.99111111,1.312875 6.30777778,1.08 C6.27666667,1.074375 6.24555556,1.071 6.21,1.071 C6.20555556,1.071 6.20222222,1.071 6.19777778,1.071 Z" id="path-1"></path>
        <path d="M6.08777778,0.08 C2.40222222,0.312875 0.818888889,4.9175 0.294444444,8.02025 C0.0111111111,9.693125 -0.183333333,11.457125 0.893333333,12.885875 C1.76111111,14.035625 3.15222222,14.742125 4.57888889,15.047 C4.57,17.999 4.50888889,20.9195 4.14888889,23.885 C3.96888889,25.308125 3.77777778,26.736875 3.46777778,28.138625 C3.25111111,29.112875 3.00555556,30.08825 3.17777778,31.092875 C3.42,32.510375 4.69444444,33.821 6.19777778,33.821 C7.66555556,33.821 8.95555556,32.54525 9.21,31.153625 C9.38222222,30.199625 9.18222222,29.25125 8.97111111,28.323125 C8.63333333,26.83025 8.42555556,25.31375 8.23444444,23.79725 C7.88111111,20.864375 7.82333333,17.96975 7.81666667,15.047 C9.24222222,14.74325 10.6344444,14.035625 11.5011111,12.885875 C12.5755556,11.4605 12.3833333,9.68975 12.1,8.02025 C11.5755556,4.9175 9.99111111,0.312875 6.30777778,0.08 C6.27777778,0.0755 6.24444444,0.071 6.21,0.071 C6.20555556,0.071 6.20111111,0.071 6.19777778,0.071 C6.19333333,0.071 6.19,0.071 6.18555556,0.071 C6.15111111,0.071 6.11777778,0.074375 6.08777778,0.08 Z" id="path-3"></path>
        <path d="M9.18333333,4.03425 L9.18333333,7.518375 C9.18333333,7.871625 9.28666667,8.418375 9.18333333,8.755875 C9.16777778,8.807625 9.21777778,8.987625 9.18333333,9.03375 C8.69666667,9.6705 8.62555556,8.11575 8.61222222,8.053875 C8.29222222,6.568875 8.50888889,4.9275 8.21222222,3.407625 C8.10666667,2.8665 7.96777778,1.918125 7.46444444,1.5615 C6.18555556,0.649125 5.79888889,3.3525 5.69777778,4.019625 C5.59666667,4.7025 5.53222222,5.391 5.48444444,6.0795 C5.46333333,6.38325 5.48666667,9.4725 4.82888889,9.120375 C4.66888889,9.034875 4.82888889,7.164 4.82888889,6.980625 L4.82888889,3.497625 C4.82888889,2.968875 4.96333333,2.269125 4.81222222,1.75725 C4.58888889,0.98775 3.89222222,0.93375 3.37,1.436625 C2.24777778,2.516625 1.68222222,4.78125 1.34222222,6.23475 C0.635555556,9.27 0.478888889,12.34575 3.54111111,13.995 C4.10333333,14.297625 4.73222222,14.51925 5.39333333,14.661 C5.39888889,18.07875 5.37222222,21.468375 4.95888889,24.883875 C4.77777778,26.308125 4.58777778,27.736875 4.27555556,29.138625 C4.05888889,30.112875 3.81444444,31.08825 3.98666667,32.092875 C4.22888889,33.510375 5.50333333,34.821 7.00666667,34.821 C8.47333333,34.821 9.76444444,33.54525 10.0177778,32.153625 C10.1922222,31.199625 9.99,30.25125 9.78,29.323125 C9.44222222,27.831375 9.23555556,26.31375 9.04444444,24.79725 C8.63777778,21.42225 8.61,18.073125 8.61888889,14.69475 C10.2577778,14.374125 11.7555556,13.514625 12.5933333,12.033 C13.4244444,10.566 13.1477778,8.782875 12.8666667,7.196625 C12.5077778,5.175 11.8322222,3.184875 10.6744444,1.48725 C10.6411111,1.404 10.58,1.328625 10.48,1.272375 C10.2533333,1.14525 10.0644444,1.090125 9.90666667,1.089 C8.91222222,1.089 9.18333333,3.324375 9.18333333,4.03425 Z" id="path-5"></path>
        <path d="M9.18333333,4.03425 L9.18333333,7.518375 C9.18333333,7.871625 9.28666667,8.418375 9.18333333,8.755875 C9.16777778,8.807625 9.21777778,8.987625 9.18333333,9.03375 C8.69666667,9.6705 8.62555556,8.11575 8.61222222,8.053875 C8.29222222,6.568875 8.50888889,4.9275 8.21222222,3.407625 C8.10666667,2.8665 7.96777778,1.918125 7.46444444,1.5615 C6.18555556,0.649125 5.79888889,3.3525 5.69777778,4.019625 C5.59666667,4.7025 5.53222222,5.391 5.48444444,6.0795 C5.46333333,6.38325 5.48666667,9.4725 4.82888889,9.120375 C4.66888889,9.034875 4.82888889,7.164 4.82888889,6.980625 L4.82888889,3.497625 C4.82888889,2.968875 4.96333333,2.269125 4.81222222,1.75725 C4.58888889,0.98775 3.89222222,0.93375 3.37,1.436625 C2.24777778,2.516625 1.68222222,4.78125 1.34222222,6.23475 C0.635555556,9.27 0.478888889,12.34575 3.54111111,13.995 C4.10333333,14.297625 4.73222222,14.51925 5.39333333,14.661 C5.39888889,18.07875 5.37222222,21.468375 4.95888889,24.883875 C4.77777778,26.308125 4.58777778,27.736875 4.27555556,29.138625 C4.05888889,30.112875 3.81444444,31.08825 3.98666667,32.092875 C4.22888889,33.510375 5.50333333,34.821 7.00666667,34.821 C8.47333333,34.821 9.76444444,33.54525 10.0177778,32.153625 C10.1922222,31.199625 9.99,30.25125 9.78,29.323125 C9.44222222,27.831375 9.23555556,26.31375 9.04444444,24.79725 C8.63777778,21.42225 8.61,18.073125 8.61888889,14.69475 C10.2577778,14.374125 11.7555556,13.514625 12.5933333,12.033 C13.4244444,10.566 13.1477778,8.782875 12.8666667,7.196625 C12.5077778,5.175 11.8322222,3.184875 10.6744444,1.48725 C10.6411111,1.404 10.58,1.328625 10.48,1.272375 C10.2533333,1.146375 10.0644444,1.089 9.90666667,1.089 C8.91222222,1.089 9.18333333,3.3255 9.18333333,4.03425 Z" id="path-7"></path>
    </defs>
    <g id="icon-dining" stroke="none" stroke-width="1" fill="none" fill-rule="evenodd">
        <g id="Page-1-Copy-33" transform="translate(6.000000, 3.000000)">
            <path d="M28.7667778,9.34605 C28.2423333,6.2433 26.659,1.6398 22.9745556,1.406925 C22.9401111,1.400175 22.9045556,1.3968 22.8645556,1.397925 C22.8245556,1.3968 22.7878889,1.400175 22.7545556,1.406925 C19.069,1.6398 17.4856667,6.2433 16.9612222,9.34605 C16.6778889,11.02005 16.4834444,12.782925 17.5601111,14.211675 C18.4267778,15.36255 19.8178889,16.06905 21.2445556,16.3728 C21.2367778,19.325925 21.1756667,22.246425 20.8156667,25.2108 C20.6356667,26.633925 20.4445556,28.062675 20.1334444,29.46555 C19.9178889,30.438675 19.6723333,31.415175 19.8445556,32.4198 C20.0867778,33.8373 21.3612222,35.147925 22.8645556,35.147925 C24.3323333,35.147925 25.6223333,33.87105 25.8756667,32.48055 C26.0501111,31.525425 25.849,30.57705 25.639,29.648925 C25.3001111,28.157175 25.0923333,26.640675 24.9012222,25.12305 C24.5478889,22.190175 24.4901111,19.296675 24.4834444,16.3728 C25.9101111,16.06905 27.3012222,15.36255 28.1678889,14.211675 C29.2423333,12.787425 29.0501111,11.01555 28.7667778,9.34605" id="Fill-1" fill="#998675"></path>
            <g id="Group-5" transform="translate(16.666667, 0.326250)">
                <mask id="mask-2" fill="white">
                    <use xlink:href="#path-1"></use>
                </mask>
                <g id="Clip-4"></g>
                <polygon id="Fill-3" fill="#998675" mask="url(#mask-2)" points="-153.333333 1284.75 598.882222 1284.75 598.882222 -1946.57625 -153.333333 -1946.57625"></polygon>
            </g>
            <g id="Group-8" transform="translate(16.666667, 1.326250)">
                <mask id="mask-4" fill="white">
                    <use xlink:href="#path-3"></use>
                </mask>
                <g id="Clip-7"></g>
                <polygon id="Fill-6" fill="#998675" mask="url(#mask-4)" points="-2 35.71675 14.1666667 35.71675 14.1666667 -2 -2 -2"></polygon>
            </g>
            <path d="M10.6743333,1.8129375 C10.6421111,1.7308125 10.5798889,1.6543125 10.4798889,1.5991875 C8.81988889,0.6699375 9.18322222,3.5386875 9.18322222,4.3610625 L9.18322222,7.8440625 C9.18322222,8.1973125 9.28655556,8.7440625 9.18322222,9.0815625 C9.16766667,9.1333125 9.21766667,9.3133125 9.18322222,9.3594375 C8.69655556,9.9961875 8.62544444,8.4414375 8.61322222,8.3806875 C8.29211111,6.8945625 8.50988889,5.2543125 8.21211111,3.7344375 C8.10544444,3.1933125 7.96655556,2.2449375 7.46433333,1.8871875 C6.18544444,0.9759375 5.79877778,3.6781875 5.69766667,4.3453125 C5.59655556,5.0281875 5.53211111,5.7166875 5.48433333,6.4063125 C5.46433333,6.7089375 5.48655556,9.7993125 4.82877778,9.4460625 C4.66988889,9.3616875 4.82877778,7.4896875 4.82877778,7.3074375 L4.82877778,3.8244375 C4.82877778,3.2945625 4.96322222,2.5959375 4.81322222,2.0840625 C4.58766667,1.3134375 3.89211111,1.2594375 3.371,1.7634375 C2.24877778,2.8434375 1.68211111,5.1069375 1.34322222,6.5615625 C0.635444444,9.5968125 0.478777778,12.6714375 3.541,14.3206875 C4.10322222,14.6233125 4.73211111,14.8449375 5.39322222,14.9866875 C5.39988889,18.4055625 5.37322222,21.7940625 4.95766667,25.2106875 C4.77655556,26.6349375 4.58655556,28.0625625 4.27544444,29.4643125 C4.05988889,30.4396875 3.81433333,31.4150625 3.98544444,32.4196875 C4.22877778,33.8371875 5.50322222,35.1466875 7.00655556,35.1466875 C8.47433333,35.1466875 9.76433333,33.8720625 10.0176667,32.4804375 C10.1921111,31.5253125 9.991,30.5769375 9.77988889,29.6488125 C9.44322222,28.1570625 9.23544444,26.6405625 9.04433333,25.1229375 C8.63766667,21.7490625 8.611,18.3988125 8.61877778,15.0215625 C10.2587778,14.6998125 11.7554444,13.8403125 12.5943333,12.3598125 C13.4243333,10.8928125 13.1476667,9.1096875 12.8665556,7.5234375 C12.5076667,5.5018125 11.8321111,3.5116875 10.6743333,1.8129375" id="Fill-9" fill="#998675"></path>
            <g id="Group-13" transform="translate(0.000000, 0.326250)">
                <mask id="mask-6" fill="white">
                    <use xlink:href="#path-5"></use>
                </mask>
                <g id="Clip-12"></g>
                <polygon id="Fill-11" fill="#998675" mask="url(#mask-6)" points="-136.666667 1284.75 615.548889 1284.75 615.548889 -1946.57625 -136.666667 -1946.57625"></polygon>
            </g>
            <g id="Group-16" transform="translate(0.000000, 0.326250)">
                <mask id="mask-8" fill="white">
                    <use xlink:href="#path-7"></use>
                </mask>
                <g id="Clip-15"></g>
                <polygon id="Fill-14" fill="#998675" mask="url(#mask-8)" points="-1.04222222 36.804375 15.1055556 36.804375 15.1055556 -0.894375 -1.04222222 -0.894375"></polygon>
            </g>
        </g>
    </g>
</svg>